<?xml version="1.0" standalone="no"?>
<!DOCTYPE svg PUBLIC "-//W3C//DTD SVG 1.1//EN" "http://www.w3.org/Graphics/SVG/1.1/DTD/svg11.dtd" >
<svg xmlns="http://www.w3.org/2000/svg">
<metadata></metadata>
<defs>
<font id="catamaransemibold" horiz-adv-x="1312" >
<font-face units-per-em="2048" ascent="1577" descent="-471" />
<missing-glyph horiz-adv-x="466" />
<glyph horiz-adv-x="0" />
<glyph horiz-adv-x="0" />
<glyph unicode="&#xd;" horiz-adv-x="0" />
<glyph unicode=" "  horiz-adv-x="466" />
<glyph unicode="&#x09;" horiz-adv-x="466" />
<glyph unicode="&#xa0;" horiz-adv-x="466" />
<glyph unicode="!" horiz-adv-x="397" d="M61 135q0 -57 40 -96t98 -39q57 0 97 39t40 96t-40 97t-97 40q-58 0 -98 -39.5t-40 -97.5zM76 1438l35 -953l180 -84l31 1037h-246z" />
<glyph unicode="&#x22;" horiz-adv-x="759" d="M41 1044l51 -108q106 57 178 172t72 225q0 72 -42 119t-99 47q-56 0 -95.5 -44t-39.5 -95q0 -49 34.5 -90t71.5 -43q-10 -57 -40 -93t-91 -90zM397 1044l56 -108q104 57 174.5 172t70.5 225q0 72 -40 119t-97 47q-55 0 -96 -44t-41 -95q0 -49 35 -90t73 -43 q-10 -57 -40.5 -94t-94.5 -89z" />
<glyph unicode="#" horiz-adv-x="1148" d="M61 401l21 -172h102l-55 -241l195 -11l57 252h254l-53 -241l194 -11l55 252h256l-18 172h-197l56 242h159l-18 172h-100l53 236l-199 4l-53 -240h-254l55 236l-194 4l-58 -240h-258l21 -172h197l-56 -242h-162zM422 401l55 242h252l-55 -242h-252z" />
<glyph unicode="$" horiz-adv-x="1069" d="M78 1059q0 113 65.5 201t186.5 131v235l157 25v-226h43q37 0 78 -4v205l162 25v-262q76 -23 156 -62l-78 -182q-78 37 -144.5 57.5t-150.5 20.5q-106 0 -174 -41t-68 -121q0 -57 36 -101.5t94.5 -78t183.5 -97.5q131 -68 209.5 -122t129 -130.5t50.5 -179.5 q0 -117 -65.5 -205t-188.5 -133v-266h-160v232q-45 -6 -90 -7h-33v-225h-158v252q-145 37 -217 84l52 184q70 -35 166 -63.5t180 -28.5q135 0 206.5 46t71.5 130q0 53 -39 97.5t-99 79t-175 92.5q-193 98 -290 195t-97 243z" />
<glyph unicode="%" horiz-adv-x="1859" d="M57 1090q0 -107 46.5 -185t122 -120t165.5 -42q88 0 165 43t123 122t46 182q0 106 -45 185t-122 121t-167 42q-88 0 -164.5 -43t-123 -123t-46.5 -182zM256 1092q0 84 40 130t95 46q59 0 98 -46t39 -132t-41 -132.5t-96 -46.5q-59 0 -97 46.5t-38 134.5zM502 0l231 -8 l615 1454l-230 8zM1137 346q0 -106 46 -185t122.5 -120t167.5 -41q86 0 161.5 43t121.5 122t46 181q0 106 -45 185t-119.5 120t-164.5 41t-167 -42t-123 -120.5t-46 -183.5zM1335 348q0 84 41 130t97 46q57 0 96 -47t39 -131q0 -86 -40 -133t-95 -47q-59 0 -98.5 47 t-39.5 135z" />
<glyph unicode="&#x26;" horiz-adv-x="1388" d="M78 442q0 -150 70.5 -254t192.5 -157.5t273 -55.5q264 0 424 148l160 -146l133 168l-164 146q84 170 97 393l-203 82q-8 -180 -68 -317l-354 325q-98 86 -139 147.5t-41 131.5q0 72 49 122t133 50q82 0 140.5 -19.5t142.5 -60.5l77 182q-188 98 -362 98q-125 0 -219 -52 t-145.5 -139t-51.5 -192q0 -111 60 -196q-92 -74 -148.5 -181.5t-56.5 -222.5zM317 446q2 72 31 134.5t78 107.5q29 -33 66 -65l382 -351q-104 -92 -260 -92q-125 0 -211 67.5t-86 198.5z" />
<glyph unicode="'" horiz-adv-x="403" d="M41 1044l51 -108q106 57 178 172t72 225q0 72 -42 119t-99 47q-56 0 -95.5 -44t-39.5 -95q0 -49 34.5 -90t71.5 -43q-10 -57 -40 -93t-91 -90z" />
<glyph unicode="(" horiz-adv-x="600" d="M102 655q0 -193 67 -383t189 -350l181 66q-86 102 -154 307t-68 362q0 152 67 353.5t155 316.5l-181 66q-125 -174 -190.5 -361.5t-65.5 -376.5z" />
<glyph unicode=")" horiz-adv-x="600" d="M61 -14l181 -64q125 176 190.5 362.5t65.5 370.5q0 193 -66.5 384.5t-189.5 353.5l-181 -68q86 -102 153 -308t67 -362q0 -152 -65.5 -353.5t-154.5 -315.5z" />
<glyph unicode="*" horiz-adv-x="768" d="M20 1251l220 -45l-152 -213l139 -106l158 213l158 -213l137 106l-152 215l220 43l-52 158l-219 -47l-2 213h-180l-4 -213l-219 47z" />
<glyph unicode="+" horiz-adv-x="1099" d="M61 649l17 -176h373v-457l215 -8v465h372l-20 176h-352v438l-215 7v-445h-390z" />
<glyph unicode="," horiz-adv-x="405" d="M41 -182l53 -109q106 57 178 173t72 224q0 72 -41 119t-100 47q-56 0 -95.5 -42t-39.5 -95q0 -49 34.5 -91t71.5 -44q-10 -57 -41 -95t-92 -87z" />
<glyph unicode="-" horiz-adv-x="671" d="M61 651l21 -182h528l-20 182h-529z" />
<glyph unicode="." horiz-adv-x="395" d="M61 135q0 -57 40 -96t98 -39q57 0 96 39t39 96t-39 97t-96 40t-97.5 -39.5t-40.5 -97.5z" />
<glyph unicode="/" horiz-adv-x="892" d="M20 0l234 -8l618 1454l-235 8z" />
<glyph unicode="0" horiz-adv-x="1230" d="M57 586q0 -174 72 -314.5t200 -219.5t287 -79q160 0 288 79t200 220.5t72 317.5q0 170 -72 306t-200 213t-288 77t-287.5 -77t-199.5 -214t-72 -309zM272 592q0 115 44 205t123 141t177 51t177 -52t124.5 -145.5t45.5 -209.5q0 -119 -44.5 -212.5t-123 -146.5t-179.5 -53 q-98 0 -177 54.5t-123 150.5t-44 217z" />
<glyph unicode="1" horiz-adv-x="708" d="M20 977l95 -178l225 104v-903h229v1159h-153z" />
<glyph unicode="2" horiz-adv-x="991" d="M51 0h899l-30 176h-558l230 191q166 137 230.5 241.5t64.5 233.5q0 158 -115 251t-311 93q-205 -1 -383 -107l47 -184q80 47 155.5 75.5t165.5 28.5q111 0 175.5 -45t64.5 -131q0 -68 -51 -138.5t-160 -166.5l-424 -364v-154z" />
<glyph unicode="3" horiz-adv-x="976" d="M0 -33q100 -53 214 -88t218 -35q141 0 250 52.5t168 142.5t59 201q0 82 -30.5 149.5t-78.5 110.5t-100 55q74 29 129.5 107.5t55.5 173.5q0 96 -48.5 176t-144.5 127t-231 47q-115 0 -219.5 -36t-206.5 -101l108 -156q156 106 312 106q96 0 155.5 -49t59.5 -119 q0 -86 -80 -138t-215 -52h-119l33 -178h73q170 0 251 -59.5t81 -165.5q0 -92 -76.5 -149.5t-181.5 -57.5q-92 0 -164.5 21.5t-154.5 70.5z" />
<glyph unicode="4" horiz-adv-x="1122" d="M20 317l31 -188h584v-270h231v270h191l24 188h-215v852h-170zM268 317l367 476v-476h-367z" />
<glyph unicode="5" horiz-adv-x="1036" d="M57 -35q94 -51 207 -86t219 -35q152 0 264.5 57.5t173 159t60.5 230.5q-2 119 -52 215t-150.5 153.5t-248.5 57.5q-96 0 -172 -43l15 297h508l26 188h-733l-35 -725h209q23 37 74 67.5t119 30.5q100 0 162.5 -64.5t62.5 -176.5q0 -117 -77 -185.5t-197 -68.5 q-94 0 -166 21.5t-156 68.5z" />
<glyph unicode="6" horiz-adv-x="1069" d="M57 516q0 225 121 395t301 267.5t361 119.5l37 -186q-188 -43 -342 -135t-220 -244q115 74 250 74q129 0 231.5 -53.5t160 -148.5t57.5 -212q0 -121 -57.5 -217t-158 -149.5t-227.5 -53.5q-150 0 -266.5 61.5t-182 184.5t-65.5 297zM274 516q4 -172 84 -262t205 -90 q105 0 173.5 63.5t68.5 155.5q0 106 -68.5 174t-177.5 68q-154 0 -285 -109z" />
<glyph unicode="7" horiz-adv-x="946" d="M20 1159l29 -188h600l-379 -1049l215 -63l420 1206l-69 94h-816z" />
<glyph unicode="8" horiz-adv-x="1054" d="M57 371q0 -111 56.5 -201t163 -143.5t251.5 -53.5q143 0 250 53.5t163 143.5t56 201q0 72 -33.5 139.5t-90 116.5t-117.5 67q82 39 135 112t53 159q0 96 -50 176t-144.5 128t-221.5 48t-222 -48t-145 -128t-50 -176q0 -88 52 -161t136 -110q-61 -16 -117.5 -67.5 t-90.5 -120t-34 -135.5zM268 367q0 88 67.5 153.5t192.5 83.5q123 -18 190.5 -83.5t67.5 -153.5q0 -92 -76.5 -149.5t-181.5 -57.5q-109 0 -184.5 56t-75.5 151zM319 965q0 66 58.5 114.5t146.5 48.5q92 0 150.5 -48t58.5 -115q0 -74 -53 -125.5t-152 -65.5 q-100 14 -154.5 65.5t-54.5 125.5z" />
<glyph unicode="9" horiz-adv-x="1069" d="M57 766q0 121 56.5 217t158 149.5t228.5 53.5q149 0 266 -61.5t182.5 -184.5t65.5 -297q0 -225 -121 -395t-301 -267.5t-361 -119.5l-36 186q188 43 341.5 135t219.5 244q-115 -74 -250 -74q-129 0 -231.5 53.5t-160 148.5t-57.5 212zM266 776q0 -108 67.5 -174.5 t178.5 -66.5q154 0 285 108q-4 172 -84 262t-205 90q-104 0 -173 -63.5t-69 -155.5z" />
<glyph unicode=":" horiz-adv-x="395" d="M61 156q0 -57 40 -97.5t98 -40.5q57 0 96 40t39 98q0 57 -39 96t-96 39t-97.5 -39t-40.5 -96zM61 821q0 -57 40 -97t98 -40q57 0 96 40t39 97q0 55 -40 96t-95 41q-57 0 -97.5 -40.5t-40.5 -96.5z" />
<glyph unicode=";" horiz-adv-x="407" d="M41 -164l53 -108q106 57 178 172.5t72 224.5q0 74 -41 120t-100 46q-56 0 -95.5 -42t-39.5 -95q0 -49 34.5 -91.5t71.5 -44.5q-10 -57 -41 -95t-92 -87zM70 821q0 -57 41 -97t98 -40t97 40t40 97q0 55 -40 96t-97 41t-98 -40.5t-41 -96.5z" />
<glyph unicode="&#x3c;" horiz-adv-x="698" d="M61 444l549 -405l47 188l-368 275l368 274l-47 187l-549 -406v-113z" />
<glyph unicode="=" horiz-adv-x="1046" d="M61 401l21 -172h903l-18 172h-906zM61 815l21 -172h903l-18 172h-906z" />
<glyph unicode="&#x3e;" horiz-adv-x="698" d="M41 227l47 -188l549 405v113l-549 406l-47 -187l369 -274z" />
<glyph unicode="?" horiz-adv-x="874" d="M20 1319l29 -205q193 129 352 129q90 0 143.5 -44t53.5 -126q0 -90 -94 -170t-248 -129l16 -360l164 -68l31 309q152 76 249 194t97 228q0 166 -103.5 262.5t-301.5 96.5q-111 0 -202 -29t-186 -88zM207 135q0 -57 40 -96t95 -39q57 0 97 39t40 96t-40 97t-97 40 q-55 0 -95 -39.5t-40 -97.5z" />
<glyph unicode="@" horiz-adv-x="1564" d="M57 455q0 -193 95.5 -343.5t251 -233.5t325.5 -83q119 0 220.5 18.5t197.5 67.5l-57 176q-74 -39 -164 -56t-176 -17q-131 0 -243 57t-177.5 164.5t-65.5 249.5q0 176 83 311t220.5 208t290.5 73q133 0 237.5 -55.5t163 -154t58.5 -223.5q0 -92 -23.5 -162.5 t-62.5 -108.5t-84 -38q-25 0 -45.5 21.5t-18.5 58.5l47 408l-65 81h-160q-123 0 -230.5 -53t-173 -149.5t-65.5 -220.5q0 -150 89 -237t266 -87q47 0 94 15.5t86 37.5q66 -55 164 -55q168 0 271 130t103 372q0 172 -84 309t-231 215t-332 78q-240 0 -423 -104.5 t-282.5 -281.5t-99.5 -388zM641 451q0 117 78 186.5t188 69.5h25l-39 -304q-8 -45 -36 -71.5t-69 -26.5q-75 0 -111 43t-36 103z" />
<glyph unicode="A" d="M20 0h228l133 350h547l137 -368l227 32l-536 1379h-203zM446 537l203 542l209 -542h-412z" />
<glyph unicode="B" horiz-adv-x="1261" d="M180 0h525q227 0 363 104.5t136 298.5q0 127 -62.5 213t-170.5 136q164 117 164 258q0 201 -124 292t-343 91h-488v-1393zM410 190v435h301q118 0 187 -57.5t69 -168.5q0 -104 -75 -156.5t-202 -52.5h-280zM410 811v389h229q127 0 191.5 -42t64.5 -150q0 -100 -80 -147.5 t-213 -49.5h-192z" />
<glyph unicode="C" horiz-adv-x="1148" d="M78 688q0 -201 74.5 -363.5t222 -258t356.5 -95.5q90 0 199.5 24.5t183.5 61.5l-88 172q-145 -63 -305 -63q-125 0 -216 70.5t-139.5 189.5t-48.5 264q0 160 55.5 282t150.5 188.5t214 66.5q84 0 136.5 -11.5t160.5 -46.5l70 166q-74 41 -180.5 63.5t-180.5 22.5 q-201 0 -351 -94t-232 -261t-82 -378z" />
<glyph unicode="D" horiz-adv-x="1400" d="M180 0h510q201 0 344.5 88t217 247t73.5 370q0 311 -159.5 499.5t-471.5 188.5h-514v-1393zM410 193v1003h292q195 0 291.5 -130t96.5 -364q0 -254 -108 -381.5t-294 -127.5h-278z" />
<glyph unicode="E" horiz-adv-x="1148" d="M180 0h928l-35 180h-663v436h497l-35 181h-462v415h610l-33 181h-807v-1393z" />
<glyph unicode="F" horiz-adv-x="1024" d="M180 0h230v608h475l-31 176h-444v428h573l-35 181h-768v-1393z" />
<glyph unicode="G" horiz-adv-x="1288" d="M78 688q0 -201 84 -364.5t241.5 -258t368.5 -94.5q117 0 228.5 28t189.5 73v673h-488l-18 -176h297v-374q-106 -29 -215 -29q-131 0 -232.5 64.5t-159 183t-57.5 276.5q0 170 66 292t176.5 183.5t243.5 61.5q84 0 134 -11.5t161 -46.5l71 166q-76 41 -185.5 63.5 t-184.5 22.5q-205 0 -370 -93t-258 -261t-93 -379z" />
<glyph unicode="H" horiz-adv-x="1402" d="M180 0h230v606h583v-606h230v1393h-230v-602h-583v612l-230 -10v-1393z" />
<glyph unicode="I" horiz-adv-x="587" d="M180 0h230v1393h-230v-1393z" />
<glyph unicode="J" horiz-adv-x="575" d="M20 -41l93 -168q119 37 183 79t92 102.5t28 152.5v1268h-232v-1229q0 -66 -11 -99.5t-45 -56t-108 -49.5z" />
<glyph unicode="K" d="M180 0v1393h230v-615l620 645l166 -133l-485 -514l581 -776h-282l-457 612l-143 -153v-459h-230z" />
<glyph unicode="L" horiz-adv-x="1083" d="M180 0h883l-33 180h-620v1213h-230v-1393z" />
<glyph unicode="M" horiz-adv-x="1570" d="M180 0h230v920l358 -486l88 12l303 441v-887h234v1393h-142l-448 -666l-479 666h-144v-1393z" />
<glyph unicode="N" horiz-adv-x="1492" d="M180 0h230v987l684 -987h219v1393h-232v-981l-684 981h-217v-1393z" />
<glyph unicode="O" horiz-adv-x="1501" d="M78 690q0 -205 83 -368.5t235.5 -257t351.5 -93.5q197 2 350 96.5t239 260.5t86 377q0 205 -83 368.5t-236.5 257.5t-353.5 94q-195 -4 -348.5 -99t-238.5 -261t-85 -375zM317 692q0 156 57.5 279t158 190.5t221.5 67.5q127 0 224 -67.5t150.5 -186.5t53.5 -270 q0 -164 -57.5 -286t-157 -187.5t-222.5 -65.5q-127 0 -224 67.5t-150.5 187.5t-53.5 271z" />
<glyph unicode="P" horiz-adv-x="1191" d="M180 0h230v500h168q152 0 277.5 49t202.5 151.5t77 251.5q0 225 -148.5 333t-390.5 108h-416v-1393zM410 690v510h182q147 0 224 -59.5t77 -200.5q-6 -127 -87 -188.5t-218 -61.5h-178z" />
<glyph unicode="Q" horiz-adv-x="1501" d="M78 690q0 209 85 375t238.5 261t348.5 99q201 0 354 -94t236 -258t83 -368q0 -152 -45 -282t-131 -226l144 -142l-134 -116l-147 137q-158 -102 -362 -105q-199 0 -351.5 93.5t-235.5 257t-83 368.5zM317 692q0 -152 53.5 -271.5t150.5 -187t224 -67.5q115 0 207 55 l-174 162l158 121l154 -152q92 145 92 353q0 152 -53.5 270.5t-150.5 186t-224 67.5q-121 0 -221.5 -67.5t-158 -190.5t-57.5 -279z" />
<glyph unicode="R" horiz-adv-x="1261" d="M180 0h230v543h168q72 0 112 6l303 -549h248l-346 606q109 49 174.5 143.5t65.5 223.5q0 209 -149.5 314.5t-389.5 105.5h-416v-1393zM410 731v469h182q145 0 223 -55t78 -182q0 -121 -84 -176.5t-221 -55.5h-178z" />
<glyph unicode="S" horiz-adv-x="1069" d="M78 1059q0 -145 97 -242.5t290 -195.5q115 -57 175 -92t99 -79t39 -98q0 -84 -71.5 -130t-206.5 -46q-84 0 -180.5 28.5t-165.5 63.5l-52 -184q54 -39 183 -75t217 -36q162 0 277.5 48.5t175 134.5t59.5 196q0 102 -50.5 179t-129 131.5t-209.5 121.5q-125 63 -183.5 97 t-94.5 78.5t-36 101.5q0 80 67.5 121t174.5 41q84 0 150.5 -20.5t144.5 -57.5l78 182q-86 43 -185.5 70.5t-195.5 27.5q-143 0 -249 -48t-162 -131t-56 -187z" />
<glyph unicode="T" horiz-adv-x="1189" d="M20 1210h439v-1210h233v1210h477l-34 183h-1115v-183z" />
<glyph unicode="U" horiz-adv-x="1433" d="M160 502q0 -150 68.5 -269.5t194.5 -187.5t294 -68t294 68t194.5 187.5t68.5 269.5v891h-232v-873q0 -168 -88 -261t-237 -93q-150 0 -238 92t-88 262v873h-231v-891z" />
<glyph unicode="V" d="M20 1378l539 -1378h201l532 1393h-227l-401 -1080l-414 1098z" />
<glyph unicode="W" horiz-adv-x="1861" d="M20 1378l230 33l291 -1098l278 1080h228l286 -1080l279 1080h229l-411 -1393h-201l-299 1065l-293 -1065h-201z" />
<glyph unicode="X" horiz-adv-x="1269" d="M20 0h238l373 545l348 -545h244l-451 690l477 703h-239l-355 -543l-399 584l-195 -86l453 -643z" />
<glyph unicode="Y" horiz-adv-x="1214" d="M20 1352l459 -803v-549h230l2 545l483 848h-244l-358 -613l-346 645z" />
<glyph unicode="Z" horiz-adv-x="1167" d="M37 180l26 -180h1065l-24 180h-817l837 1030l-26 183h-1004l29 -183h735z" />
<glyph unicode="[" horiz-adv-x="694" d="M205 -180h469l-35 178h-209v1247h209l35 180h-469v-1605z" />
<glyph unicode="\" horiz-adv-x="892" d="M20 1446l617 -1454l235 8l-616 1454z" />
<glyph unicode="]" horiz-adv-x="694" d="M20 -180h469v1605h-469l31 -180h209v-1247h-209z" />
<glyph unicode="^" horiz-adv-x="907" d="M20 293h236l197 280l198 -280h236l-357 506h-151z" />
<glyph unicode="_" horiz-adv-x="903" d="M61 180l21 -180h760l-21 180h-760z" />
<glyph unicode="`" horiz-adv-x="389" d="M20 1536l189 -330l160 43l-107 287h-242z" />
<glyph unicode="a" horiz-adv-x="1019" d="M92 291q0 -143 89 -229.5t261 -86.5q74 0 148 35t131 90l35 -100h153v664q0 100 -55 181t-150.5 128t-209.5 47q-70 0 -181.5 -26.5t-165.5 -61.5l64 -189q152 68 287 68q176 0 180 -207h-217q-166 0 -267.5 -82t-101.5 -231zM293 291q0 67 44 113.5t120 46.5h223v-179 q-51 -53 -114.5 -83.5t-127.5 -30.5q-68 0 -106.5 40t-38.5 93z" />
<glyph unicode="b" horiz-adv-x="1116" d="M139 0v1423l230 23v-479q100 53 194 53q152 0 264.5 -64.5t173 -183.5t60.5 -278q0 -154 -61.5 -272t-175 -183.5t-265.5 -65.5q-55 0 -123.5 25t-128.5 65l-47 -63h-121zM369 233q84 -61 190 -61q123 0 193.5 90t70.5 232q0 147 -69.5 238t-194.5 91q-53 0 -99 -16 t-91 -49v-525z" />
<glyph unicode="c" horiz-adv-x="958" d="M57 498q0 -158 62.5 -276t177.5 -183.5t270 -65.5q72 0 174.5 27t165.5 72l-67 168q-74 -35 -135.5 -51.5t-137.5 -16.5q-125 0 -199.5 90t-74.5 236q2 141 79 233t199 92q72 0 132.5 -16t140.5 -51l65 164q-63 45 -165.5 72.5t-172.5 27.5q-156 0 -272.5 -65.5 t-179 -183.5t-62.5 -273z" />
<glyph unicode="d" horiz-adv-x="1142" d="M57 500q0 156 60.5 273.5t174.5 182t265 64.5q47 0 104.5 -17.5t110.5 -50.5v471l232 21v-1444h-125l-50 82q-63 -51 -135.5 -80t-140.5 -29q-152 0 -263.5 65.5t-172 184.5t-60.5 277zM293 502q0 -150 70.5 -240t193.5 -90q61 0 112.5 19.5t102.5 62.5v487 q-49 43 -100 62.5t-115 19.5q-123 0 -193.5 -90t-70.5 -231z" />
<glyph unicode="e" horiz-adv-x="1042" d="M57 498q0 -242 142.5 -382.5t412.5 -140.5q201 0 367 115l-70 168q-88 -45 -150.5 -66.5t-142.5 -21.5q-287 0 -317 266h688v68q0 225 -112.5 370.5t-331.5 145.5q-150 0 -259.5 -65.5t-168 -183.5t-58.5 -273zM303 590q14 110 74.5 171.5t159.5 61.5q96 0 153.5 -59 t75.5 -174h-463z" />
<glyph unicode="f" horiz-adv-x="712" d="M29 809h151v-809h232v809h258l-74 176h-184v76q0 82 32.5 129t102.5 47q37 0 102 -25l64 172q-29 23 -83.5 38.5t-99.5 15.5q-164 0 -257 -93.5t-93 -254.5v-105h-151v-176z" />
<glyph unicode="g" horiz-adv-x="1134" d="M57 500q0 156 60.5 273.5t174.5 182t265 64.5q61 0 137 -28.5t135 -78.5l50 80h125v-1061q0 -186 -134.5 -294.5t-367.5 -108.5q-74 0 -191.5 28.5t-185.5 75.5l70 166q92 -43 158.5 -63.5t142.5 -20.5q123 0 199.5 58.5t76.5 160.5v107q-53 -33 -110.5 -50.5 t-108.5 -17.5q-152 0 -263.5 65.5t-172 184.5t-60.5 277zM293 502q0 -150 70.5 -240t193.5 -90q61 0 112.5 19.5t102.5 62.5v487q-49 43 -100 62.5t-115 19.5q-123 0 -193.5 -90t-70.5 -231z" />
<glyph unicode="h" horiz-adv-x="1153" d="M139 0v1423l230 23v-545q84 57 174 91t170 34q329 0 329 -387v-639h-229v625q0 206 -155 206h-1q-123 0 -288 -137v-694h-230z" />
<glyph unicode="i" horiz-adv-x="466" d="M98 1290q0 -57 38 -97t95 -40q58 0 98 40t40 97q0 55 -40 95t-98 40q-55 0 -94 -39.5t-39 -95.5zM119 0h231v993h-231v-993z" />
<glyph unicode="j" horiz-adv-x="512" d="M-4 -238q70 25 102.5 56.5t42 72.5t9.5 115v987h233v-1001q0 -117 -21.5 -187.5t-86 -122t-191.5 -92.5zM129 1290q0 55 39 95t96 40t98 -39.5t41 -95.5q0 -57 -40.5 -97t-98.5 -40q-57 0 -96 40t-39 97z" />
<glyph unicode="k" horiz-adv-x="1028" d="M139 0h230v342l116 109l277 -451h266l-381 598l287 264l-131 158l-434 -412v838l-230 -23v-1423z" />
<glyph unicode="l" horiz-adv-x="505" d="M139 0h230v1446l-230 -23v-1423z" />
<glyph unicode="m" horiz-adv-x="1736" d="M119 0v993h153l41 -119q86 68 184.5 110t180.5 42q201 0 272 -149q86 68 183.5 108.5t179.5 40.5q162 0 238.5 -96t76.5 -271v-659h-231v625q0 102 -32 154t-108 52q-59 0 -124.5 -34.5t-141.5 -94.5l2 -43v-659h-231v625q0 102 -32 154t-107 52q-109 0 -275 -137v-694 h-229z" />
<glyph unicode="n" horiz-adv-x="1132" d="M119 0h229v694q166 137 291 137q154 0 154 -206v-625h231v639q0 180 -78 283.5t-252 103.5q-90 0 -192.5 -41t-188.5 -111l-41 119h-153v-993z" />
<glyph unicode="o" horiz-adv-x="1138" d="M57 498q0 156 62.5 273.5t179.5 183t272 65.5q156 0 271.5 -64.5t178 -183.5t62.5 -274q0 -156 -63.5 -275t-180 -184.5t-272.5 -65.5t-270.5 65.5t-177 183.5t-62.5 276zM293 498q0 -145 74.5 -235.5t199.5 -90.5t202 92t77 232q0 145 -75 236t-200 91 q-123 0 -199.5 -92t-78.5 -233z" />
<glyph unicode="p" horiz-adv-x="1107" d="M131 -449v1442h121l49 -65q59 45 127 68.5t127 23.5q152 0 264.5 -64.5t173 -183.5t60.5 -278q0 -154 -61.5 -272t-175.5 -183.5t-265 -65.5q-90 0 -191 54v-453zM360 233q84 -61 191 -61q123 0 193.5 90t70.5 232q0 147 -69.5 238t-194.5 91q-53 0 -99 -16t-92 -49v-525 z" />
<glyph unicode="q" horiz-adv-x="1134" d="M57 500q0 156 60.5 273.5t174.5 182t265 64.5q59 0 135 -28.5t135 -76.5l52 78h125v-1421l-232 -21v490q-53 -33 -110.5 -50.5t-108.5 -17.5q-152 0 -263.5 65.5t-172 184.5t-60.5 277zM293 502q0 -150 70.5 -240t193.5 -90q61 0 112.5 19.5t102.5 62.5v487 q-49 43 -100 62.5t-115 19.5q-123 0 -193.5 -90t-70.5 -231z" />
<glyph unicode="r" horiz-adv-x="720" d="M119 0h229v633q82 74 180.5 125t171.5 51l-47 184q-72 0 -167 -51t-169 -113l-75 164h-123v-993z" />
<glyph unicode="s" horiz-adv-x="862" d="M61 725q0 -197 328 -303q197 -63 197 -154q0 -49 -55.5 -77.5t-133.5 -28.5q-123 0 -264 67l-70 -159q62 -45 161.5 -71t172.5 -26q199 0 304.5 80t105.5 226q0 207 -338 327q-84 29 -131 57.5t-49 63.5q0 45 43 76t106 31q70 0 130.5 -17.5t131.5 -50.5l72 156 q-66 45 -163 71.5t-167 26.5q-176 0 -278.5 -79t-102.5 -216z" />
<glyph unicode="t" horiz-adv-x="737" d="M27 809h137v-512q0 -162 94 -248t260 -86q45 0 99.5 15.5t84.5 35.5l-63 170q-53 -24 -98 -24h-4q-72 0 -108 48t-36 128v473h250l-70 176h-180v289l-229 -45v-244h-137v-176z" />
<glyph unicode="u" horiz-adv-x="1132" d="M111 354q0 -387 327 -387q90 0 192.5 41t188.5 111l41 -119h156v993h-232v-694q-165 -137 -290 -137q-154 0 -154 207v624h-229v-639z" />
<glyph unicode="v" horiz-adv-x="997" d="M20 956l369 -956h205l383 993h-240l-241 -661l-252 698z" />
<glyph unicode="w" horiz-adv-x="1452" d="M20 956l299 -956h203l193 659l203 -659h200l314 993h-240l-170 -641l-178 641h-250l-170 -641l-180 676z" />
<glyph unicode="x" horiz-adv-x="1001" d="M20 0h256l213 328l207 -328h254l-309 471l340 522h-252l-221 -342l-242 377l-209 -74l299 -448z" />
<glyph unicode="y" horiz-adv-x="999" d="M20 956l353 -909l-51 -135q-23 -62 -83.5 -99.5t-160.5 -80.5l80 -185q127 29 232.5 109t146.5 188l442 1149h-242l-239 -659l-254 696z" />
<glyph unicode="z" horiz-adv-x="897" d="M33 121l28 -121h805l-20 184h-527l535 680l-12 129h-776l47 -188h446z" />
<glyph unicode="{" horiz-adv-x="585" d="M61 555h86q41 0 73 -31.5t32 -79.5q0 -45 -35 -137q-12 -37 -23.5 -77t-11.5 -68q0 -248 297 -248h86l-22 176h-72q-45 0 -70.5 20.5t-25.5 47.5q0 31 8 58.5t27 72.5q18 39 27 69.5t9 63.5q0 143 -86 213q46 31 66 81t20 126q0 39 -10 70.5t-28 72.5q-16 41 -24.5 65.5 t-8.5 55.5q0 25 24.5 46.5t71.5 21.5h72l22 176h-86q-145 0 -220 -61.5t-75 -176.5q0 -57 33 -156q29 -90 29 -133q0 -51 -29 -83.5t-70 -32.5h-86v-152z" />
<glyph unicode="|" horiz-adv-x="587" d="M180 0l228 -16v1458l-228 16v-1458z" />
<glyph unicode="}" horiz-adv-x="583" d="M18 -86h86q297 0 297 248q0 29 -11 68.5t-23 76.5q-35 92 -35 137q0 47 31.5 79t72.5 32h86v152h-86q-41 0 -69.5 32.5t-28.5 83.5q0 43 29 133q33 98 32 156q0 115 -74.5 176.5t-220.5 61.5h-86l21 -176h74q47 0 71.5 -22t24.5 -46q0 -31 -8 -55.5t-25 -65.5 q-18 -41 -28.5 -72.5t-10.5 -70.5q0 -76 20.5 -126t65.5 -81q-86 -70 -86 -213q0 -33 9.5 -63.5t27.5 -69.5q18 -45 26.5 -73t8.5 -58q0 -27 -25.5 -47.5t-70.5 -20.5h-74z" />
<glyph unicode="~" horiz-adv-x="929" d="M61 369h201q2 41 21.5 60.5t42.5 19.5q41 0 71.5 -9.5t67.5 -25.5q45 -20 80 -29.5t84 -9.5q104 0 171.5 73.5t67.5 231.5h-200q-2 -43 -22.5 -62.5t-43.5 -19.5q-39 0 -67.5 8t-65.5 27q-45 18 -80 28.5t-86 10.5q-106 0 -174 -75t-68 -228z" />
<glyph unicode="&#xa1;" horiz-adv-x="397" d="M61 1300q0 -57 40 -97t98 -40q57 0 97 40t40 97t-40 97.5t-97 40.5t-97.5 -40t-40.5 -98zM76 0h243l-28 952l-182 82z" />
<glyph unicode="&#xa2;" horiz-adv-x="958" d="M57 498q0 209 113 348t307 168v211l223 22v-243q133 -33 209 -84l-65 -164q-80 35 -140.5 51t-132.5 16q-123 0 -199.5 -92t-78.5 -233q0 -145 74.5 -235.5t199.5 -90.5q76 0 137.5 16.5t135.5 51.5l67 -168q-80 -55 -205 -80v-225h-221v213q-197 27 -310.5 166 t-113.5 352z" />
<glyph unicode="&#xa3;" horiz-adv-x="995" d="M98 616h152v-262q0 -84 -34 -129t-114 -45l19 -180h854l-33 180h-510q51 76 51 242v194h328l-78 175h-250v235q0 80 33 127t102 47q43 0 103 -22l63 168q-29 23 -82 39t-100 16q-170 0 -261 -97.5t-91 -269.5v-243h-152v-175z" />
<glyph unicode="&#xa4;" horiz-adv-x="1415" d="M61 6l140 -166l217 219q133 -84 289 -86q162 0 290 84l217 -217l140 166l-201 205q80 125 82 285q-4 164 -80 284l199 203l-140 168l-215 -217q-133 84 -286 86q-156 -2 -293 -88l-219 219l-140 -168l207 -209q-37 -55 -58.5 -128t-21.5 -150q0 -156 76 -281zM426 498 q0 82 39 151.5t104.5 110.5t141.5 41q78 0 143.5 -40t104 -110.5t38.5 -156.5q0 -84 -39.5 -154t-106.5 -111t-144 -41q-78 0 -141.5 42t-101.5 113t-38 155z" />
<glyph unicode="&#xa5;" horiz-adv-x="1214" d="M20 1352l459 -803v-549h230l2 545l483 848h-244l-358 -613l-346 645zM598 217v21h18v-21h-18zM598 545v18h18v-18h-18z" />
<glyph unicode="&#xa6;" horiz-adv-x="587" d="M180 0l228 -16v606l-228 14v-604zM180 850l228 -19v611l-228 16v-608z" />
<glyph unicode="&#xa7;" horiz-adv-x="1212" d="M78 842q0 88 41 160.5t117 123.5q-16 49 -17 105q0 104 56.5 187t162 131t248.5 48q96 0 196.5 -28.5t184.5 -69.5l-76 -182q-78 37 -144.5 57.5t-150.5 20.5q-109 0 -176 -41t-67 -121q0 -57 35.5 -101.5t94 -78t183.5 -97.5q131 -68 210 -122t129 -130.5t50 -179.5 q0 -90 -40 -162.5t-116 -123.5q14 -43 15 -103q0 -111 -59.5 -196.5t-175 -134t-277.5 -48.5q-88 0 -217 36t-183 75l52 184q70 -35 166 -63.5t180 -28.5q135 0 206.5 46t71.5 130q0 53 -39 97t-99 79t-175 92q-193 98 -290 195.5t-97 243.5zM311 844q0 -57 36 -101.5 t94.5 -78t183.5 -97.5q100 -53 151 -83.5t94 -67.5q49 43 50 108q0 53 -39 97.5t-99.5 79t-175.5 92.5q-168 88 -248 155q-47 -43 -47 -104z" />
<glyph unicode="&#xa8;" horiz-adv-x="657" d="M20 1362q0 -49 36 -84t87 -35q52 0 85.5 35t33.5 84q0 51 -33.5 87t-85.5 36q-51 0 -87 -36t-36 -87zM393 1362q0 -49 37 -84t86 -35q51 0 86 35t35 84q0 51 -35 87t-86 36q-49 0 -86 -36t-37 -87z" />
<glyph unicode="&#xa9;" horiz-adv-x="1669" d="M57 688q0 -213 95.5 -388t271.5 -277.5t410 -102.5q233 0 409 102.5t272.5 277.5t96.5 388q0 215 -96.5 390t-272.5 277.5t-409 102.5t-409.5 -102.5t-272 -277.5t-95.5 -390zM213 690q0 180 76 323.5t217 225.5t328 82q188 0 328.5 -82t216 -225.5t75.5 -323.5 t-75.5 -323.5t-216 -225.5t-328.5 -82q-186 0 -327.5 82t-217.5 225.5t-76 323.5zM406 692q0 -219 122.5 -350t339.5 -131q68 0 158 24.5t148 67.5l-66 170q-68 -35 -118 -50t-118 -15q-115 0 -173 73.5t-58 212.5q0 127 61.5 203t171.5 76q70 0 117 -14.5t121 -51.5l64 174 q-61 41 -149.5 65.5t-154.5 24.5q-137 0 -242.5 -59t-164.5 -167.5t-59 -252.5z" />
<glyph unicode="&#xaa;" horiz-adv-x="673" d="M57 956q0 -96 62.5 -154.5t175.5 -58.5q47 0 95 22.5t87 53.5l43 -59h96v432q0 104 -79.5 175t-210.5 71q-55 0 -125 -18.5t-107 -41.5l41 -147q115 43 193 43q51 0 77.5 -28.5t30.5 -76.5h-129q-111 2 -180.5 -56t-69.5 -157zM231 967q0 28 25 45.5t68 17.5h116v-69 q-61 -55 -139 -56q-33 0 -51.5 17.5t-18.5 44.5z" />
<glyph unicode="&#xab;" horiz-adv-x="800" d="M61 455l318 -285l45 154l-188 178l188 178l-45 154l-318 -285v-94zM397 455l320 -285l43 154l-189 178l189 178l-43 154l-320 -285v-94z" />
<glyph unicode="&#xac;" horiz-adv-x="1052" d="M20 831l17 -182h758v-409l196 -11v500l-16 102h-955z" />
<glyph unicode="&#xad;" horiz-adv-x="245" />
<glyph unicode="&#xae;" horiz-adv-x="1486" d="M57 997q0 -188 84 -342.5t241 -245t361 -90.5q207 0 363 90.5t240 245t84 342.5q0 193 -84 348.5t-240 244.5t-363 89t-362.5 -90t-239.5 -244.5t-84 -347.5zM203 999q0 160 65.5 284t187.5 193.5t287 69.5q164 0 286 -69.5t187.5 -194.5t65.5 -283q0 -156 -65.5 -279.5 t-187.5 -195t-286 -71.5q-166 0 -287.5 71.5t-187 195.5t-65.5 279zM475 623h166v301h119l143 -301h187l-172 335q59 29 95 80.5t36 124.5q0 115 -81 172.5t-214 57.5h-279v-770zM641 1057v200h70q86 0 126 -19t40 -83q0 -57 -43 -77.5t-125 -20.5h-68z" />
<glyph unicode="&#xaf;" horiz-adv-x="565" d="M20 1270h525l-19 182h-506v-182z" />
<glyph unicode="&#xb0;" horiz-adv-x="516" d="M20 1243q0 -96 70 -160.5t168 -64.5q96 0 167 64.5t71 160.5q0 94 -71 160.5t-167 66.5q-98 0 -168 -66.5t-70 -160.5zM193 1241q0 33 26 53q16 10 41 11q33 0 51 -25q12 -18 13 -41q0 -35 -27 -53q-14 -12 -37 -12q-35 0 -53 28q-14 14 -14 39z" />
<glyph unicode="&#xb1;" horiz-adv-x="972" d="M61 772l19 -160h311v-331l199 -11v342h321l-18 160h-303v315l-199 7v-322h-330zM66 162l14 -162h831l-10 162h-835z" />
<glyph unicode="&#xb2;" horiz-adv-x="751" d="M31 1487l78 -150q61 31 119.5 51.5t117.5 20.5q57 0 91 -29.5t34 -70.5q0 -66 -29.5 -118t-99.5 -112l-291 -241v-150h660l-25 162h-360l143 119q115 98 165 175t50 165q0 68 -36 129t-109.5 101t-182.5 40q-100 0 -178 -26.5t-147 -65.5z" />
<glyph unicode="&#xb3;" horiz-adv-x="749" d="M0 664q68 -41 155 -68t169 -27q109 0 190.5 39t125.5 107.5t44 152.5q0 90 -48 157t-108 79q55 20 97.5 80.5t42.5 130.5q0 115 -84 189.5t-238 74.5q-88 0 -164 -26.5t-155 -77.5l84 -146q47 37 95 57.5t111 20.5q68 0 103 -25.5t35 -68.5q0 -57 -40 -94t-134 -37h-86 l22 -160h53q201 0 201 -156q0 -57 -46 -92t-120 -35q-59 0 -104 15.5t-113 54.5z" />
<glyph unicode="&#xb4;" horiz-adv-x="389" d="M20 1249l160 -43l189 330h-240z" />
<glyph unicode="&#xb5;" horiz-adv-x="1153" d="M131 -449v1442h229v-624q0 -207 154 -207q125 0 291 137v694h231v-993h-155l-41 119q-86 -70 -188.5 -111t-192.5 -41q-51 0 -99 10v-403z" />
<glyph unicode="&#xb6;" horiz-adv-x="1812" d="M57 952q0 -150 75 -252t202 -151t280 -49h58v-500h229v1210h428v-1210h232v1210h194v183h-1163q-240 0 -387.5 -107.5t-147.5 -333.5z" />
<glyph unicode="&#xb7;" horiz-adv-x="395" d="M61 537q0 -57 40 -97.5t98 -40.5q57 0 96 40t39 98q0 57 -39 96t-96 39t-97.5 -39t-40.5 -96z" />
<glyph unicode="&#xb8;" horiz-adv-x="475" d="M20 -401q29 -23 85.5 -37.5t97.5 -14.5q104 0 178 52.5t74 150.5q0 55 -43 105.5t-107 70.5l41 101h-168l-74 -185q80 -8 131.5 -33.5t51.5 -62.5q0 -23 -25.5 -35t-58.5 -12q-25 0 -63 12.5t-66 26.5z" />
<glyph unicode="&#xb9;" horiz-adv-x="600" d="M20 1425l82 -147l150 74v-664h209v877h-135z" />
<glyph unicode="&#xba;" horiz-adv-x="786" d="M57 1090q0 -160 87 -253.5t241 -93.5q156 0 251 93.5t95 250.5q0 162 -91 256.5t-249 94.5q-151 0 -242.5 -94.5t-91.5 -253.5zM256 1090q0 94 38 139t101 45q135 -1 135 -187q0 -92 -36.5 -137t-104.5 -45q-66 0 -99.5 46t-33.5 139z" />
<glyph unicode="&#xbb;" horiz-adv-x="804" d="M41 324l47 -154l315 285v94l-315 285l-47 -154l188 -178zM379 324l45 -154l319 285v94l-319 285l-45 -154l190 -178z" />
<glyph unicode="&#xbc;" horiz-adv-x="1775" d="M20 1425l82 -147l150 74v-664h209v877h-135zM92 -274h246l1128 1708h-247zM903 6l21 -168h424v-174h208v174h160l19 168h-179v651h-145zM1116 6l232 295v-295h-232z" />
<glyph unicode="&#xbd;" horiz-adv-x="1810" d="M20 1425l82 -147l150 74v-664h209v877h-135zM82 -274h246l1126 1708h-246zM1090 573l77 -151q133 72 238 72q59 0 93 -33t34 -76q0 -63 -29.5 -110.5t-101.5 -110.5l-291 -242v-147h659l-24 159h-361l144 119q115 98 166 176t51 164q0 68 -36 130.5t-110.5 102.5 t-183.5 40q-100 0 -176 -27t-149 -66z" />
<glyph unicode="&#xbe;" horiz-adv-x="1769" d="M0 664q68 -41 155 -68t169 -27q109 0 190.5 39t125.5 107.5t44 152.5q0 90 -48 157t-108 79q55 20 97.5 80.5t42.5 130.5q0 115 -84 189.5t-238 74.5q-88 0 -164 -26.5t-155 -77.5l84 -146q47 37 95 57.5t111 20.5q68 0 103 -26.5t35 -67.5q0 -59 -46.5 -95t-127.5 -36 h-86l22 -160h53q201 0 201 -156q0 -57 -46 -92t-120 -35q-59 0 -104 15.5t-113 54.5zM188 -274h244l1129 1708h-246zM897 6l23 -168h423v-174h209v174h160l17 168h-177v651h-145zM1110 6l233 295v-295h-233z" />
<glyph unicode="&#xbf;" horiz-adv-x="872" d="M61 260q0 -164 102.5 -261t299.5 -97q112 0 204.5 28.5t184.5 87.5l-29 207q-186 -131 -352 -131q-90 0 -142.5 44t-52.5 124q0 92 93.5 172t248.5 131l-18 359l-164 67l-28 -307q-152 -78 -249.5 -194.5t-97.5 -229.5zM393 1200q0 -57 40 -97t97 -40q58 0 98 40t40 97 t-40 97t-98 40q-57 0 -97 -40t-40 -97z" />
<glyph unicode="&#xc0;" d="M20 0h228l133 350h547l137 -368l227 32l-536 1379h-203zM411 1843l189 -330l160 43l-107 287h-242zM446 537l203 542l209 -542h-412z" />
<glyph unicode="&#xc1;" d="M20 0h228l133 350h547l137 -368l227 32l-536 1379h-203zM446 537l203 542l209 -542h-412zM509 1556l160 -43l189 330h-240z" />
<glyph unicode="&#xc2;" d="M20 0h228l133 350h547l137 -368l227 32l-536 1379h-203zM286 1540l213 -27l148 156l143 -156l209 27l-287 303h-139zM446 537l203 542l209 -542h-412z" />
<glyph unicode="&#xc3;" d="M20 0h228l133 350h547l137 -368l227 32l-536 1379h-203zM313 1542h154q2 27 21.5 48.5t42.5 21.5q37 0 59 -10.5t47 -28.5q27 -20 51.5 -30.5t63.5 -10.5q90 0 148.5 55t58.5 176h-148q-2 -28 -19.5 -48.5t-41.5 -20.5q-35 0 -58.5 9t-52.5 28q-29 20 -54.5 30.5 t-64.5 10.5q-90 0 -148.5 -54.5t-58.5 -175.5zM446 537l203 542l209 -542h-412z" />
<glyph unicode="&#xc4;" d="M20 0h228l133 350h547l137 -368l227 32l-536 1379h-203zM335 1669q0 -49 36 -84t87 -35q52 0 85.5 35t33.5 84q0 51 -33.5 87t-85.5 36q-51 0 -87 -36t-36 -87zM446 537l203 542l209 -542h-412zM708 1669q0 -49 37 -84t86 -35q51 0 86 35t35 84q0 51 -35 87t-86 36 q-49 0 -86 -36t-37 -87z" />
<glyph unicode="&#xc5;" d="M20 0h228l133 350h547l137 -368l227 32l-536 1379h-203zM436 1714q0 -82 61.5 -136t147.5 -54t147.5 54t61.5 136q0 84 -61.5 141.5t-147.5 57.5t-147.5 -57.5t-61.5 -141.5zM446 537l203 542l209 -542h-412zM561 1714q0 35 25 59.5t59 24.5q35 0 58.5 -24.5t23.5 -59.5 q0 -33 -24.5 -57.5t-57.5 -24.5q-32 0 -58 24.5t-26 57.5z" />
<glyph unicode="&#xc6;" horiz-adv-x="1912" d="M10 12l219 -32l234 370h479v-350h930l-33 180h-663v436h497l-35 181h-462v415h610l-33 181h-835zM586 537l356 540v-540h-356z" />
<glyph unicode="&#xc7;" horiz-adv-x="1148" d="M78 688q0 211 82 378t232.5 261t350.5 94q74 0 180.5 -22.5t180.5 -63.5l-70 -166q-109 35 -161 46.5t-136 11.5q-119 0 -214 -66.5t-150.5 -188.5t-55.5 -282q0 -145 48.5 -264t139.5 -189.5t216 -70.5q160 0 305 63l88 -172q-57 -31 -142 -52t-167 -30l-21 -49 q64 -20 107 -70.5t43 -105.5q0 -98 -74 -150.5t-178 -52.5q-41 0 -97.5 14.5t-84.5 37.5l53 139q29 -14 66.5 -26.5t62.5 -12.5q33 0 58.5 12.5t25.5 34.5q0 37 -51 62.5t-131 33.5l53 135q-178 20 -304 119t-190.5 252.5t-64.5 339.5z" />
<glyph unicode="&#xc8;" horiz-adv-x="1148" d="M180 0h928l-35 180h-663v436h497l-35 181h-462v415h610l-33 181h-807v-1393zM372 1843l189 -330l160 43l-107 287h-242z" />
<glyph unicode="&#xc9;" horiz-adv-x="1148" d="M180 0h928l-35 180h-663v436h497l-35 181h-462v415h610l-33 181h-807v-1393zM471 1556l160 -43l189 330h-240z" />
<glyph unicode="&#xca;" horiz-adv-x="1148" d="M180 0h928l-35 180h-663v436h497l-35 181h-462v415h610l-33 181h-807v-1393zM247 1540l213 -27l148 156l143 -156l209 27l-287 303h-139z" />
<glyph unicode="&#xcb;" horiz-adv-x="1148" d="M180 0h928l-35 180h-663v436h497l-35 181h-462v415h610l-33 181h-807v-1393zM299 1669q0 -49 36 -84t87 -35q52 0 85.5 35t33.5 84q0 51 -33.5 87t-85.5 36q-51 0 -87 -36t-36 -87zM672 1669q0 -49 37 -84t86 -35q51 0 86 35t35 84q0 51 -35 87t-86 36q-49 0 -86 -36 t-37 -87z" />
<glyph unicode="&#xcc;" horiz-adv-x="587" d="M61 1843l189 -330l160 43l-107 287h-242zM180 0h230v1393h-230v-1393z" />
<glyph unicode="&#xcd;" horiz-adv-x="587" d="M159 1556l160 -43l189 330h-240zM180 0h230v1393h-230v-1393z" />
<glyph unicode="&#xce;" horiz-adv-x="587" d="M-66 1540l213 -27l148 156l143 -156l209 27l-287 303h-139zM180 0h230v1393h-230v-1393z" />
<glyph unicode="&#xcf;" horiz-adv-x="587" d="M-15 1669q0 -49 36 -84t87 -35q52 0 85.5 35t33.5 84q0 51 -33.5 87t-85.5 36q-51 0 -87 -36t-36 -87zM180 0h230v1393h-230v-1393zM358 1669q0 -49 37 -84t86 -35q51 0 86 35t35 84q0 51 -35 87t-86 36q-49 0 -86 -36t-37 -87z" />
<glyph unicode="&#xd0;" horiz-adv-x="1400" d="M39 784h141v609h514q312 0 471.5 -188.5t159.5 -499.5q0 -211 -74.5 -370t-217 -247t-343.5 -88h-510v606h-121zM410 193h278q186 0 294 128t108 381q0 233 -96.5 363.5t-291.5 130.5h-292v-412h165l19 -178h-184v-413z" />
<glyph unicode="&#xd1;" horiz-adv-x="1492" d="M180 0h230v987l684 -987h219v1393h-232v-981l-684 981h-217v-1393zM419 1542h154q2 27 21.5 48.5t42.5 21.5q37 0 59 -10.5t47 -28.5q27 -20 51.5 -30.5t63.5 -10.5q90 0 148.5 55t58.5 176h-148q-2 -28 -19.5 -48.5t-41.5 -20.5q-35 0 -58.5 9t-52.5 28 q-29 20 -54.5 30.5t-64.5 10.5q-90 0 -148.5 -54.5t-58.5 -175.5z" />
<glyph unicode="&#xd2;" horiz-adv-x="1501" d="M78 690q0 -205 83 -368.5t235.5 -257t351.5 -93.5q197 2 350 96.5t239 260.5t86 377q0 205 -83 368.5t-236.5 257.5t-353.5 94q-195 -4 -348.5 -99t-238.5 -261t-85 -375zM317 692q0 156 57.5 279t158 190.5t221.5 67.5q127 0 224 -67.5t150.5 -186.5t53.5 -270 q0 -164 -57.5 -286t-157 -187.5t-222.5 -65.5q-127 0 -224 67.5t-150.5 187.5t-53.5 271zM512 1843l189 -330l160 43l-107 287h-242z" />
<glyph unicode="&#xd3;" horiz-adv-x="1501" d="M78 690q0 -205 83 -368.5t235.5 -257t351.5 -93.5q197 2 350 96.5t239 260.5t86 377q0 205 -83 368.5t-236.5 257.5t-353.5 94q-195 -4 -348.5 -99t-238.5 -261t-85 -375zM317 692q0 156 57.5 279t158 190.5t221.5 67.5q127 0 224 -67.5t150.5 -186.5t53.5 -270 q0 -164 -57.5 -286t-157 -187.5t-222.5 -65.5q-127 0 -224 67.5t-150.5 187.5t-53.5 271zM610 1556l160 -43l189 330h-240z" />
<glyph unicode="&#xd4;" horiz-adv-x="1501" d="M78 690q0 -205 83 -368.5t235.5 -257t351.5 -93.5q197 2 350 96.5t239 260.5t86 377q0 205 -83 368.5t-236.5 257.5t-353.5 94q-195 -4 -348.5 -99t-238.5 -261t-85 -375zM317 692q0 156 57.5 279t158 190.5t221.5 67.5q127 0 224 -67.5t150.5 -186.5t53.5 -270 q0 -164 -57.5 -286t-157 -187.5t-222.5 -65.5q-127 0 -224 67.5t-150.5 187.5t-53.5 271zM385 1540l213 -27l148 156l143 -156l209 27l-287 303h-139z" />
<glyph unicode="&#xd5;" horiz-adv-x="1501" d="M78 690q0 -205 83 -368.5t235.5 -257t351.5 -93.5q197 2 350 96.5t239 260.5t86 377q0 205 -83 368.5t-236.5 257.5t-353.5 94q-195 -4 -348.5 -99t-238.5 -261t-85 -375zM317 692q0 156 57.5 279t158 190.5t221.5 67.5q127 0 224 -67.5t150.5 -186.5t53.5 -270 q0 -164 -57.5 -286t-157 -187.5t-222.5 -65.5q-127 0 -224 67.5t-150.5 187.5t-53.5 271zM413 1542h154q2 27 21.5 48.5t42.5 21.5q37 0 59 -10.5t47 -28.5q27 -20 51.5 -30.5t63.5 -10.5q90 0 148.5 55t58.5 176h-148q-2 -28 -19.5 -48.5t-41.5 -20.5q-35 0 -58.5 9 t-52.5 28q-29 20 -54.5 30.5t-64.5 10.5q-90 0 -148.5 -54.5t-58.5 -175.5z" />
<glyph unicode="&#xd6;" horiz-adv-x="1501" d="M78 690q0 -205 83 -368.5t235.5 -257t351.5 -93.5q197 2 350 96.5t239 260.5t86 377q0 205 -83 368.5t-236.5 257.5t-353.5 94q-195 -4 -348.5 -99t-238.5 -261t-85 -375zM317 692q0 156 57.5 279t158 190.5t221.5 67.5q127 0 224 -67.5t150.5 -186.5t53.5 -270 q0 -164 -57.5 -286t-157 -187.5t-222.5 -65.5q-127 0 -224 67.5t-150.5 187.5t-53.5 271zM436 1669q0 -49 36 -84t87 -35q52 0 85.5 35t33.5 84q0 51 -33.5 87t-85.5 36q-51 0 -87 -36t-36 -87zM809 1669q0 -49 37 -84t86 -35q51 0 86 35t35 84q0 51 -35 87t-86 36 q-49 0 -86 -36t-37 -87z" />
<glyph unicode="&#xd7;" horiz-adv-x="1122" d="M61 61l390 461l-357 459h236l233 -299l260 299h238l-391 -463l358 -457h-235l-234 299l-262 -299h-236z" />
<glyph unicode="&#xd8;" horiz-adv-x="1501" d="M78 690q0 209 85 375t238.5 261t348.5 99q200 0 353.5 -94t236.5 -258t83 -368q0 -211 -86 -377t-239.5 -260.5t-349.5 -96.5q-199 0 -351.5 93.5t-235.5 257t-83 368.5zM317 692q0 -129 38 -234.5t110 -176.5l393 936q-49 12 -104 12q-121 0 -221.5 -67.5t-158 -190.5 t-57.5 -279zM657 174q57 -8 88 -8q123 0 222.5 65.5t157 187.5t57.5 286q0 119 -34 219t-95 172z" />
<glyph unicode="&#xd9;" horiz-adv-x="1433" d="M160 502q0 -150 68.5 -269.5t194.5 -187.5t294 -68t294 68t194.5 187.5t68.5 269.5v891h-232v-873q0 -168 -88 -261t-237 -93q-150 0 -238 92t-88 262v873h-231v-891zM479 1843l189 -330l160 43l-107 287h-242z" />
<glyph unicode="&#xda;" horiz-adv-x="1433" d="M160 502q0 -150 68.5 -269.5t194.5 -187.5t294 -68t294 68t194.5 187.5t68.5 269.5v891h-232v-873q0 -168 -88 -261t-237 -93q-150 0 -238 92t-88 262v873h-231v-891zM577 1556l160 -43l189 330h-240z" />
<glyph unicode="&#xdb;" horiz-adv-x="1433" d="M160 502q0 -150 68.5 -269.5t194.5 -187.5t294 -68t294 68t194.5 187.5t68.5 269.5v891h-232v-873q0 -168 -88 -261t-237 -93q-150 0 -238 92t-88 262v873h-231v-891zM352 1540l213 -27l148 156l143 -156l209 27l-287 303h-139z" />
<glyph unicode="&#xdc;" horiz-adv-x="1433" d="M160 502q0 -150 68.5 -269.5t194.5 -187.5t294 -68t294 68t194.5 187.5t68.5 269.5v891h-232v-873q0 -168 -88 -261t-237 -93q-150 0 -238 92t-88 262v873h-231v-891zM403 1669q0 -49 36 -84t87 -35q52 0 85.5 35t33.5 84q0 51 -33.5 87t-85.5 36q-51 0 -87 -36t-36 -87z M776 1669q0 -49 37 -84t86 -35q51 0 86 35t35 84q0 51 -35 87t-86 36q-49 0 -86 -36t-37 -87z" />
<glyph unicode="&#xdd;" horiz-adv-x="1214" d="M20 1352l459 -803v-549h230l2 545l483 848h-244l-358 -613l-346 645zM452 1556l160 -43l189 330h-240z" />
<glyph unicode="&#xde;" horiz-adv-x="1206" d="M180 0v1393h230v-164h186q242 0 390.5 -107.5t148.5 -333.5q0 -150 -77 -252t-203 -151t-277 -49h-168v-336h-230zM410 526h178q137 0 218 61.5t87 188.5q0 141 -77 200.5t-224 59.5h-182v-510z" />
<glyph unicode="&#xdf;" horiz-adv-x="1245" d="M139 0h230v967q0 119 67.5 189.5t179.5 70.5q98 0 165 -54.5t67 -148.5q0 -96 -68.5 -154.5t-195.5 -58.5h-68v-184h166q111 0 183.5 -61.5t72.5 -166.5q0 -98 -78 -153.5t-196 -55.5h-166v-190h178q227 0 365.5 103.5t138.5 291.5q0 129 -77 227.5t-185 131.5 q76 35 122.5 114.5t46.5 167.5q0 186 -134 287.5t-345 101.5q-217 0 -343 -123.5t-126 -332.5v-969z" />
<glyph unicode="&#xe0;" horiz-adv-x="1019" d="M92 291q0 -143 89 -229.5t261 -86.5q74 0 148 35t131 90l35 -100h153v664q0 100 -55 181t-150.5 128t-209.5 47q-70 0 -181.5 -26.5t-165.5 -61.5l64 -189q152 68 287 68q176 0 180 -207h-217q-166 0 -267.5 -82t-101.5 -231zM286 1536l189 -330l160 43l-107 287h-242z M293 291q0 67 44 113.5t120 46.5h223v-179q-51 -53 -114.5 -83.5t-127.5 -30.5q-68 0 -106.5 40t-38.5 93z" />
<glyph unicode="&#xe1;" horiz-adv-x="1019" d="M92 291q0 -143 89 -229.5t261 -86.5q74 0 148 35t131 90l35 -100h153v664q0 100 -55 181t-150.5 128t-209.5 47q-70 0 -181.5 -26.5t-165.5 -61.5l64 -189q152 68 287 68q176 0 180 -207h-217q-166 0 -267.5 -82t-101.5 -231zM293 291q0 67 44 113.5t120 46.5h223v-179 q-51 -53 -114.5 -83.5t-127.5 -30.5q-68 0 -106.5 40t-38.5 93zM358 1249l160 -43l189 330h-240z" />
<glyph unicode="&#xe2;" horiz-adv-x="1019" d="M92 291q0 -143 89 -229.5t261 -86.5q74 0 148 35t131 90l35 -100h153v664q0 100 -55 181t-150.5 128t-209.5 47q-70 0 -181.5 -26.5t-165.5 -61.5l64 -189q152 68 287 68q176 0 180 -207h-217q-166 0 -267.5 -82t-101.5 -231zM139 1233l213 -27l148 156l143 -156l209 27 l-287 303h-139zM293 291q0 67 44 113.5t120 46.5h223v-179q-51 -53 -114.5 -83.5t-127.5 -30.5q-68 0 -106.5 40t-38.5 93z" />
<glyph unicode="&#xe3;" horiz-adv-x="1019" d="M92 291q0 -143 89 -229.5t261 -86.5q74 0 148 35t131 90l35 -100h153v664q0 100 -55 181t-150.5 128t-209.5 47q-70 0 -181.5 -26.5t-165.5 -61.5l64 -189q152 68 287 68q176 0 180 -207h-217q-166 0 -267.5 -82t-101.5 -231zM180 1235h154q2 27 21.5 48.5t42.5 21.5 q31 0 50 -9.5t50 -27.5q29 -20 55.5 -31.5t65.5 -11.5q90 0 148.5 55t58.5 176h-148q-2 -29 -19.5 -49.5t-41.5 -20.5q-31 0 -53.5 9.5t-51.5 27.5q-31 20 -57.5 30.5t-67.5 10.5q-90 0 -148.5 -54t-58.5 -175zM293 291q0 67 44 113.5t120 46.5h223v-179 q-51 -53 -114.5 -83.5t-127.5 -30.5q-68 0 -106.5 40t-38.5 93z" />
<glyph unicode="&#xe4;" horiz-adv-x="1019" d="M92 291q0 -143 89 -229.5t261 -86.5q74 0 148 35t131 90l35 -100h153v664q0 100 -55 181t-150.5 128t-209.5 47q-70 0 -181.5 -26.5t-165.5 -61.5l64 -189q152 68 287 68q176 0 180 -207h-217q-166 0 -267.5 -82t-101.5 -231zM174 1362q0 -49 36 -84t87 -35q52 0 85.5 35 t33.5 84q0 51 -33.5 87t-85.5 36q-51 0 -87 -36t-36 -87zM293 291q0 67 44 113.5t120 46.5h223v-179q-51 -53 -114.5 -83.5t-127.5 -30.5q-68 0 -106.5 40t-38.5 93zM547 1362q0 -49 37 -84t86 -35q51 0 86 35t35 84q0 51 -35 87t-86 36q-49 0 -86 -36t-37 -87z" />
<glyph unicode="&#xe5;" horiz-adv-x="1019" d="M92 291q0 -143 89 -229.5t261 -86.5q74 0 148 35t131 90l35 -100h153v664q0 100 -55 181t-150.5 128t-209.5 47q-70 0 -181.5 -26.5t-165.5 -61.5l64 -189q152 68 287 68q176 0 180 -207h-217q-166 0 -267.5 -82t-101.5 -231zM286 1407q0 -82 61.5 -136t147.5 -54 t147.5 54t61.5 136q0 84 -61.5 141.5t-147.5 57.5t-147.5 -57.5t-61.5 -141.5zM293 291q0 67 44 113.5t120 46.5h223v-179q-51 -53 -114.5 -83.5t-127.5 -30.5q-68 0 -106.5 40t-38.5 93zM411 1407q0 35 25 59.5t59 24.5q35 0 58.5 -24.5t23.5 -59.5q0 -33 -24.5 -57.5 t-57.5 -24.5q-32 0 -58 24.5t-26 57.5z" />
<glyph unicode="&#xe6;" horiz-adv-x="1662" d="M92 291q0 150 101.5 231.5t267.5 81.5h217q-2 96 -45 151.5t-135 55.5q-135 0 -287 -68l-64 189q53 35 165 61.5t182 26.5q98 0 183 -35t142 -98q133 133 346 133q219 0 331 -148.5t112 -375.5v-60h-688q35 -266 317 -266q80 0 142.5 21.5t150.5 66.5l69 -168 q-166 -115 -366 -115q-285 0 -430 158q-70 -70 -155 -114t-206 -44q-172 0 -261 86t-89 230zM293 291q0 -53 39 -93t106 -40q99 0 160 33.5t113 95.5q-25 74 -31 164h-223q-76 0 -120 -46.5t-44 -113.5zM924 590h462q-18 112 -75.5 172.5t-151.5 60.5q-98 0 -158.5 -60.5 t-76.5 -172.5z" />
<glyph unicode="&#xe7;" horiz-adv-x="958" d="M57 498q0 156 62.5 273.5t179.5 183t272 65.5q70 0 172.5 -27.5t165.5 -72.5l-65 -164q-80 35 -140.5 51t-132.5 16q-123 0 -199.5 -92t-78.5 -233q0 -145 74.5 -235.5t199.5 -90.5q76 0 137.5 16.5t135.5 51.5l67 -168q-51 -37 -129 -61.5t-151 -33.5l-21 -51 q63 -20 106.5 -70.5t43.5 -105.5q0 -98 -74 -150.5t-178 -52.5q-41 0 -97.5 14.5t-84.5 37.5l53 139q29 -14 66.5 -26.5t62.5 -12.5q33 0 58.5 12.5t25.5 34.5q0 37 -51.5 62.5t-130.5 33.5l55 140q-188 33 -296 170t-108 346z" />
<glyph unicode="&#xe8;" horiz-adv-x="1042" d="M57 498q0 -242 142.5 -382.5t412.5 -140.5q201 0 367 115l-70 168q-88 -45 -150.5 -66.5t-142.5 -21.5q-287 0 -317 266h688v68q0 225 -112.5 370.5t-331.5 145.5q-150 0 -259.5 -65.5t-168 -183.5t-58.5 -273zM303 590q14 110 74.5 171.5t159.5 61.5q96 0 153.5 -59 t75.5 -174h-463zM321 1536l189 -330l160 43l-107 287h-242z" />
<glyph unicode="&#xe9;" horiz-adv-x="1042" d="M57 498q0 -242 142.5 -382.5t412.5 -140.5q201 0 367 115l-70 168q-88 -45 -150.5 -66.5t-142.5 -21.5q-287 0 -317 266h688v68q0 225 -112.5 370.5t-331.5 145.5q-150 0 -259.5 -65.5t-168 -183.5t-58.5 -273zM303 590q14 110 74.5 171.5t159.5 61.5q96 0 153.5 -59 t75.5 -174h-463zM393 1249l160 -43l189 330h-240z" />
<glyph unicode="&#xea;" horiz-adv-x="1042" d="M57 498q0 -242 142.5 -382.5t412.5 -140.5q201 0 367 115l-70 168q-88 -45 -150.5 -66.5t-142.5 -21.5q-287 0 -317 266h688v68q0 225 -112.5 370.5t-331.5 145.5q-150 0 -259.5 -65.5t-168 -183.5t-58.5 -273zM174 1233l213 -27l148 156l143 -156l209 27l-287 303h-139z M303 590q14 110 74.5 171.5t159.5 61.5q96 0 153.5 -59t75.5 -174h-463z" />
<glyph unicode="&#xeb;" horiz-adv-x="1042" d="M57 498q0 -242 142.5 -382.5t412.5 -140.5q201 0 367 115l-70 168q-88 -45 -150.5 -66.5t-142.5 -21.5q-287 0 -317 266h688v68q0 225 -112.5 370.5t-331.5 145.5q-150 0 -259.5 -65.5t-168 -183.5t-58.5 -273zM208 1362q0 -49 36 -84t87 -35q52 0 85.5 35t33.5 84 q0 51 -33.5 87t-85.5 36q-51 0 -87 -36t-36 -87zM303 590q14 110 74.5 171.5t159.5 61.5q96 0 153.5 -59t75.5 -174h-463zM581 1362q0 -49 37 -84t86 -35q51 0 86 35t35 84q0 51 -35 87t-86 36q-49 0 -86 -36t-37 -87z" />
<glyph unicode="&#xec;" horiz-adv-x="466" d="M14 1536l189 -330l160 43l-107 287h-242zM119 0h231v993h-231v-993z" />
<glyph unicode="&#xed;" horiz-adv-x="466" d="M86 1249l160 -43l189 330h-240zM119 0h231v993h-231v-993z" />
<glyph unicode="&#xee;" horiz-adv-x="466" d="M-134 1233l213 -27l148 156l143 -156l209 27l-287 303h-139zM119 0h231v993h-231v-993z" />
<glyph unicode="&#xef;" horiz-adv-x="466" d="M-99 1362q0 -49 36 -84t87 -35q52 0 85.5 35t33.5 84q0 51 -33.5 87t-85.5 36q-51 0 -87 -36t-36 -87zM119 0h231v993h-231v-993zM274 1362q0 -49 37 -84t86 -35q51 0 86 35t35 84q0 51 -35 87t-86 36q-49 0 -86 -36t-37 -87z" />
<glyph unicode="&#xf0;" horiz-adv-x="1138" d="M57 498q0 154 62.5 272.5t176.5 184t265 65.5q45 0 111 -14q-72 90 -189 182l-262 -137l-86 157l172 88q-53 31 -151 72l80 168q139 -45 284 -129l221 113l86 -154l-141 -74q186 -151 291.5 -349t105.5 -411q0 -168 -61 -293.5t-178 -195.5t-277 -70q-156 0 -270.5 65.5 t-177 183.5t-62.5 276zM293 498q0 -145 74.5 -235.5t199.5 -90.5t202 92t77 232q0 139 -39 258q-100 70 -236 69q-123 0 -199.5 -92t-78.5 -233z" />
<glyph unicode="&#xf1;" horiz-adv-x="1132" d="M119 0h229v694q166 137 291 137q154 0 154 -206v-625h231v639q0 180 -78 283.5t-252 103.5q-90 0 -192.5 -41t-188.5 -111l-41 119h-153v-993zM264 1235h154q2 27 21.5 48.5t42.5 21.5q31 0 50 -9.5t50 -27.5q29 -20 55.5 -31.5t65.5 -11.5q90 0 148.5 55t58.5 176h-148 q-2 -29 -19.5 -49.5t-41.5 -20.5q-31 0 -53.5 9.5t-51.5 27.5q-31 20 -57.5 30.5t-67.5 10.5q-90 0 -148.5 -54t-58.5 -175z" />
<glyph unicode="&#xf2;" horiz-adv-x="1138" d="M57 498q0 156 62.5 273.5t179.5 183t272 65.5q156 0 271.5 -64.5t178 -183.5t62.5 -274q0 -156 -63.5 -275t-180 -184.5t-272.5 -65.5t-270.5 65.5t-177 183.5t-62.5 276zM293 498q0 -145 74.5 -235.5t199.5 -90.5t202 92t77 232q0 145 -75 236t-200 91 q-123 0 -199.5 -92t-78.5 -233zM350 1536l189 -330l160 43l-107 287h-242z" />
<glyph unicode="&#xf3;" horiz-adv-x="1138" d="M57 498q0 156 62.5 273.5t179.5 183t272 65.5q156 0 271.5 -64.5t178 -183.5t62.5 -274q0 -156 -63.5 -275t-180 -184.5t-272.5 -65.5t-270.5 65.5t-177 183.5t-62.5 276zM293 498q0 -145 74.5 -235.5t199.5 -90.5t202 92t77 232q0 145 -75 236t-200 91 q-123 0 -199.5 -92t-78.5 -233zM421 1249l160 -43l189 330h-240z" />
<glyph unicode="&#xf4;" horiz-adv-x="1138" d="M57 498q0 156 62.5 273.5t179.5 183t272 65.5q156 0 271.5 -64.5t178 -183.5t62.5 -274q0 -156 -63.5 -275t-180 -184.5t-272.5 -65.5t-270.5 65.5t-177 183.5t-62.5 276zM202 1233l213 -27l148 156l143 -156l209 27l-287 303h-139zM293 498q0 -145 74.5 -235.5 t199.5 -90.5t202 92t77 232q0 145 -75 236t-200 91q-123 0 -199.5 -92t-78.5 -233z" />
<glyph unicode="&#xf5;" horiz-adv-x="1138" d="M57 498q0 156 62.5 273.5t179.5 183t272 65.5q156 0 271.5 -64.5t178 -183.5t62.5 -274q0 -156 -63.5 -275t-180 -184.5t-272.5 -65.5t-270.5 65.5t-177 183.5t-62.5 276zM243 1235h154q2 27 21.5 48.5t42.5 21.5q31 0 50 -9.5t50 -27.5q29 -20 55.5 -31.5t65.5 -11.5 q90 0 148.5 55t58.5 176h-148q-2 -29 -19.5 -49.5t-41.5 -20.5q-31 0 -53.5 9.5t-51.5 27.5q-31 20 -57.5 30.5t-67.5 10.5q-90 0 -148.5 -54t-58.5 -175zM293 498q0 -145 74.5 -235.5t199.5 -90.5t202 92t77 232q0 145 -75 236t-200 91q-123 0 -199.5 -92t-78.5 -233z" />
<glyph unicode="&#xf6;" horiz-adv-x="1138" d="M57 498q0 156 62.5 273.5t179.5 183t272 65.5q156 0 271.5 -64.5t178 -183.5t62.5 -274q0 -156 -63.5 -275t-180 -184.5t-272.5 -65.5t-270.5 65.5t-177 183.5t-62.5 276zM237 1362q0 -49 36 -84t87 -35q52 0 85.5 35t33.5 84q0 51 -33.5 87t-85.5 36q-51 0 -87 -36 t-36 -87zM293 498q0 -145 74.5 -235.5t199.5 -90.5t202 92t77 232q0 145 -75 236t-200 91q-123 0 -199.5 -92t-78.5 -233zM610 1362q0 -49 37 -84t86 -35q51 0 86 35t35 84q0 51 -35 87t-86 36q-49 0 -86 -36t-37 -87z" />
<glyph unicode="&#xf7;" horiz-adv-x="1036" d="M61 651l19 -182h895l-21 182h-893zM369 883q0 -59 43 -102.5t104 -43.5q62 0 105 43t43 103q0 61 -43 104t-105 43q-61 0 -104 -43t-43 -104zM371 213q0 -59 43 -103t102 -44q62 0 106 44t44 103q0 61 -44 104t-106 43q-59 0 -102 -43t-43 -104z" />
<glyph unicode="&#xf8;" horiz-adv-x="1153" d="M57 498q0 156 62.5 273.5t179.5 183t272 65.5q156 0 271.5 -64.5t178 -183.5t62.5 -274q0 -156 -63.5 -275t-180 -184.5t-272.5 -65.5t-270.5 65.5t-177 183.5t-62.5 276zM293 498q0 -131 59 -215l293 530q-37 10 -74 10q-122 0 -199 -92t-79 -233zM514 176q33 -4 53 -4 q125 0 202 92t77 232q0 109 -45 192z" />
<glyph unicode="&#xf9;" horiz-adv-x="1132" d="M111 354q0 -387 327 -387q90 0 192.5 41t188.5 111l41 -119h156v993h-232v-694q-165 -137 -290 -137q-154 0 -154 207v624h-229v-639zM348 1536l189 -330l160 43l-107 287h-242z" />
<glyph unicode="&#xfa;" horiz-adv-x="1132" d="M111 354q0 -387 327 -387q90 0 192.5 41t188.5 111l41 -119h156v993h-232v-694q-165 -137 -290 -137q-154 0 -154 207v624h-229v-639zM417 1249l160 -43l189 330h-240z" />
<glyph unicode="&#xfb;" horiz-adv-x="1132" d="M111 354q0 -387 327 -387q90 0 192.5 41t188.5 111l41 -119h156v993h-232v-694q-165 -137 -290 -137q-154 0 -154 207v624h-229v-639zM200 1233l213 -27l148 156l143 -156l209 27l-287 303h-139z" />
<glyph unicode="&#xfc;" horiz-adv-x="1132" d="M111 354q0 -387 327 -387q90 0 192.5 41t188.5 111l41 -119h156v993h-232v-694q-165 -137 -290 -137q-154 0 -154 207v624h-229v-639zM233 1362q0 -49 36 -84t87 -35q52 0 85.5 35t33.5 84q0 51 -33.5 87t-85.5 36q-51 0 -87 -36t-36 -87zM606 1362q0 -49 37 -84t86 -35 q51 0 86 35t35 84q0 51 -35 87t-86 36q-49 0 -86 -36t-37 -87z" />
<glyph unicode="&#xfd;" horiz-adv-x="999" d="M20 956l353 -909l-51 -135q-23 -62 -83.5 -99.5t-160.5 -80.5l80 -185q127 29 232.5 109t146.5 188l442 1149h-242l-239 -659l-254 696zM339 1249l160 -43l189 330h-240z" />
<glyph unicode="&#xfe;" horiz-adv-x="1107" d="M131 -449v1872l229 23v-481q102 55 195 55q152 0 264.5 -64.5t173 -183.5t60.5 -278q0 -154 -61.5 -272t-175.5 -183.5t-265 -65.5q-37 0 -89 14.5t-102 41.5v-455zM360 233q82 -61 191 -61q123 0 193.5 90t70.5 232q0 147 -69.5 238t-194.5 91q-102 0 -191 -65v-525z " />
<glyph unicode="&#xff;" horiz-adv-x="999" d="M20 956l353 -909l-51 -135q-23 -62 -83.5 -99.5t-160.5 -80.5l80 -185q127 29 232.5 109t146.5 188l442 1149h-242l-239 -659l-254 696zM155 1362q0 -49 36 -84t87 -35q52 0 85.5 35t33.5 84q0 51 -33.5 87t-85.5 36q-51 0 -87 -36t-36 -87zM528 1362q0 -49 37 -84 t86 -35q51 0 86 35t35 84q0 51 -35 87t-86 36q-49 0 -86 -36t-37 -87z" />
<glyph unicode="&#x152;" horiz-adv-x="1982" d="M78 688q0 211 82 378t232.5 261t350.5 94q51 0 126 -12t145 -35v19h807l34 -181h-612v-415h465l35 -181h-500v-436h666l33 -180h-928v18q-152 -47 -283 -47q-209 0 -356.5 95.5t-222 258t-74.5 363.5zM317 690q0 -145 48.5 -264t139.5 -189.5t216 -70.5q148 0 293 57v953 q-94 29 -145.5 40t-131.5 11q-119 0 -214 -66.5t-150.5 -188.5t-55.5 -282z" />
<glyph unicode="&#x153;" horiz-adv-x="1691" d="M57 498q0 156 62.5 273.5t179.5 183t272 65.5q66 0 162 -24.5t162 -65.5q123 90 297 90q219 0 330.5 -145.5t111.5 -370.5v-68h-686q31 -266 316 -266q80 0 143 21.5t152 66.5l69 -168q-168 -115 -366 -115q-221 0 -357 95q-63 -43 -165.5 -70t-172.5 -27 q-156 0 -270.5 65.5t-177 183.5t-62.5 276zM293 498q0 -146 74.5 -236t199.5 -90q106 0 207 39q-70 119 -69 287q0 166 65 286q-96 39 -199 39q-123 0 -199.5 -92t-78.5 -233zM950 590h465q-41 233 -229 233q-98 0 -158.5 -61.5t-77.5 -171.5z" />
<glyph unicode="&#x178;" horiz-adv-x="1214" d="M20 1352l459 -803v-549h230l2 545l483 848h-244l-358 -613l-346 645zM280 1669q0 -49 36 -84t87 -35q52 0 85.5 35t33.5 84q0 51 -33.5 87t-85.5 36q-51 0 -87 -36t-36 -87zM653 1669q0 -49 37 -84t86 -35q51 0 86 35t35 84q0 51 -35 87t-86 36q-49 0 -86 -36t-37 -87z " />
<glyph unicode="&#x2c6;" horiz-adv-x="753" d="M20 1233l213 -27l148 156l143 -156l209 27l-287 303h-139z" />
<glyph unicode="&#x2dc;" horiz-adv-x="686" d="M20 1235h154q2 27 21.5 48.5t42.5 21.5q31 0 50 -9.5t50 -27.5q29 -20 55.5 -31.5t65.5 -11.5q90 0 148.5 55t58.5 176h-148q-2 -29 -19.5 -49.5t-41.5 -20.5q-31 0 -53.5 9.5t-51.5 27.5q-31 20 -57.5 30.5t-67.5 10.5q-90 0 -148.5 -54t-58.5 -175z" />
<glyph unicode="&#x2000;" horiz-adv-x="956" />
<glyph unicode="&#x2001;" horiz-adv-x="1913" />
<glyph unicode="&#x2002;" horiz-adv-x="956" />
<glyph unicode="&#x2003;" horiz-adv-x="1913" />
<glyph unicode="&#x2004;" horiz-adv-x="637" />
<glyph unicode="&#x2005;" horiz-adv-x="478" />
<glyph unicode="&#x2006;" horiz-adv-x="318" />
<glyph unicode="&#x2007;" horiz-adv-x="318" />
<glyph unicode="&#x2008;" horiz-adv-x="239" />
<glyph unicode="&#x2009;" horiz-adv-x="382" />
<glyph unicode="&#x200a;" horiz-adv-x="106" />
<glyph unicode="&#x2010;" horiz-adv-x="671" d="M61 651l21 -182h528l-20 182h-529z" />
<glyph unicode="&#x2011;" horiz-adv-x="671" d="M61 651l21 -182h528l-20 182h-529z" />
<glyph unicode="&#x2012;" horiz-adv-x="671" d="M61 651l21 -182h528l-20 182h-529z" />
<glyph unicode="&#x2013;" horiz-adv-x="903" d="M61 651l21 -182h760l-21 182h-760z" />
<glyph unicode="&#x2014;" horiz-adv-x="1116" d="M61 651l21 -182h973l-19 182h-975z" />
<glyph unicode="&#x2018;" horiz-adv-x="405" d="M51 1102q0 -72 40 -119t99 -47q56 0 96 42t40 95q0 49 -35 92t-72 43q10 57 41 94t94 89l-55 108q-104 -57 -176 -172t-72 -225z" />
<glyph unicode="&#x2019;" horiz-adv-x="403" d="M41 1044l51 -108q106 57 178 172t72 225q0 72 -42 119t-99 47q-56 0 -95.5 -44t-39.5 -95q0 -49 34.5 -90t71.5 -43q-10 -57 -40 -93t-91 -90z" />
<glyph unicode="&#x201a;" horiz-adv-x="403" d="M41 -182l51 -109q106 57 178 173t72 224q0 72 -42 119t-99 47q-56 0 -95.5 -42t-39.5 -95q0 -49 34.5 -91t71.5 -44q-10 -57 -40 -93t-91 -89z" />
<glyph unicode="&#x201c;" horiz-adv-x="763" d="M61 1102q0 -72 40 -119t100 -47q55 0 95 42t40 95q0 49 -35 92t-72 43q10 57 41 94t95 89l-56 108q-104 -57 -176 -172t-72 -225zM420 1102q0 -72 40 -119t97 -47q55 0 97 43t42 94q0 49 -35.5 92t-70.5 43q10 57 41 95t92 88l-55 108q-104 -57 -176 -172t-72 -225z" />
<glyph unicode="&#x201d;" horiz-adv-x="759" d="M41 1044l51 -108q106 57 178 172t72 225q0 72 -42 119t-99 47q-56 0 -95.5 -44t-39.5 -95q0 -49 34.5 -90t71.5 -43q-10 -57 -40 -93t-91 -90zM397 1044l56 -108q104 57 174.5 172t70.5 225q0 72 -40 119t-97 47q-55 0 -96 -44t-41 -95q0 -49 35 -90t73 -43 q-10 -57 -40.5 -94t-94.5 -89z" />
<glyph unicode="&#x201e;" horiz-adv-x="759" d="M41 -180l51 -111q106 57 178 173t72 224q0 72 -42 119t-99 47q-56 0 -95.5 -42t-39.5 -95q0 -49 34.5 -91t71.5 -44q-10 -55 -39 -91t-92 -89zM397 -182l56 -109q104 57 174.5 173t70.5 224q0 72 -40 119t-97 47q-55 0 -96 -43t-41 -94q0 -49 35 -91t73 -44 q-10 -57 -40.5 -94t-94.5 -88z" />
<glyph unicode="&#x2022;" horiz-adv-x="538" d="M61 674q0 -86 60.5 -145.5t146.5 -59.5q88 0 148.5 59.5t60.5 145.5t-60.5 146.5t-148.5 60.5q-86 0 -146.5 -61.5t-60.5 -145.5z" />
<glyph unicode="&#x2026;" horiz-adv-x="1050" d="M61 123q0 -51 37 -87t90 -36q54 0 89.5 36t35.5 87q0 53 -36.5 91t-88.5 38q-53 0 -90 -38t-37 -91zM403 123q0 -51 37 -87t90 -36q52 0 87.5 36t35.5 87q0 53 -35.5 91t-87.5 38q-53 0 -90 -38t-37 -91zM739 123q0 -51 36 -87t89 -36q54 0 89.5 36t35.5 87q0 53 -37 91 t-88 38t-88 -38t-37 -91z" />
<glyph unicode="&#x202f;" horiz-adv-x="382" />
<glyph unicode="&#x2039;" horiz-adv-x="464" d="M61 453l318 -283l45 162l-180 170l180 170l-45 164l-318 -285v-98z" />
<glyph unicode="&#x203a;" horiz-adv-x="464" d="M41 332l45 -162l317 283v98l-317 285l-45 -164l178 -170z" />
<glyph unicode="&#x205f;" horiz-adv-x="478" />
<glyph unicode="&#x20ac;" horiz-adv-x="1253" d="M0 596h184q-4 61 -4 92q0 53 6 103h-163l-23 170h221q66 213 230.5 336.5t396.5 123.5q74 0 179.5 -22.5t180.5 -63.5l-71 -166q-111 35 -161 46.5t-134 11.5q-121 0 -220.5 -71t-150.5 -195h434l19 -170h-498q-6 -49 -6 -101q0 -47 6 -94h479l19 -172h-455 q49 -119 141 -188.5t215 -69.5q160 0 305 63l89 -172q-74 -37 -183.5 -61.5t-199.5 -24.5q-238 0 -397.5 123t-221.5 330h-194z" />
<glyph unicode="&#x2122;" horiz-adv-x="1542" d="M20 1260h238v-635h168v635h258l-20 133h-644v-133zM762 625h170v413l174 -211l49 9l141 186v-397h170v768h-77l-263 -353l-282 353h-82v-768z" />
<glyph unicode="&#x25fc;" horiz-adv-x="1024" d="M0 0v1024h1024v-1024h-1024z" />
<glyph unicode="&#xfb01;" horiz-adv-x="1179" d="M29 809h151v-809h232v809h258l-74 176h-184v76q0 82 32.5 129t102.5 47q37 0 102 -25l64 172q-29 23 -83.5 38.5t-99.5 15.5q-164 0 -257 -93.5t-93 -254.5v-105h-151v-176zM811 1290q0 -57 38 -97t95 -40q58 0 98 40t40 97q0 55 -40 95t-98 40q-55 0 -94 -39.5 t-39 -95.5zM832 0h231v993h-231v-993z" />
<glyph unicode="&#xfb02;" horiz-adv-x="1218" d="M29 809h151v-809h232v809h258l-74 176h-184v76q0 82 32.5 129t102.5 47q37 0 102 -25l64 172q-29 23 -83.5 38.5t-99.5 15.5q-164 0 -257 -93.5t-93 -254.5v-105h-151v-176zM852 0h230v1446l-230 -23v-1423z" />
</font>
</defs>
</svg>
