<?xml version="1.0" standalone="no"?>
<!DOCTYPE svg PUBLIC "-//W3C//DTD SVG 1.1//EN" "http://www.w3.org/Graphics/SVG/1.1/DTD/svg11.dtd" >
<svg xmlns="http://www.w3.org/2000/svg">
<metadata></metadata>
<defs>
<font id="catamaranblack" horiz-adv-x="497" >
<font-face units-per-em="2048" ascent="1577" descent="-471" />
<missing-glyph horiz-adv-x="450" />
<glyph horiz-adv-x="0" />
<glyph horiz-adv-x="0" />
<glyph unicode="&#xd;" horiz-adv-x="0" />
<glyph unicode=" "  horiz-adv-x="450" />
<glyph unicode="&#x09;" horiz-adv-x="450" />
<glyph unicode="&#xa0;" horiz-adv-x="450" />
<glyph unicode="!" d="M61 186q0 -80 54.5 -133t134.5 -53q78 0 132 53t54 133t-54 134.5t-132 54.5q-80 0 -134.5 -54.5t-54.5 -134.5zM63 1462l41 -954l291 -82l41 1036h-373z" />
<glyph unicode="&#x22;" horiz-adv-x="927" d="M41 1067l74 -164q137 51 229 164t92 233q0 96 -54 158t-134 62q-78 0 -133.5 -58.5t-55.5 -130.5q0 -49 25 -92t63 -68q-6 -25 -39.5 -55.5t-66.5 -48.5zM471 1067l74 -164q137 51 229 164t92 233q0 96 -54 158t-134 62q-78 0 -133.5 -58.5t-55.5 -130.5q0 -49 25 -92 t64 -68q-6 -25 -40 -55.5t-67 -48.5z" />
<glyph unicode="#" horiz-adv-x="1325" d="M61 440l23 -272h90l-43 -188l301 -11l47 199h195l-43 -188l301 -11l47 199h285l-21 272h-199l37 160h183l-21 272h-96l45 187h-305l-45 -187h-195l45 187h-305l-45 -187h-281l23 -272h192l-36 -160h-179zM545 440l37 160h194l-37 -160h-194z" />
<glyph unicode="$" horiz-adv-x="1120" d="M61 1020q2 115 67 207t181 141v248l242 20v-217h29q41 0 61 -2v199l244 20v-276q59 -24 104 -55l-110 -252q-109 37 -167.5 49t-127.5 12q-61 0 -99.5 -28.5t-38.5 -69.5q0 -31 32 -54.5t106 -62.5l73 -41q129 -74 215 -136.5t146.5 -147.5t60.5 -191q0 -113 -62.5 -204 t-176.5 -144v-285h-244v225q-23 -2 -72 -2h-26v-217h-242v256q-111 29 -188 74l122 281q55 -33 152.5 -60.5t171.5 -27.5q82 0 131 33.5t49 74.5q0 27 -35.5 52.5t-115.5 72.5l-64 37q-139 82 -217 136t-139.5 140t-61.5 195z" />
<glyph unicode="%" horiz-adv-x="1994" d="M41 1063q0 -174 94 -273.5t264 -99.5q174 0 278.5 99.5t104.5 269.5q0 174 -98 276.5t-274 102.5q-170 0 -269.5 -101.5t-99.5 -273.5zM324 1063q0 121 90 121q47 0 66.5 -32t19.5 -93q0 -62 -22.5 -91.5t-71.5 -29.5q-43 0 -62.5 30.5t-19.5 94.5zM500 0h383l612 1446 h-385zM1212 375q0 -174 94.5 -273.5t264.5 -99.5q174 0 278.5 99.5t104.5 269.5q0 174 -98.5 276.5t-274.5 102.5q-170 0 -269.5 -101.5t-99.5 -273.5zM1495 375q0 121 90 121q47 0 66.5 -32t19.5 -93q0 -62 -22.5 -91.5t-71.5 -29.5q-43 0 -62.5 30.5t-19.5 94.5z" />
<glyph unicode="&#x26;" horiz-adv-x="1411" d="M61 434q0 -158 75 -266.5t202 -162.5t287 -54q195 0 374 141l152 -131l219 270l-156 131q92 180 115 369l-328 131q-18 -133 -67 -262l-264 225q-78 70 -106.5 107t-28.5 72q0 45 38.5 80.5t108.5 35.5q131 0 264 -73l101 253q-174 125 -414 125q-133 0 -238.5 -57 t-165 -152.5t-59.5 -205.5q0 -115 68 -217q-80 -70 -128.5 -166.5t-48.5 -192.5zM446 446q0 57 25 107l283 -246q-62 -49 -121 -49q-90 0 -138.5 50t-48.5 138z" />
<glyph unicode="'" d="M41 1067l74 -164q137 51 229 164t92 233q0 96 -54 158t-134 62q-78 0 -133.5 -58.5t-55.5 -130.5q0 -49 25 -92t63 -68q-6 -25 -39.5 -55.5t-66.5 -48.5z" />
<glyph unicode="(" horiz-adv-x="757" d="M102 657q0 -199 68 -386t192 -351l332 78q-88 106 -153.5 305t-65.5 356q0 152 65.5 344.5t155.5 317.5l-334 76q-129 -184 -194.5 -365.5t-65.5 -374.5z" />
<glyph unicode=")" horiz-adv-x="757" d="M61 -4l334 -76q129 184 194.5 365.5t65.5 373.5q0 199 -67.5 386.5t-192.5 351.5l-332 -78q89 -107 154.5 -305.5t65.5 -356.5q0 -152 -65.5 -344t-156.5 -317z" />
<glyph unicode="*" horiz-adv-x="868" d="M20 1198l193 -35l-147 -186l239 -152l129 191l129 -191l240 152l-148 186l193 35l-70 264l-194 -57v197h-295v-197l-199 57z" />
<glyph unicode="+" horiz-adv-x="1193" d="M61 707l23 -293h342v-398l344 -16v414h363l-21 293h-342v378h-344v-378h-365z" />
<glyph unicode="," d="M41 -152l74 -163q137 51 229 163.5t92 233.5q0 96 -54 157.5t-134 61.5q-78 0 -133.5 -58.5t-55.5 -129.5q0 -49 25 -92.5t63 -67.5q-6 -25 -39.5 -55.5t-66.5 -49.5z" />
<glyph unicode="-" horiz-adv-x="720" d="M61 707l23 -293h575l-20 293h-578z" />
<glyph unicode="." d="M61 186q0 -80 54.5 -133t134.5 -53q78 0 132 53t54 133t-54 134.5t-132 54.5q-80 0 -134.5 -54.5t-54.5 -134.5z" />
<glyph unicode="/" horiz-adv-x="1036" d="M20 0h383l613 1446h-385z" />
<glyph unicode="0" horiz-adv-x="1388" d="M41 582q0 -174 84 -313.5t232.5 -218.5t334.5 -79q188 0 338 79t234 219.5t84 316.5q0 172 -84 309t-233.5 214t-336.5 77q-186 0 -335.5 -78t-233.5 -216t-84 -310zM426 588q0 129 76 212t190 83q119 0 195 -85t76 -218t-76 -219.5t-193 -86.5t-192.5 88.5t-75.5 225.5z " />
<glyph unicode="1" horiz-adv-x="899" d="M20 940l146 -299l237 102v-743h373v1159h-248z" />
<glyph unicode="2" horiz-adv-x="1017" d="M51 0h926l-25 293h-372l84 72q154 129 226.5 234.5t72.5 225.5q0 186 -130.5 273.5t-359.5 87.5q-217 -1 -395 -107l47 -303q70 39 162 72t174 33q80 0 125 -25t45 -74q0 -43 -36 -85t-110 -105q-33 -25 -47 -39l-387 -336v-217z" />
<glyph unicode="3" horiz-adv-x="1097" d="M0 -4q115 -74 249 -115t249 -41q162 0 286.5 52.5t193.5 144.5t69 211q0 88 -51.5 177t-125.5 132q57 31 105.5 113t48.5 153q0 106 -62.5 188.5t-176 128.5t-263.5 46q-286 0 -479 -152l178 -252q147 100 264 101q76 0 115 -26t39 -66q0 -51 -53.5 -83t-139.5 -32h-167 l30 -293h211q63 0 102.5 -33t39.5 -92q0 -53 -46.5 -85t-115.5 -32q-74 0 -144.5 23.5t-156.5 79.5z" />
<glyph unicode="4" horiz-adv-x="1251" d="M20 383l43 -272h570v-240h373v240h186l18 292h-204v766h-279zM459 403l174 205v-205h-174z" />
<glyph unicode="5" horiz-adv-x="1091" d="M41 -6q100 -70 237.5 -113t251.5 -43q158 0 276 60.5t181.5 169t63.5 247.5q0 123 -50.5 225.5t-146.5 164t-229 61.5q-70 0 -127 -33v133h456l37 293h-807l-39 -790h314q14 34 47 61t78 27q57 0 94 -38t37 -104q0 -72 -50.5 -115.5t-127.5 -43.5q-72 0 -141.5 24.5 t-168.5 77.5z" />
<glyph unicode="6" horiz-adv-x="1198" d="M41 516q0 287 154.5 457t364.5 240.5t423 84.5l37 -342l-74 -10q-152 -20 -254 -50t-172 -105q63 25 133 24q146 0 260.5 -52t179 -147.5t64.5 -216.5q0 -123 -62.5 -220t-180 -151.5t-275.5 -54.5q-174 0 -310 70t-212 193.5t-76 279.5zM432 508q6 -104 58.5 -169 t138.5 -65q57 0 100 44t43 110q0 63 -48 104t-120 41q-80 0 -172 -65z" />
<glyph unicode="7" horiz-adv-x="1060" d="M20 1159l35 -293h557l-391 -927l371 -97l428 1170l-70 147h-930z" />
<glyph unicode="8" horiz-adv-x="1171" d="M41 403q0 -201 148.5 -315.5t398.5 -114.5q168 0 290.5 54.5t187 151.5t64.5 224q0 84 -47 163t-120 130q53 45 87.5 109.5t34.5 130.5q0 113 -67.5 200t-181 134t-248.5 47q-139 0 -254 -47t-181.5 -134t-66.5 -200q0 -66 36 -128.5t89 -109.5q-74 -51 -122 -131 t-48 -164zM426 420q0 49 43 98t119 62q71 -13 115.5 -62t44.5 -98q0 -55 -50.5 -99.5t-111.5 -44.5t-110.5 44.5t-49.5 99.5zM473 913q0 35 29.5 67t81.5 32q55 0 84.5 -31t29.5 -66q0 -41 -29.5 -75.5t-80.5 -42.5q-53 8 -84 41.5t-31 74.5z" />
<glyph unicode="9" horiz-adv-x="1198" d="M41 760q0 123 62.5 220t180 151.5t275.5 54.5q174 0 310.5 -69.5t212 -193.5t75.5 -280q0 -287 -154.5 -457t-364.5 -240.5t-423 -84.5l-37 342l74 10q152 20 254 50t172 106q-63 -25 -133 -25q-145 0 -260 52.5t-179.5 147.5t-64.5 216zM426 731q0 -63 48 -104t120 -41 q80 0 172 65q-6 104 -59.5 169t-137.5 65q-57 0 -100 -44t-43 -110z" />
<glyph unicode=":" d="M61 186q0 -80 54.5 -133t134.5 -53q78 0 132 53t54 133t-54 134.5t-132 54.5q-80 0 -134.5 -54.5t-54.5 -134.5zM61 786q0 -80 54.5 -133t134.5 -53q78 0 132 53.5t54 132.5q0 80 -54 134.5t-132 54.5q-80 0 -134.5 -54.5t-54.5 -134.5z" />
<glyph unicode=";" horiz-adv-x="499" d="M41 -78l74 -164q137 51 229 164t92 234q0 96 -54 157.5t-134 61.5q-78 0 -133.5 -58.5t-55.5 -130.5q0 -49 25 -92t63 -67q-6 -25 -39.5 -55.5t-66.5 -49.5zM63 786q0 -80 54.5 -133t134.5 -53q78 0 132 53.5t54 132.5q0 80 -54 134.5t-132 54.5q-80 0 -134.5 -54.5 t-54.5 -134.5z" />
<glyph unicode="&#x3c;" horiz-adv-x="782" d="M61 434l613 -438l67 326l-276 196l276 195l-67 321l-613 -434v-166z" />
<glyph unicode="=" horiz-adv-x="1112" d="M61 440l23 -272h967l-21 272h-969zM61 872l23 -272h967l-21 272h-969z" />
<glyph unicode="&#x3e;" horiz-adv-x="782" d="M41 317l68 -321l612 434v166l-612 438l-68 -325l276 -197z" />
<glyph unicode="?" horiz-adv-x="956" d="M20 1329l48 -305q193 109 338 109q45 0 74.5 -24t29.5 -60q0 -55 -87 -119t-222 -107l14 -325l293 -80l24 235q190 68 276.5 164t86.5 225q0 117 -60.5 206t-171 138.5t-251.5 49.5q-206 -1 -392 -107zM154 186q0 -80 54 -133t134 -53q78 0 132 53t54 133t-54 134.5 t-132 54.5q-80 0 -134 -54.5t-54 -134.5z" />
<glyph unicode="@" horiz-adv-x="1662" d="M41 487q0 -225 110.5 -386.5t294 -244.5t402.5 -83q123 0 228.5 19.5t221.5 80.5l-90 207q-61 -23 -167.5 -35t-174.5 -12q-135 0 -248.5 50t-182 149.5t-68.5 240.5q0 160 68.5 283t189 189.5t274.5 66.5q141 0 234.5 -54.5t138.5 -142.5t45 -192q0 -68 -27.5 -120 t-63.5 -82t-57 -30q-12 0 -10 19l47 374l-84 125h-182q-121 0 -231.5 -41t-183 -139t-72.5 -260t96 -257t287 -95q84 0 161 39q53 -45 144 -45q115 0 226.5 62.5t183 181t71.5 278.5q0 176 -96 326.5t-265 240.5t-374 90q-260 0 -451.5 -111.5t-293 -296t-101.5 -395.5z M752 485q0 80 37.5 130.5t111.5 50.5l-27 -205q-2 -21 -13 -37t-30 -16q-39 0 -59 23.5t-20 53.5z" />
<glyph unicode="A" horiz-adv-x="1456" d="M20 0h371l96 274h482l100 -294l367 36l-521 1377h-372zM590 567l133 379l139 -379h-272z" />
<glyph unicode="B" horiz-adv-x="1320" d="M164 0h526q256 0 423 97.5t167 318.5q0 96 -50 180t-136 143q59 59 94 119t35 133q0 201 -163 301.5t-411 100.5h-485v-1393zM537 293v278h157q94 0 147.5 -38.5t53.5 -108.5q0 -63 -53.5 -97t-143.5 -34h-161zM537 864v236h100q94 0 147.5 -33t53.5 -94q0 -53 -62.5 -81 t-154.5 -28h-84z" />
<glyph unicode="C" horiz-adv-x="1220" d="M61 690q0 -211 87.5 -372.5t251 -253t384.5 -91.5q109 0 222.5 28t193.5 75l-141 278q-125 -75 -260 -75h-4q-88 0 -169 50t-130.5 144t-49.5 219q0 123 48.5 219.5t125 149.5t160.5 53q70 0 128.5 -12t166.5 -49l111 252q-80 53 -191.5 83.5t-218.5 30.5 q-205 0 -367.5 -93t-255 -259t-92.5 -377z" />
<glyph unicode="D" horiz-adv-x="1513" d="M164 0h622q195 0 346.5 86t235.5 246t84 373q0 201 -76 356.5t-224 243.5t-357 88h-631v-1393zM537 293v807h239q137 0 214 -109.5t77 -285.5q0 -199 -85 -305.5t-220 -106.5h-225z" />
<glyph unicode="E" horiz-adv-x="1224" d="M164 0h1020l-35 293h-612v260h462l-34 293h-428v254h585l-35 293h-923v-1393z" />
<glyph unicode="F" horiz-adv-x="1142" d="M164 0h373v526h462l-34 293h-428v279h565l-35 293h-903v-1391z" />
<glyph unicode="G" horiz-adv-x="1363" d="M61 690q0 -223 91.5 -385t259.5 -247t393 -85q117 0 259 28t218 75v727h-543l-32 -273h239v-239q-70 -12 -131 -12q-94 0 -178 43t-137.5 136t-53.5 234q0 135 56.5 230.5t143.5 143.5t175 48q78 0 156 -13.5t180 -47.5l111 252q-78 53 -208 83.5t-243 30.5 q-207 0 -380 -88t-274.5 -254t-101.5 -387z" />
<glyph unicode="H" horiz-adv-x="1560" d="M164 0h373v545h487v-545h373v1393h-373v-555h-487v567l-373 -12v-1393z" />
<glyph unicode="I" horiz-adv-x="700" d="M164 0h373v1393h-373v-1393z" />
<glyph unicode="J" horiz-adv-x="706" d="M20 78l152 -295q150 47 232.5 97t120.5 119t38 173v1221h-373v-1112q0 -66 -33.5 -114t-136.5 -89z" />
<glyph unicode="K" horiz-adv-x="1495" d="M164 0v1393h373v-484l559 514l288 -209l-473 -442l564 -772h-474l-356 520l-108 -102v-418h-373z" />
<glyph unicode="L" horiz-adv-x="1183" d="M164 0h999l-35 293h-591v1100h-373v-1393z" />
<glyph unicode="M" horiz-adv-x="1636" d="M164 0h373v674l225 -275l149 21l189 254v-674h373v1393h-248l-385 -531l-420 531h-256v-1393z" />
<glyph unicode="N" horiz-adv-x="1583" d="M164 0h373v733l534 -733h348v1393h-372v-756l-537 756h-346v-1393z" />
<glyph unicode="O" horiz-adv-x="1562" d="M61 690q0 -201 88.5 -364.5t251 -259t379.5 -95.5q211 0 375 93.5t255 260.5t91 380q0 201 -87 364.5t-250 257.5t-384 94q-207 0 -370.5 -93t-256 -260t-92.5 -378zM444 692q0 123 46.5 218.5t123 147.5t170.5 52q152 0 243 -113.5t91 -291.5q0 -203 -95 -312.5 t-245 -109.5q-156 0 -245 114.5t-89 294.5z" />
<glyph unicode="P" horiz-adv-x="1363" d="M164 0h373v406h196q158 0 292 53t216 162.5t82 269.5q0 162 -77 275.5t-207 170t-289 56.5h-586v-1393zM537 698v402h200q92 0 146.5 -57.5t54.5 -151.5q0 -82 -55.5 -137.5t-141.5 -55.5h-204z" />
<glyph unicode="Q" horiz-adv-x="1562" d="M61 690q0 211 92.5 378t256 260t370.5 93q221 0 384 -94t250 -258t87 -364q0 -140 -40 -260.5t-115 -217.5l122 -135l-229 -198l-137 143q-143 -66 -322 -66q-217 0 -379.5 95.5t-251 259t-88.5 364.5zM444 692q0 -180 89.5 -294.5t244.5 -114.5q47 0 80 8l-170 178 l246 209l153 -168q31 80 31 195q0 178 -91 291.5t-243 113.5q-94 0 -170.5 -52t-123 -147.5t-46.5 -218.5z" />
<glyph unicode="R" horiz-adv-x="1462" d="M164 0h373v438h247l226 -438h432l-307 549q88 59 138 152.5t50 216.5q0 238 -162 356.5t-411 118.5h-586v-1393zM537 731v369h200q97 0 149 -46t52 -136q0 -82 -55.5 -134.5t-141.5 -52.5h-204z" />
<glyph unicode="S" horiz-adv-x="1120" d="M61 1020q0 -109 61.5 -195t139.5 -140t217 -136l64 -37q80 -47 115.5 -72.5t35.5 -52.5q0 -41 -49 -74.5t-131 -33.5q-74 0 -171 27.5t-153 60.5l-122 -281q79 -47 213.5 -80t242.5 -33q168 0 294 53.5t193.5 145.5t67.5 211q0 106 -60.5 191t-146.5 147.5t-215 136.5 l-73 41q-74 39 -106 62.5t-32 54.5q0 41 38 69.5t100 28.5q70 0 128 -12t167 -49l110 252q-80 53 -191.5 83.5t-217.5 30.5q-156 0 -273 -51t-181.5 -142t-64.5 -206z" />
<glyph unicode="T" horiz-adv-x="1267" d="M20 1100h410v-1100h373v1100h444l-35 293h-1192v-293z" />
<glyph unicode="U" horiz-adv-x="1536" d="M143 532q0 -178 78 -304t219.5 -191.5t327.5 -65.5t327.5 65.5t219.5 191.5t78 304v861h-373v-842q0 -127 -69.5 -197.5t-182.5 -70.5t-182.5 70.5t-69.5 197.5v842h-373v-861z" />
<glyph unicode="V" horiz-adv-x="1456" d="M20 1376l521 -1376h372l523 1393h-371l-332 -947l-346 967z" />
<glyph unicode="W" horiz-adv-x="2048" d="M20 1376l367 37l244 -967l209 947h370l238 -947l209 947h371l-400 -1393h-373l-229 874l-215 -874h-373z" />
<glyph unicode="X" horiz-adv-x="1464" d="M20 0h441l280 381l226 -381h477l-467 707l465 686h-463l-238 -373l-280 424l-402 -117l447 -635z" />
<glyph unicode="Y" horiz-adv-x="1339" d="M20 1323l443 -774v-549h373v545l483 848h-383l-289 -502l-270 530z" />
<glyph unicode="Z" horiz-adv-x="1196" d="M20 262l41 -262h1108l-34 293h-684l725 835l-39 265h-1057l35 -293h616z" />
<glyph unicode="[" horiz-adv-x="978" d="M205 -178h753l-34 293h-346v1018h348l32 292h-753v-1603z" />
<glyph unicode="\" horiz-adv-x="1036" d="M20 1454l613 -1454h383l-610 1454h-386z" />
<glyph unicode="]" horiz-adv-x="978" d="M20 -178h754v1603h-754l33 -292h348v-1018h-346z" />
<glyph unicode="^" horiz-adv-x="972" d="M20 289h363l109 229l106 -229h354l-317 579h-295z" />
<glyph unicode="_" horiz-adv-x="933" d="M61 293l23 -293h788l-20 293h-791z" />
<glyph unicode="`" horiz-adv-x="544" d="M20 1612l234 -408l270 45l-135 363h-369z" />
<glyph unicode="a" horiz-adv-x="1042" d="M66 319q0 -158 94 -250t278 -92q125 0 224 125l106 -102h180v614q0 193 -106.5 303.5t-304.5 110.5q-115 0 -234 -27.5t-205 -66.5l99 -268q57 24 127.5 41.5t119.5 17.5q53 0 87 -28.5t42 -86.5h-118q-389 0 -389 -291zM377 326q0 34 23.5 57t60.5 23h114v-95 q-68 -55 -131 -55q-29 0 -48 19.5t-19 50.5z" />
<glyph unicode="b" horiz-adv-x="1193" d="M123 0v1423l373 23v-445q76 27 147 27q229 0 369.5 -131t140.5 -387q0 -260 -142.5 -396.5t-383.5 -136.5q-137 0 -252 86l-64 -63h-188zM496 291q59 -27 106 -27q72 0 119 65.5t47 178.5t-47 173t-135 60q-45 0 -90 -30v-420z" />
<glyph unicode="c" horiz-adv-x="935" d="M41 496q0 -246 148.5 -382.5t394.5 -136.5q213 0 340 101l-105 256q-57 -31 -102 -42t-96 -11q-80 0 -137.5 57t-57.5 158q0 102 58.5 165.5t136.5 63.5q53 0 96 -11.5t102 -41.5l105 256q-127 100 -340 100q-160 0 -283 -63.5t-191.5 -184.5t-68.5 -284z" />
<glyph unicode="d" horiz-adv-x="1193" d="M41 496q0 260 142.5 396t383.5 136q70 0 131 -20v415l373 23v-1446h-188l-56 72q-61 -43 -131.5 -69t-144.5 -26q-229 0 -369.5 131.5t-140.5 387.5zM426 498q0 -113 47 -173.5t135 -60.5q45 0 90 31v420q-57 26 -103 26h-3q-72 0 -119 -65.5t-47 -177.5z" />
<glyph unicode="e" horiz-adv-x="1091" d="M41 496q0 -164 76 -282t210 -177.5t308 -59.5q121 0 236.5 31t177.5 76l-105 252q-131 -68 -272 -68q-92 0 -148.5 36t-77.5 99h605v109q0 143 -54.5 260t-161 186.5t-260.5 69.5q-152 0 -273.5 -64.5t-191 -185.5t-69.5 -282zM436 588v5q0 52 38 93q40 43 91 43 q63 0 96 -45t33 -96h-258z" />
<glyph unicode="f" horiz-adv-x="923" d="M20 659h164v-659h373v659h309l-35 293h-274v52q0 61 32 97t85 36q74 0 143 -39l107 254q-39 33 -122 60.5t-153 27.5q-123 0 -229.5 -45t-171 -134.5t-64.5 -216.5v-92h-164v-293z" />
<glyph unicode="g" horiz-adv-x="1185" d="M41 496q0 260 142.5 396t383.5 136q147 0 269 -98l49 61h186v-1024q0 -127 -68.5 -226t-192.5 -155.5t-286 -56.5q-86 0 -227 29.5t-227 85.5l112 262q90 -45 166 -60.5t150 -15.5q88 0 144 40t56 99v35q-76 -27 -147 -27q-229 0 -369.5 131.5t-140.5 387.5zM426 498 q0 -113 47 -173.5t135 -60.5q45 0 90 31v420q-57 26 -103 26h-3q-72 0 -119 -65.5t-47 -177.5z" />
<glyph unicode="h" horiz-adv-x="1269" d="M123 0v1423l373 23v-506q172 86 319 86q180 0 270.5 -105.5t90.5 -279.5v-641h-373v606q0 119 -107 119q-33 0 -92 -17.5t-108 -39.5v-668h-373z" />
<glyph unicode="i" horiz-adv-x="577" d="M86 1329q0 -82 59.5 -141.5t141.5 -59.5q84 0 144.5 59.5t60.5 141.5q0 84 -60.5 144.5t-144.5 60.5q-82 0 -141.5 -60.5t-59.5 -144.5zM102 0h373v993h-373v-993z" />
<glyph unicode="j" horiz-adv-x="618" d="M-20 -129q70 25 103.5 52.5t42.5 58t9 77.5v934h373v-989q0 -108 -35 -179t-117 -123t-229 -99zM119 1329q0 84 59.5 144.5t140.5 60.5q84 0 144.5 -60.5t60.5 -144.5q0 -82 -60.5 -141.5t-144.5 -59.5q-75 0 -137.5 60.5t-62.5 140.5z" />
<glyph unicode="k" horiz-adv-x="1161" d="M123 0h373v319l67 52l197 -371h401l-336 567l265 199l-224 256l-370 -313v737l-373 -23v-1423z" />
<glyph unicode="l" horiz-adv-x="618" d="M123 0h373v1446l-373 -23v-1423z" />
<glyph unicode="m" horiz-adv-x="1886" d="M102 0v993h222l65 -102q217 135 395 135q197 0 283 -123q203 123 375 123q350 0 350 -385v-641h-373v606q0 57 -17.5 88t-78.5 31q-27 0 -84 -18.5t-104 -38.5v-27v-641h-373v606q0 57 -17.5 88t-78.5 31q-27 0 -85.5 -18.5t-105.5 -38.5v-668h-373z" />
<glyph unicode="n" horiz-adv-x="1249" d="M102 0h373v668q49 22 108.5 39.5t92.5 17.5q57 0 81.5 -34t24.5 -85v-606h373v641q0 174 -90 279.5t-270 105.5q-188 0 -406 -135l-65 102h-222v-993z" />
<glyph unicode="o" horiz-adv-x="1208" d="M41 502q0 162 74.5 281.5t202.5 182t286 62.5q166 0 293 -61.5t198.5 -182t71.5 -292.5q0 -162 -74.5 -279t-204.5 -176.5t-292 -59.5q-250 0 -402.5 134.5t-152.5 390.5zM426 502q0 -102 45 -161.5t129 -59.5q88 0 135 53t47 158q0 102 -46 167.5t-128 65.5 q-86 0 -134 -59.5t-48 -163.5z" />
<glyph unicode="p" horiz-adv-x="1185" d="M115 -449v1440h186l57 -57q61 43 132 68.5t145 25.5q229 0 369.5 -131t140.5 -387q0 -260 -142.5 -396.5t-384.5 -136.5q-70 0 -131 21v-426zM487 291q59 -27 107 -27q72 0 119 65.5t47 178.5t-47 173t-135 60q-43 0 -91 -30v-420z" />
<glyph unicode="q" horiz-adv-x="1185" d="M41 496q0 260 142.5 396t383.5 136q143 0 264 -94l54 57h186v-1417l-373 -23v453q-76 -27 -147 -27q-229 0 -369.5 131.5t-140.5 387.5zM426 498q0 -113 47 -173.5t135 -60.5q45 0 90 31v420q-57 26 -103 26h-3q-72 0 -119 -65.5t-47 -177.5z" />
<glyph unicode="r" horiz-adv-x="808" d="M102 0h373v584q64 49 152 79.5t161 30.5l-75 299q-78 0 -170 -36.5t-164 -86.5l-90 121h-187v-991z" />
<glyph unicode="s" horiz-adv-x="923" d="M45 94q76 -59 206 -88t218 -29q205 0 309.5 87.5t104.5 244.5q0 123 -97.5 200t-250.5 130q-47 16 -76 32.5t-29 28.5q0 20 28.5 32.5t73.5 12.5q53 0 118 -16t126 -43l105 236q-76 59 -181.5 82.5t-193.5 23.5q-207 0 -323.5 -88t-116.5 -244q0 -123 99 -198.5 t255 -130.5q43 -14 70.5 -32t27.5 -30q0 -20 -24.5 -32.5t-61.5 -12.5q-53 0 -138 20.5t-144 49.5z" />
<glyph unicode="t" horiz-adv-x="933" d="M20 659h154v-286q0 -127 64.5 -216t171 -134.5t229.5 -45.5q70 0 152.5 28t121.5 61l-106 253q-68 -38 -139 -38h-4q-53 0 -85 35.5t-32 97.5v245h295l-35 293h-260v320l-373 -51v-269h-154v-293z" />
<glyph unicode="u" horiz-adv-x="1249" d="M94 350q0 -174 90 -279.5t271 -105.5q188 0 405 135l107 -102h180v993h-373v-667q-49 -23 -108.5 -40.5t-92.5 -17.5q-57 0 -81.5 34t-24.5 85v606h-373v-641z" />
<glyph unicode="v" horiz-adv-x="1165" d="M41 932l360 -932h353l391 993h-371l-190 -561l-199 598z" />
<glyph unicode="w" horiz-adv-x="1662" d="M20 932l304 -932h340l153 514l156 -514h340l329 993h-370l-129 -563l-148 563h-350l-137 -563l-143 600z" />
<glyph unicode="x" horiz-adv-x="1140" d="M20 0h420l129 213l133 -213h418l-338 473l338 520h-411l-152 -239l-174 270l-360 -86l321 -444z" />
<glyph unicode="y" horiz-adv-x="1148" d="M20 932l357 -914l-8 -22q-15 -39 -81.5 -75t-172.5 -81l125 -289q152 33 278.5 123t173.5 209l436 1110h-370l-191 -561l-202 598z" />
<glyph unicode="z" horiz-adv-x="925" d="M16 193l45 -193h848l-35 293h-403l401 493l-18 207h-793l35 -293h328z" />
<glyph unicode="{" horiz-adv-x="714" d="M61 506h93q35 0 60.5 -21.5t25.5 -56.5q0 -18 -9.5 -46t-19.5 -54q-20 -51 -29.5 -83t-9.5 -67q0 -121 71.5 -189.5t219.5 -68.5h231l-26 291h-76q-78 0 -78 72q0 35 8 57t27 53q18 29 27.5 52.5t9.5 62.5q0 49 -20.5 77.5t-49.5 49.5q31 22 50.5 49t19.5 78 q0 41 -9.5 66.5t-27.5 54.5q-16 25 -25.5 47t-9.5 57q0 72 78 72h76l26 291h-231q-147 0 -219 -69t-72 -189q0 -35 10.5 -71t28.5 -83q29 -63 29 -96q0 -35 -26 -56.5t-60 -21.5h-93v-258z" />
<glyph unicode="|" horiz-adv-x="700" d="M164 0l373 -33v1460l-373 33v-1460z" />
<glyph unicode="}" horiz-adv-x="714" d="M20 -80h232q147 0 219 68.5t72 189.5q0 35 -10.5 68t-30.5 90q-27 68 -27 92q0 35 25.5 56.5t60.5 21.5h92v258h-92q-35 0 -60.5 21.5t-25.5 56.5q0 23 13.5 58.5t15.5 41.5q18 49 28.5 82t10.5 68q0 121 -72 189.5t-219 68.5h-232l27 -291h76q78 0 78 -72 q0 -35 -8.5 -57.5t-26.5 -52.5q-18 -29 -27.5 -52.5t-9.5 -62.5q0 -49 20.5 -78t49.5 -49q-31 -23 -50.5 -49.5t-19.5 -77.5q0 -39 9 -62.5t28 -52.5q16 -29 25.5 -51.5t9.5 -58.5q0 -72 -78 -72h-76z" />
<glyph unicode="~" horiz-adv-x="1157" d="M61 358h293q0 35 28 68t64 33q49 0 91.5 -9.5t95.5 -25.5q66 -18 102.5 -26.5t81.5 -8.5q147 0 213 116t66 314h-258q0 -35 -25 -67.5t-61 -32.5q-63 0 -177 35q-45 12 -95 23t-91 11q-156 0 -242 -119.5t-86 -310.5z" />
<glyph unicode="&#xa1;" d="M61 0h373l-41 954l-291 82zM61 1276q0 -80 54.5 -134.5t132.5 -54.5q80 0 134 54.5t54 134.5t-54 133t-134 53q-78 0 -132.5 -53t-54.5 -133z" />
<glyph unicode="&#xa2;" horiz-adv-x="935" d="M41 496q0 205 105.5 340t287.5 176v254l307 26v-280q106 -25 183 -84l-105 -256q-59 31 -102 42t-96 11q-78 0 -136.5 -63.5t-58.5 -165.5q0 -100 57.5 -157.5t137.5 -57.5q51 0 96 11t102 42l105 -256q-76 -59 -183 -84v-250h-307v248q-182 37 -287.5 168t-105.5 336z " />
<glyph unicode="&#xa3;" horiz-adv-x="1069" d="M80 293l20 -293h949l-35 293h-404q10 45 11 92v164h307l-35 293h-272v123q0 61 35.5 97t101.5 36q29 0 69.5 -10.5t73.5 -28.5l107 254q-39 33 -122 60.5t-153 27.5q-131 0 -241.5 -45t-177 -134t-66.5 -216v-164h-166v-293h166v-123q0 -63 -39 -97t-129 -36z" />
<glyph unicode="&#xa4;" horiz-adv-x="1665" d="M61 985l265 -237q-53 -111 -54 -238q0 -121 52 -234l-238 -233l256 -254l229 242q111 -51 263 -56q68 2 136 16.5t124 41.5l219 -234l291 242l-265 238q54 110 54 237q0 121 -52 234l238 233l-256 254l-229 -242q-55 27 -124 40.5t-139 13.5q-68 0 -136 -14.5t-124 -41.5 l-219 234zM639 512q2 80 55.5 134t136.5 54q82 0 138.5 -53t56.5 -133t-54 -134t-138 -54q-82 0 -137.5 53t-57.5 133z" />
<glyph unicode="&#xa5;" horiz-adv-x="1339" d="M20 1323l357 98l270 -530l289 502h383l-424 -746h223l21 -237h-303v-78h282l21 -238h-303v-94h-373v94h-242l-20 238h262v78h-242l-20 237h207z" />
<glyph unicode="&#xa6;" horiz-adv-x="700" d="M164 0l373 -33v621l-373 33v-621zM164 840l373 -33v620l-373 33v-620z" />
<glyph unicode="&#xa7;" horiz-adv-x="1454" d="M61 803q2 137 90.5 237.5t243.5 139.5v18q0 115 64.5 206t181.5 142t272 51q106 0 218 -30.5t192 -83.5l-111 -252q-109 37 -167 49t-127 12q-61 0 -99.5 -28.5t-38.5 -69.5q0 -31 32 -54.5t106 -62.5l73 -41q129 -74 215 -136t146.5 -147t60.5 -192q0 -135 -88 -236.5 t-246 -144.5v-14q0 -119 -67.5 -211t-193.5 -145.5t-294 -53.5q-109 0 -243 33t-213 80l122 281q55 -33 152.5 -61t171.5 -28q82 0 131 34t49 75q0 27 -35.5 52.5t-115.5 72.5l-64 37q-139 82 -217 136t-139.5 140t-61.5 195zM446 799q0 -31 32 -54.5t106 -62.5l73 -41 q179 -100 265 -176q49 12 77.5 41t28.5 59q0 27 -36 52.5t-115 72.5l-64 37l-41 25q-139 80 -215 143q-49 -6 -80 -33.5t-31 -62.5z" />
<glyph unicode="&#xa8;" horiz-adv-x="815" d="M20 1405q0 -72 50.5 -121t119.5 -49q74 0 123 49t49 121q0 70 -49 120t-123 50q-68 0 -119 -50t-51 -120zM453 1405q0 -72 50 -121t120 -49q73 0 122.5 49t49.5 121q0 70 -49.5 120t-122.5 50q-68 0 -119 -50t-51 -120z" />
<glyph unicode="&#xa9;" horiz-adv-x="1689" d="M41 688q0 -213 101.5 -390t284.5 -280.5t417 -103.5q236 0 419 103.5t284.5 280.5t101.5 390q0 217 -101.5 395.5t-285 280.5t-418.5 102q-233 0 -416.5 -102t-285 -280.5t-101.5 -395.5zM317 690q0 148 66 267.5t185.5 188t275.5 68.5q170 0 287.5 -67.5t177 -186 t59.5 -270.5q0 -147 -64.5 -266t-184.5 -187.5t-275 -68.5q-156 0 -275.5 68.5t-185.5 187.5t-66 266zM395 688q0 -213 129 -332.5t344 -119.5q186 0 297 88l-90 223q-49 -27 -90 -37t-84 -10q-70 0 -120 50t-50 138q0 90 50 145.5t120 55.5q47 0 85 -10.5t89 -36.5l90 223 q-111 88 -297 88q-139 0 -246.5 -56.5t-167 -162t-59.5 -246.5z" />
<glyph unicode="&#xaa;" horiz-adv-x="710" d="M41 934q0 -115 67.5 -179.5t198.5 -64.5q59 0 111.5 18.5t85.5 51.5l47 -55h119v438q0 137 -76 216t-217 79q-82 0 -167 -19.5t-147 -48.5l72 -225q41 18 91 30.5t85 12.5q51 0 76 -33h-70q-129 0 -202.5 -55.5t-73.5 -165.5zM283 944q0 14 13 21.5t34 7.5h73v-10 q-14 -18 -35.5 -28.5t-43.5 -10.5q-18 0 -29.5 6t-11.5 14z" />
<glyph unicode="&#xab;" horiz-adv-x="862" d="M61 459l322 -309l68 217l-136 139l136 137l-68 219l-322 -311v-92zM432 459l322 -309l67 217l-135 139l135 137l-67 219l-322 -311v-92z" />
<glyph unicode="&#xac;" horiz-adv-x="1134" d="M20 868l27 -293h682v-335l344 -15v506l-37 137h-1016z" />
<glyph unicode="&#xad;" horiz-adv-x="245" />
<glyph unicode="&#xae;" horiz-adv-x="1480" d="M41 973q0 -193 86 -350.5t244.5 -248.5t367.5 -91q211 0 370 91t245 248.5t86 350.5q0 196 -86 355t-245 250t-370 91q-209 0 -367.5 -91t-244.5 -250t-86 -355zM268 975q0 139 56.5 247.5t164 170t250.5 61.5t251 -61.5t165 -170t57 -247.5q0 -137 -57 -245.5 t-164.5 -171t-251.5 -62.5q-143 0 -250.5 62.5t-164 171t-56.5 245.5zM438 614h215v230h74l88 -230h244l-119 279q53 33 86 84t33 117q0 123 -92.5 186t-223.5 63h-305v-729zM653 1008v168h64q53 0 78.5 -17.5t25.5 -64.5q0 -41 -28.5 -63.5t-75.5 -22.5h-64z" />
<glyph unicode="&#xaf;" horiz-adv-x="634" d="M20 1255h594l-20 293h-574v-293z" />
<glyph unicode="&#xb0;" horiz-adv-x="604" d="M20 1204q0 -76 38 -137t102.5 -96t142.5 -35q74 0 138.5 35t103.5 97t39 136t-39 135.5t-103.5 98.5t-138.5 37q-76 0 -141.5 -36t-103.5 -98.5t-38 -136.5zM252 1204q0 20 16.5 36.5t36.5 16.5q23 0 38 -17t15 -40q0 -20 -15 -36.5t-38 -16.5q-20 0 -36.5 18.5 t-16.5 38.5z" />
<glyph unicode="&#xb1;" horiz-adv-x="1116" d="M61 252l23 -252h967l-21 252h-969zM66 850l22 -252h322v-276l303 -17v293h342l-21 252h-321v317h-303v-317h-344z" />
<glyph unicode="&#xb2;" horiz-adv-x="786" d="M31 1466l119 -184q72 37 114.5 53.5t91.5 16.5q51 0 79 -17.5t28 -44.5q-4 -76 -129 -184l-262 -232v-184h673l-24 219h-252l47 43q104 94 149.5 179.5t45.5 185.5q0 106 -85 184t-257 78q-99 0 -178.5 -29.5t-159.5 -83.5z" />
<glyph unicode="&#xb3;" horiz-adv-x="835" d="M0 688q86 -55 186.5 -86t186.5 -31q121 0 215 39t145 107.5t51 159.5q0 66 -38.5 132t-94.5 99q41 20 78 82.5t37 116.5q0 123 -102.5 197.5t-272.5 74.5q-213 0 -358 -113l133 -190q111 76 196 76q57 0 87 -19.5t30 -50.5q0 -39 -39 -61.5t-106 -22.5h-125l22 -221h158 q47 0 77 -24.5t30 -67.5q0 -39 -35 -63.5t-86 -24.5q-53 0 -106.5 18.5t-118.5 58.5z" />
<glyph unicode="&#xb4;" horiz-adv-x="544" d="M20 1249l271 -45l233 408h-368z" />
<glyph unicode="&#xb5;" horiz-adv-x="1269" d="M115 -449v1440h372v-606q0 -51 25 -85t82 -34q33 0 92 17.5t109 40.5v667h372v-993h-221l-65 102q-211 -131 -394 -135v-393z" />
<glyph unicode="&#xb6;" horiz-adv-x="2156" d="M41 899q0 -168 86 -282.5t228.5 -170t316.5 -55.5h51v-391h371v1100h366v-1100h373v1100h283v293h-1471q-270 0 -437 -121t-167 -373z" />
<glyph unicode="&#xb7;" d="M61 539q0 -80 54.5 -133.5t134.5 -53.5q78 0 132 53.5t54 133.5t-54 134t-132 54q-80 0 -134.5 -54.5t-54.5 -133.5z" />
<glyph unicode="&#xb8;" horiz-adv-x="567" d="M20 -453q51 -39 115 -61.5t123 -22.5q117 0 203 67t86 179q0 63 -35 126t-104 85l41 107h-259l-88 -220q174 -18 174 -77q0 -18 -18 -27.5t-45 -9.5q-35 0 -115 31z" />
<glyph unicode="&#xb9;" horiz-adv-x="688" d="M20 1399l72 -240l193 86v-555h280v875h-186z" />
<glyph unicode="&#xba;" horiz-adv-x="823" d="M41 1063q0 -174 94 -273.5t264 -99.5q174 0 278.5 99.5t104.5 269.5q0 174 -98 276.5t-274 102.5q-170 0 -269.5 -101.5t-99.5 -273.5zM324 1063q0 121 90 121q47 0 66.5 -32t19.5 -93t-22.5 -91t-71.5 -30q-43 0 -62.5 30.5t-19.5 94.5z" />
<glyph unicode="&#xbb;" horiz-adv-x="862" d="M41 369l68 -219l321 311v92l-321 309l-68 -217l135 -139zM412 369l67 -219l322 311v92l-322 309l-67 -217l135 -139z" />
<glyph unicode="&#xbc;" horiz-adv-x="2021" d="M20 1399l72 -240l193 86v-555h280v875h-186zM141 -274h342l1223 1708h-344zM1057 57l33 -211h442v-186h289v186h145l14 228h-159v594h-215zM1397 74l135 157v-157h-135z" />
<glyph unicode="&#xbd;" horiz-adv-x="2007" d="M20 1399l72 -240l193 86v-555h280v875h-186zM141 -274h342l1223 1708h-344zM1251 553l119 -184q72 37 115 53t92 16q51 0 78.5 -17.5t27.5 -43.5q-4 -76 -129 -184l-262 -232v-184h674l-24 219h-252l47 43q104 94 149 179t45 185q0 106 -85 184.5t-257 78.5 q-98 0 -178 -30t-160 -83z" />
<glyph unicode="&#xbe;" horiz-adv-x="2033" d="M0 688q86 -55 186.5 -86t186.5 -31q121 0 215 39t145 107.5t51 159.5q0 66 -38.5 132t-94.5 99q41 20 78 82.5t37 116.5q0 123 -102.5 197.5t-272.5 74.5q-213 0 -358 -113l133 -190q111 76 196 76q57 0 87 -19.5t30 -50.5q0 -39 -39 -61.5t-106 -22.5h-125l22 -221h158 q47 0 77 -24.5t30 -67.5q0 -39 -35 -63.5t-86 -24.5q-53 0 -106.5 18.5t-118.5 58.5zM166 -274h342l1223 1708h-345zM1069 57l33 -211h442v-186h289v186h145l15 228h-160v594h-215zM1409 74l135 157v-157h-135z" />
<glyph unicode="&#xbf;" horiz-adv-x="956" d="M61 317q0 -117 60.5 -205.5t171 -138t252.5 -49.5q205 1 391 107l-47 305q-193 -109 -338 -109q-45 0 -75 23.5t-30 60.5q0 55 87.5 119t222.5 107l-15 325l-292 80l-25 -235q-190 -68 -276.5 -164.5t-86.5 -225.5zM428 1174q0 -80 54.5 -134.5t131.5 -54.5 q80 0 134.5 54.5t54.5 134.5t-54.5 133t-134.5 53q-78 0 -132 -53.5t-54 -132.5z" />
<glyph unicode="&#xc0;" horiz-adv-x="1456" d="M20 0h371l96 274h482l100 -294l367 36l-521 1377h-372zM421 1909l234 -408l270 45l-135 363h-369zM590 567l133 379l139 -379h-272z" />
<glyph unicode="&#xc1;" horiz-adv-x="1456" d="M20 0h371l96 274h482l100 -294l367 36l-521 1377h-372zM557 1546l271 -45l233 408h-368zM590 567l133 379l139 -379h-272z" />
<glyph unicode="&#xc2;" horiz-adv-x="1456" d="M20 0h371l96 274h482l100 -294l367 36l-521 1377h-372zM268 1554l363 -41l109 127l106 -127l354 41l-356 367h-219zM590 567l133 379l139 -379h-272z" />
<glyph unicode="&#xc3;" horiz-adv-x="1456" d="M20 0h371l96 274h482l100 -294l367 36l-521 1377h-372zM346 1536h259q0 18 14 38.5t31 20.5q29 0 47 -8t47 -24q29 -18 52.5 -27.5t57.5 -9.5q106 0 179 78.5t73 248.5h-250q0 -18 -14 -38.5t-31 -20.5q-27 0 -46 8t-50 25q-29 18 -52.5 27.5t-55.5 9.5q-109 0 -185 -79 t-76 -249zM590 567l133 379l139 -379h-272z" />
<glyph unicode="&#xc4;" horiz-adv-x="1456" d="M20 0h371l96 274h482l100 -294l367 36l-521 1377h-372zM352 1712q0 -72 50.5 -121t119.5 -49q74 0 123 49t49 121q0 70 -49 120t-123 50q-68 0 -119 -50t-51 -120zM590 567l133 379l139 -379h-272zM785 1712q0 -72 50 -121t120 -49q73 0 122.5 49t49.5 121 q0 70 -49.5 120t-122.5 50q-68 0 -119 -50t-51 -120z" />
<glyph unicode="&#xc5;" horiz-adv-x="1456" d="M20 0h371l96 274h482l100 -294l367 36l-521 1377h-372zM481 1759q0 -102 74 -168.5t178 -66.5q102 0 177 66.5t75 168.5q0 66 -34.5 121t-93 87t-124.5 32q-102 0 -177 -69.5t-75 -170.5zM590 567l133 379l139 -379h-272zM676 1759q0 25 18.5 41.5t42.5 16.5 q25 0 41.5 -16.5t16.5 -41.5t-16.5 -43t-41.5 -18q-24 0 -42.5 18.5t-18.5 42.5z" />
<glyph unicode="&#xc6;" horiz-adv-x="2021" d="M20 27l359 -54l188 289h394v-262h1019l-34 293h-613v260h463l-35 293h-428v254h586l-35 293h-923zM774 555l187 262v-262h-187z" />
<glyph unicode="&#xc7;" horiz-adv-x="1220" d="M61 690q0 211 92.5 377t255 259t367.5 93q106 0 218 -30.5t192 -83.5l-111 -252q-109 37 -167 49t-128 12q-84 0 -160.5 -53t-125 -149.5t-48.5 -219.5q0 -125 49.5 -219t130.5 -144t169 -50q137 0 264 75l141 -278q-109 -68 -287 -92l-24 -64q69 -22 104 -84.5 t35 -126.5q0 -113 -86 -179.5t-203 -66.5q-59 0 -122.5 22.5t-114.5 61.5l78 177q80 -31 114 -31q27 0 45.5 9t18.5 28q0 59 -174 77l69 175q-184 27 -317 123t-204 246.5t-71 338.5z" />
<glyph unicode="&#xc8;" horiz-adv-x="1224" d="M164 0h1020l-35 293h-612v260h462l-34 293h-428v254h585l-35 293h-923v-1393zM372 1909l234 -408l270 45l-135 363h-369z" />
<glyph unicode="&#xc9;" horiz-adv-x="1224" d="M164 0h1020l-35 293h-612v260h462l-34 293h-428v254h585l-35 293h-923v-1393zM507 1546l271 -45l233 408h-368z" />
<glyph unicode="&#xca;" horiz-adv-x="1224" d="M164 0h1020l-35 293h-612v260h462l-34 293h-428v254h585l-35 293h-923v-1393zM219 1554l363 -41l109 127l106 -127l354 41l-356 367h-219z" />
<glyph unicode="&#xcb;" horiz-adv-x="1224" d="M164 0h1020l-35 293h-612v260h462l-34 293h-428v254h585l-35 293h-923v-1393zM303 1712q0 -72 50.5 -121t119.5 -49q74 0 123 49t49 121q0 70 -49 120t-123 50q-68 0 -119 -50t-51 -120zM736 1712q0 -72 50 -121t120 -49q73 0 122.5 49t49.5 121q0 70 -49.5 120 t-122.5 50q-68 0 -119 -50t-51 -120z" />
<glyph unicode="&#xcc;" horiz-adv-x="700" d="M43 1909l234 -408l270 45l-135 363h-369zM164 0h373v1393h-373v-1393z" />
<glyph unicode="&#xcd;" horiz-adv-x="700" d="M164 0h373v1393h-373v-1393zM178 1546l271 -45l233 408h-368z" />
<glyph unicode="&#xce;" horiz-adv-x="700" d="M-111 1554l363 -41l109 127l106 -127l354 41l-356 367h-219zM164 0h373v1393h-373v-1393z" />
<glyph unicode="&#xcf;" horiz-adv-x="700" d="M-27 1712q0 -72 50.5 -121t119.5 -49q74 0 123 49t49 121q0 70 -49 120t-123 50q-68 0 -119 -50t-51 -120zM164 0h373v1393h-373v-1393zM406 1712q0 -72 50 -121t120 -49q73 0 122.5 49t49.5 121q0 70 -49.5 120t-122.5 50q-68 0 -119 -50t-51 -120z" />
<glyph unicode="&#xd0;" horiz-adv-x="1513" d="M0 846h164v547h631q209 0 357 -88t224 -244t76 -356q0 -213 -84 -373t-235.5 -246t-346.5 -86h-622v553h-129zM537 293h225q135 0 220 106.5t85 305.5q0 176 -77 285.5t-214 109.5h-239v-254h219l35 -293h-254v-260z" />
<glyph unicode="&#xd1;" horiz-adv-x="1583" d="M164 0h373v733l534 -733h348v1393h-372v-756l-537 756h-346v-1393zM391 1536h259q0 18 14 38.5t31 20.5q29 0 47 -8t47 -24q29 -18 52.5 -27.5t57.5 -9.5q106 0 179 78.5t73 248.5h-250q0 -18 -14 -38.5t-31 -20.5q-27 0 -46 8t-50 25q-29 18 -52.5 27.5t-55.5 9.5 q-109 0 -185 -79t-76 -249z" />
<glyph unicode="&#xd2;" horiz-adv-x="1562" d="M61 690q0 -201 88.5 -364.5t251 -259t379.5 -95.5q211 0 375 93.5t255 260.5t91 380q0 201 -87 364.5t-250 257.5t-384 94q-207 0 -370.5 -93t-256 -260t-92.5 -378zM444 692q0 123 46.5 218.5t123 147.5t170.5 52q152 0 243 -113.5t91 -291.5q0 -203 -95 -312.5 t-245 -109.5q-156 0 -245 114.5t-89 294.5zM464 1909l234 -408l270 45l-135 363h-369z" />
<glyph unicode="&#xd3;" horiz-adv-x="1562" d="M61 690q0 -201 88.5 -364.5t251 -259t379.5 -95.5q211 0 375 93.5t255 260.5t91 380q0 201 -87 364.5t-250 257.5t-384 94q-207 0 -370.5 -93t-256 -260t-92.5 -378zM444 692q0 123 46.5 218.5t123 147.5t170.5 52q152 0 243 -113.5t91 -291.5q0 -203 -95 -312.5 t-245 -109.5q-156 0 -245 114.5t-89 294.5zM600 1546l271 -45l233 408h-368z" />
<glyph unicode="&#xd4;" horiz-adv-x="1562" d="M61 690q0 -201 88.5 -364.5t251 -259t379.5 -95.5q211 0 375 93.5t255 260.5t91 380q0 201 -87 364.5t-250 257.5t-384 94q-207 0 -370.5 -93t-256 -260t-92.5 -378zM311 1554l363 -41l109 127l106 -127l354 41l-356 367h-219zM444 692q0 123 46.5 218.5t123 147.5 t170.5 52q152 0 243 -113.5t91 -291.5q0 -203 -95 -312.5t-245 -109.5q-156 0 -245 114.5t-89 294.5z" />
<glyph unicode="&#xd5;" horiz-adv-x="1562" d="M61 690q0 -201 88.5 -364.5t251 -259t379.5 -95.5q211 0 375 93.5t255 260.5t91 380q0 201 -87 364.5t-250 257.5t-384 94q-207 0 -370.5 -93t-256 -260t-92.5 -378zM389 1536h259q0 18 14 38.5t31 20.5q29 0 47 -8t47 -24q29 -18 52.5 -27.5t57.5 -9.5q106 0 179 78.5 t73 248.5h-250q0 -18 -14 -38.5t-31 -20.5q-27 0 -46 8t-50 25q-29 18 -52.5 27.5t-55.5 9.5q-109 0 -185 -79t-76 -249zM444 692q0 123 46.5 218.5t123 147.5t170.5 52q152 0 243 -113.5t91 -291.5q0 -203 -95 -312.5t-245 -109.5q-156 0 -245 114.5t-89 294.5z" />
<glyph unicode="&#xd6;" horiz-adv-x="1562" d="M61 690q0 -201 88.5 -364.5t251 -259t379.5 -95.5q211 0 375 93.5t255 260.5t91 380q0 201 -87 364.5t-250 257.5t-384 94q-207 0 -370.5 -93t-256 -260t-92.5 -378zM395 1712q0 -72 50.5 -121t119.5 -49q74 0 123 49t49 121q0 70 -49 120t-123 50q-68 0 -119 -50 t-51 -120zM444 692q0 123 46.5 218.5t123 147.5t170.5 52q152 0 243 -113.5t91 -291.5q0 -203 -95 -312.5t-245 -109.5q-156 0 -245 114.5t-89 294.5zM828 1712q0 -72 50 -121t120 -49q73 0 122.5 49t49.5 121q0 70 -49.5 120t-122.5 50q-68 0 -119 -50t-51 -120z" />
<glyph unicode="&#xd7;" horiz-adv-x="1243" d="M61 59l394 480l-359 452h371l154 -217l182 217h379l-394 -479l359 -453h-371l-155 217l-181 -217h-379z" />
<glyph unicode="&#xd8;" horiz-adv-x="1562" d="M61 690q0 211 92.5 378t256 260t370.5 93q221 0 384 -94t250 -258t87 -364q0 -213 -91 -380t-255 -260.5t-375 -93.5q-217 0 -379.5 95.5t-251 259t-88.5 364.5zM444 692q0 -174 82 -284l289 700l-31 2q-94 0 -170.5 -52t-123 -147.5t-46.5 -218.5zM752 283h26 q150 0 245 109.5t95 312.5q0 154 -71 264z" />
<glyph unicode="&#xd9;" horiz-adv-x="1536" d="M143 532q0 -178 78 -304t219.5 -191.5t327.5 -65.5t327.5 65.5t219.5 191.5t78 304v861h-373v-842q0 -127 -69.5 -197.5t-182.5 -70.5t-182.5 70.5t-69.5 197.5v842h-373v-861zM452 1909l234 -408l270 45l-135 363h-369z" />
<glyph unicode="&#xda;" horiz-adv-x="1536" d="M143 532q0 -178 78 -304t219.5 -191.5t327.5 -65.5t327.5 65.5t219.5 191.5t78 304v861h-373v-842q0 -127 -69.5 -197.5t-182.5 -70.5t-182.5 70.5t-69.5 197.5v842h-373v-861zM587 1546l271 -45l233 408h-368z" />
<glyph unicode="&#xdb;" horiz-adv-x="1536" d="M143 532q0 -178 78 -304t219.5 -191.5t327.5 -65.5t327.5 65.5t219.5 191.5t78 304v861h-373v-842q0 -127 -69.5 -197.5t-182.5 -70.5t-182.5 70.5t-69.5 197.5v842h-373v-861zM299 1554l363 -41l109 127l106 -127l354 41l-356 367h-219z" />
<glyph unicode="&#xdc;" horiz-adv-x="1536" d="M143 532q0 -178 78 -304t219.5 -191.5t327.5 -65.5t327.5 65.5t219.5 191.5t78 304v861h-373v-842q0 -127 -69.5 -197.5t-182.5 -70.5t-182.5 70.5t-69.5 197.5v842h-373v-861zM382 1712q0 -72 50.5 -121t119.5 -49q74 0 123 49t49 121q0 70 -49 120t-123 50 q-68 0 -119 -50t-51 -120zM815 1712q0 -72 50 -121t120 -49q73 0 122.5 49t49.5 121q0 70 -49.5 120t-122.5 50q-68 0 -119 -50t-51 -120z" />
<glyph unicode="&#xdd;" horiz-adv-x="1339" d="M20 1323l443 -774v-549h373v545l483 848h-383l-289 -502l-270 530zM466 1546l271 -45l233 408h-368z" />
<glyph unicode="&#xde;" horiz-adv-x="1363" d="M164 0v1393h373v-164h213q159 0 289 -56.5t207 -170t77 -275.5q0 -160 -82 -269.5t-216 -162.5t-292 -53h-196v-242h-373zM537 535h204q86 0 141.5 55t55.5 137q0 94 -54.5 151.5t-146.5 57.5h-200v-401z" />
<glyph unicode="&#xdf;" horiz-adv-x="1351" d="M123 0h373v936q0 88 55 138t123 50q78 0 126 -38.5t48 -92.5q0 -51 -54.5 -96t-123.5 -45h-56v-266h162q57 0 96 -39t39 -109q0 -61 -44 -97t-107 -36h-156v-305h191q147 0 258.5 50t174 142.5t62.5 217.5q0 106 -59.5 203.5t-147.5 131.5q70 47 104 127t34 158 q0 121 -72 214t-200 143.5t-287 50.5q-162 0 -284 -65.5t-188.5 -181.5t-66.5 -265v-926z" />
<glyph unicode="&#xe0;" horiz-adv-x="1042" d="M66 319q0 -158 94 -250t278 -92q125 0 224 125l106 -102h180v614q0 193 -106.5 303.5t-304.5 110.5q-115 0 -234 -27.5t-205 -66.5l99 -268q57 24 127.5 41.5t119.5 17.5q53 0 87 -28.5t42 -86.5h-118q-389 0 -389 -291zM210 1612l234 -408l270 45l-135 363h-369z M377 326q0 34 23.5 57t60.5 23h114v-95q-68 -55 -131 -55q-29 0 -48 19.5t-19 50.5z" />
<glyph unicode="&#xe1;" horiz-adv-x="1042" d="M66 319q0 -158 94 -250t278 -92q125 0 224 125l106 -102h180v614q0 193 -106.5 303.5t-304.5 110.5q-115 0 -234 -27.5t-205 -66.5l99 -268q57 24 127.5 41.5t119.5 17.5q53 0 87 -28.5t42 -86.5h-118q-389 0 -389 -291zM346 1249l271 -45l233 408h-368zM377 326 q0 34 23.5 57t60.5 23h114v-95q-68 -55 -131 -55q-29 0 -48 19.5t-19 50.5z" />
<glyph unicode="&#xe2;" horiz-adv-x="1042" d="M63 1245l363 -41l109 127l106 -127l354 41l-356 367h-219zM66 319q0 -158 94 -250t278 -92q125 0 224 125l106 -102h180v614q0 193 -106.5 303.5t-304.5 110.5q-115 0 -234 -27.5t-205 -66.5l99 -268q57 24 127.5 41.5t119.5 17.5q53 0 87 -28.5t42 -86.5h-118 q-389 0 -389 -291zM377 326q0 34 23.5 57t60.5 23h114v-95q-68 -55 -131 -55q-29 0 -48 19.5t-19 50.5z" />
<glyph unicode="&#xe3;" horiz-adv-x="1042" d="M66 319q0 -158 94 -250t278 -92q125 0 224 125l106 -102h180v614q0 193 -106.5 303.5t-304.5 110.5q-115 0 -234 -27.5t-205 -66.5l99 -268q57 24 127.5 41.5t119.5 17.5q53 0 87 -28.5t42 -86.5h-118q-389 0 -389 -291zM131 1229h259q0 18 14 38.5t31 20.5q29 0 47 -8 t47 -25q29 -18 52.5 -27t57.5 -9q106 0 179 78.5t73 248.5h-250q0 -18 -14 -38.5t-31 -20.5q-27 0 -46 8t-50 25q-29 18 -52.5 27t-55.5 9q-109 0 -185 -78.5t-76 -248.5zM377 326q0 34 23.5 57t60.5 23h114v-95q-68 -55 -131 -55q-29 0 -48 19.5t-19 50.5z" />
<glyph unicode="&#xe4;" horiz-adv-x="1042" d="M66 319q0 -158 94 -250t278 -92q125 0 224 125l106 -102h180v614q0 193 -106.5 303.5t-304.5 110.5q-115 0 -234 -27.5t-205 -66.5l99 -268q57 24 127.5 41.5t119.5 17.5q53 0 87 -28.5t42 -86.5h-118q-389 0 -389 -291zM139 1405q0 -72 50.5 -121t119.5 -49q74 0 123 49 t49 121q0 70 -49 120t-123 50q-68 0 -119 -50t-51 -120zM377 326q0 34 23.5 57t60.5 23h114v-95q-68 -55 -131 -55q-29 0 -48 19.5t-19 50.5zM572 1405q0 -72 50 -121t120 -49q73 0 122.5 49t49.5 121q0 70 -49.5 120t-122.5 50q-68 0 -119 -50t-51 -120z" />
<glyph unicode="&#xe5;" horiz-adv-x="1042" d="M66 319q0 -158 94 -250t278 -92q125 0 224 125l106 -102h180v614q0 193 -106.5 303.5t-304.5 110.5q-115 0 -234 -27.5t-205 -66.5l99 -268q57 24 127.5 41.5t119.5 17.5q53 0 87 -28.5t42 -86.5h-118q-389 0 -389 -291zM280 1452q0 -102 74 -168.5t178 -66.5 q102 0 177 66.5t75 168.5q0 66 -34.5 121t-93 87t-124.5 32q-102 0 -177 -70t-75 -170zM377 326q0 34 23.5 57t60.5 23h114v-95q-68 -55 -131 -55q-29 0 -48 19.5t-19 50.5zM475 1452q0 25 18.5 41t42.5 16q25 0 41.5 -16t16.5 -41t-16.5 -43t-41.5 -18q-24 0 -42.5 18 t-18.5 43z" />
<glyph unicode="&#xe6;" horiz-adv-x="1624" d="M66 319q0 291 389 291h118q-8 57 -41.5 86t-87.5 29q-49 0 -119.5 -17.5t-127.5 -41.5l-99 268q86 39 205 66.5t234 27.5q168 0 270 -80q135 80 301 80q154 0 260.5 -69.5t160.5 -186.5t54 -260v-109h-604q20 -63 76.5 -99t148.5 -36q141 0 273 68l104 -252 q-61 -45 -177 -76t-237 -31q-252 0 -409 121q-55 -53 -129 -87t-191 -34q-184 0 -278 92.5t-94 249.5zM377 326q0 -31 19.5 -50.5t47.5 -19.5q49 0 85 15.5t73 41.5q-16 47 -22 93h-119q-37 0 -60.5 -23t-23.5 -57zM969 588h258q0 51 -33 96t-96 45q-51 0 -91 -43t-38 -98z " />
<glyph unicode="&#xe7;" horiz-adv-x="935" d="M41 496q0 164 68.5 284.5t191.5 184t283 63.5q213 0 340 -100l-105 -256q-59 31 -102 42t-96 11q-78 0 -136.5 -63.5t-58.5 -165.5q0 -100 57.5 -157.5t137.5 -57.5q51 0 96 11t102 42l105 -256q-84 -67 -213 -90l-27 -68q70 -23 104.5 -85t34.5 -126q0 -113 -86 -179.5 t-202 -66.5q-59 0 -123 22.5t-115 61.5l78 177q80 -31 114 -31q27 0 45.5 9t18.5 28q0 59 -174 77l74 183q-190 33 -301 164t-111 342z" />
<glyph unicode="&#xe8;" horiz-adv-x="1091" d="M41 496q0 -164 76 -282t210 -177.5t308 -59.5q121 0 236.5 31t177.5 76l-105 252q-131 -68 -272 -68q-92 0 -148.5 36t-77.5 99h605v109q0 143 -54.5 260t-161 186.5t-260.5 69.5q-152 0 -273.5 -64.5t-191 -185.5t-69.5 -282zM253 1612l234 -408l270 45l-135 363h-369z M436 588q-2 55 38 98t91 43q63 0 96 -45t33 -96h-258z" />
<glyph unicode="&#xe9;" horiz-adv-x="1091" d="M41 496q0 -164 76 -282t210 -177.5t308 -59.5q121 0 236.5 31t177.5 76l-105 252q-131 -68 -272 -68q-92 0 -148.5 36t-77.5 99h605v109q0 143 -54.5 260t-161 186.5t-260.5 69.5q-152 0 -273.5 -64.5t-191 -185.5t-69.5 -282zM389 1249l271 -45l233 408h-368zM436 588 q-2 55 38 98t91 43q63 0 96 -45t33 -96h-258z" />
<glyph unicode="&#xea;" horiz-adv-x="1091" d="M41 496q0 -164 76 -282t210 -177.5t308 -59.5q121 0 236.5 31t177.5 76l-105 252q-131 -68 -272 -68q-92 0 -148.5 36t-77.5 99h605v109q0 143 -54.5 260t-161 186.5t-260.5 69.5q-152 0 -273.5 -64.5t-191 -185.5t-69.5 -282zM106 1245l363 -41l109 127l106 -127l354 41 l-356 367h-219zM436 588q-2 55 38 98t91 43q63 0 96 -45t33 -96h-258z" />
<glyph unicode="&#xeb;" horiz-adv-x="1091" d="M41 496q0 -164 76 -282t210 -177.5t308 -59.5q121 0 236.5 31t177.5 76l-105 252q-131 -68 -272 -68q-92 0 -148.5 36t-77.5 99h605v109q0 143 -54.5 260t-161 186.5t-260.5 69.5q-152 0 -273.5 -64.5t-191 -185.5t-69.5 -282zM182 1405q0 -72 50.5 -121t119.5 -49 q74 0 123 49t49 121q0 70 -49 120t-123 50q-68 0 -119 -50t-51 -120zM436 588q-2 55 38 98t91 43q63 0 96 -45t33 -96h-258zM615 1405q0 -72 50 -121t120 -49q73 0 122.5 49t49.5 121q0 70 -49.5 120t-122.5 50q-68 0 -119 -50t-51 -120z" />
<glyph unicode="&#xec;" horiz-adv-x="577" d="M-31 1612l234 -408l270 45l-135 363h-369zM102 0h373v993h-373v-993z" />
<glyph unicode="&#xed;" horiz-adv-x="577" d="M102 0h373v993h-373v-993zM104 1249l271 -45l233 408h-368z" />
<glyph unicode="&#xee;" horiz-adv-x="577" d="M-179 1245l363 -41l109 127l106 -127l354 41l-356 367h-219zM102 0h373v993h-373v-993z" />
<glyph unicode="&#xef;" horiz-adv-x="577" d="M-103 1405q0 -72 50.5 -121t119.5 -49q74 0 123 49t49 121q0 70 -49 120t-123 50q-68 0 -119 -50t-51 -120zM102 0h373v993h-373v-993zM330 1405q0 -72 50 -121t120 -49q73 0 122.5 49t49.5 121q0 70 -49.5 120t-122.5 50q-68 0 -119 -50t-51 -120z" />
<glyph unicode="&#xf0;" horiz-adv-x="1208" d="M41 502q0 160 72.5 279.5t192.5 183t257 63.5l35 -2q-37 43 -84 84l-297 -139l-102 217l145 69q-68 27 -151 50l124 229q184 -41 345 -125l266 129l110 -225l-139 -66q170 -147 261 -338.5t91 -390.5q0 -164 -69.5 -286.5t-194.5 -189.5t-285 -67q-164 0 -294.5 58.5 t-206.5 176.5t-76 290zM426 502q0 -102 45 -161.5t129 -59.5q88 0 135 53t47 158q0 106 -20 196q-80 37 -154 37q-86 0 -134 -59.5t-48 -163.5z" />
<glyph unicode="&#xf1;" horiz-adv-x="1249" d="M102 0h373v668q49 22 108.5 39.5t92.5 17.5q57 0 81.5 -34t24.5 -85v-606h373v641q0 174 -90 279.5t-270 105.5q-188 0 -406 -135l-65 102h-222v-993zM325 1229h259q0 18 14 38.5t31 20.5q29 0 47 -8t47 -25q29 -18 52.5 -27t57.5 -9q106 0 179 78.5t73 248.5h-250 q0 -18 -14 -38.5t-31 -20.5q-27 0 -46 8t-50 25q-29 18 -52.5 27t-55.5 9q-109 0 -185 -78.5t-76 -248.5z" />
<glyph unicode="&#xf2;" horiz-adv-x="1208" d="M41 502q0 162 74.5 281.5t202.5 182t286 62.5q166 0 293 -61.5t198.5 -182t71.5 -292.5q0 -162 -74.5 -279t-204.5 -176.5t-292 -59.5q-250 0 -402.5 134.5t-152.5 390.5zM280 1612l234 -408l270 45l-135 363h-369zM426 502q0 -102 45 -161.5t129 -59.5q88 0 135 53 t47 158q0 102 -46 167.5t-128 65.5q-86 0 -134 -59.5t-48 -163.5z" />
<glyph unicode="&#xf3;" horiz-adv-x="1208" d="M41 502q0 162 74.5 281.5t202.5 182t286 62.5q166 0 293 -61.5t198.5 -182t71.5 -292.5q0 -162 -74.5 -279t-204.5 -176.5t-292 -59.5q-250 0 -402.5 134.5t-152.5 390.5zM415 1249l271 -45l233 408h-368zM426 502q0 -102 45 -161.5t129 -59.5q88 0 135 53t47 158 q0 102 -46 167.5t-128 65.5q-86 0 -134 -59.5t-48 -163.5z" />
<glyph unicode="&#xf4;" horiz-adv-x="1208" d="M41 502q0 162 74.5 281.5t202.5 182t286 62.5q166 0 293 -61.5t198.5 -182t71.5 -292.5q0 -162 -74.5 -279t-204.5 -176.5t-292 -59.5q-250 0 -402.5 134.5t-152.5 390.5zM133 1245l363 -41l109 127l106 -127l354 41l-356 367h-219zM426 502q0 -102 45 -161.5t129 -59.5 q88 0 135 53t47 158q0 102 -46 167.5t-128 65.5q-86 0 -134 -59.5t-48 -163.5z" />
<glyph unicode="&#xf5;" horiz-adv-x="1208" d="M41 502q0 162 74.5 281.5t202.5 182t286 62.5q166 0 293 -61.5t198.5 -182t71.5 -292.5q0 -162 -74.5 -279t-204.5 -176.5t-292 -59.5q-250 0 -402.5 134.5t-152.5 390.5zM200 1229h259q0 18 14 38.5t31 20.5q29 0 47 -8t47 -25q29 -18 52.5 -27t57.5 -9q106 0 179 78.5 t73 248.5h-250q0 -18 -14 -38.5t-31 -20.5q-27 0 -46 8t-50 25q-29 18 -52.5 27t-55.5 9q-109 0 -185 -78.5t-76 -248.5zM426 502q0 -102 45 -161.5t129 -59.5q88 0 135 53t47 158q0 102 -46 167.5t-128 65.5q-86 0 -134 -59.5t-48 -163.5z" />
<glyph unicode="&#xf6;" horiz-adv-x="1208" d="M41 502q0 162 74.5 281.5t202.5 182t286 62.5q166 0 293 -61.5t198.5 -182t71.5 -292.5q0 -162 -74.5 -279t-204.5 -176.5t-292 -59.5q-250 0 -402.5 134.5t-152.5 390.5zM208 1405q0 -72 50.5 -121t119.5 -49q74 0 123 49t49 121q0 70 -49 120t-123 50q-68 0 -119 -50 t-51 -120zM426 502q0 -102 45 -161.5t129 -59.5q88 0 135 53t47 158q0 102 -46 167.5t-128 65.5q-86 0 -134 -59.5t-48 -163.5zM641 1405q0 -72 50 -121t120 -49q73 0 122.5 49t49.5 121q0 70 -49.5 120t-122.5 50q-68 0 -119 -50t-51 -120z" />
<glyph unicode="&#xf7;" horiz-adv-x="1048" d="M61 696l23 -272h903l-20 272h-906zM336 186q0 -80 54 -133t134 -53q78 0 132.5 53t54.5 133t-54.5 134.5t-132.5 54.5q-80 0 -134 -54.5t-54 -134.5zM336 940q0 -80 54 -133t134 -53q78 0 132.5 53t54.5 133t-54.5 134t-132.5 54q-80 0 -134 -54t-54 -134z" />
<glyph unicode="&#xf8;" horiz-adv-x="1208" d="M41 502q0 162 74.5 281.5t202.5 182t286 62.5q166 0 293 -61.5t198.5 -182t71.5 -292.5q0 -162 -74.5 -279t-204.5 -176.5t-292 -59.5q-250 0 -402.5 134.5t-152.5 390.5zM426 502q0 -61 14 -103l178 326h-10q-86 0 -134 -59.5t-48 -163.5zM592 281h8q88 0 135 53t47 158 q0 59 -14 100z" />
<glyph unicode="&#xf9;" horiz-adv-x="1249" d="M94 350q0 -174 90 -279.5t271 -105.5q188 0 405 135l107 -102h180v993h-373v-667q-49 -23 -108.5 -40.5t-92.5 -17.5q-57 0 -81.5 34t-24.5 85v606h-373v-641zM301 1612l234 -408l270 45l-135 363h-369z" />
<glyph unicode="&#xfa;" horiz-adv-x="1249" d="M94 350q0 -174 90 -279.5t271 -105.5q188 0 405 135l107 -102h180v993h-373v-667q-49 -23 -108.5 -40.5t-92.5 -17.5q-57 0 -81.5 34t-24.5 85v606h-373v-641zM436 1249l271 -45l233 408h-368z" />
<glyph unicode="&#xfb;" horiz-adv-x="1249" d="M94 350q0 -174 90 -279.5t271 -105.5q188 0 405 135l107 -102h180v993h-373v-667q-49 -23 -108.5 -40.5t-92.5 -17.5q-57 0 -81.5 34t-24.5 85v606h-373v-641zM153 1245l363 -41l109 127l106 -127l354 41l-356 367h-219z" />
<glyph unicode="&#xfc;" horiz-adv-x="1249" d="M94 350q0 -174 90 -279.5t271 -105.5q188 0 405 135l107 -102h180v993h-373v-667q-49 -23 -108.5 -40.5t-92.5 -17.5q-57 0 -81.5 34t-24.5 85v606h-373v-641zM229 1405q0 -72 50.5 -121t119.5 -49q74 0 123 49t49 121q0 70 -49 120t-123 50q-68 0 -119 -50t-51 -120z M662 1405q0 -72 50 -121t120 -49q73 0 122.5 49t49.5 121q0 70 -49.5 120t-122.5 50q-68 0 -119 -50t-51 -120z" />
<glyph unicode="&#xfd;" horiz-adv-x="1148" d="M20 932l357 -914l-8 -22q-15 -39 -81.5 -75t-172.5 -81l125 -289q152 33 278.5 123t173.5 209l436 1110h-370l-191 -561l-202 598zM378 1249l271 -45l233 408h-368z" />
<glyph unicode="&#xfe;" horiz-adv-x="1185" d="M115 -449v1872l372 23v-451q86 33 148 33q229 0 369.5 -131t140.5 -387q0 -260 -142.5 -396.5t-384.5 -136.5q-57 0 -131 27v-432zM487 291q59 -27 107 -27q72 0 119 65.5t47 178.5t-47 173t-135 60q-43 0 -91 -30v-420z" />
<glyph unicode="&#xff;" horiz-adv-x="1148" d="M20 932l357 -914l-8 -22q-15 -39 -81.5 -75t-172.5 -81l125 -289q152 33 278.5 123t173.5 209l436 1110h-370l-191 -561l-202 598zM172 1405q0 -72 50.5 -121t119.5 -49q74 0 123 49t49 121q0 70 -49 120t-123 50q-68 0 -119 -50t-51 -120zM605 1405q0 -72 50 -121 t120 -49q73 0 122.5 49t49.5 121q0 70 -49.5 120t-122.5 50q-68 0 -119 -50t-51 -120z" />
<glyph unicode="&#x152;" horiz-adv-x="2113" d="M61 690q0 211 92.5 377t255 259t367.5 93q143 0 277 -49v23h923l35 -293h-586v-254h428l35 -293h-463v-260h613l35 -293h-1020v12q-135 -39 -269 -39q-221 0 -384.5 91.5t-251 253t-87.5 372.5zM446 692q0 -125 49.5 -219t130.5 -144t169 -50q133 -1 258 71v711 q-96 33 -150.5 43t-122.5 10q-84 0 -160.5 -53t-125 -149.5t-48.5 -219.5z" />
<glyph unicode="&#x153;" horiz-adv-x="1753" d="M41 496q0 164 68.5 284.5t191.5 184t283 63.5q205 0 331 -94q135 94 322 94q154 0 260.5 -69.5t160.5 -186.5t54 -260v-109h-604q20 -63 76.5 -99t148.5 -36q141 0 273 68l104 -252q-61 -45 -177 -76t-237 -31q-225 0 -376 97q-129 -96 -336 -97q-246 0 -394.5 136.5 t-148.5 382.5zM426 496q0 -101 57.5 -158t137.5 -57q63 0 116 18q-35 88 -35 197q0 119 37 211q-49 18 -118 18q-78 0 -136.5 -63.5t-58.5 -165.5zM1098 588h258q0 51 -33 96t-96 45q-51 0 -91 -43t-38 -98z" />
<glyph unicode="&#x178;" horiz-adv-x="1339" d="M20 1323l443 -774v-549h373v545l483 848h-383l-289 -502l-270 530zM262 1712q0 -72 50.5 -121t119.5 -49q74 0 123 49t49 121q0 70 -49 120t-123 50q-68 0 -119 -50t-51 -120zM695 1712q0 -72 50 -121t120 -49q73 0 122.5 49t49.5 121q0 70 -49.5 120t-122.5 50 q-68 0 -119 -50t-51 -120z" />
<glyph unicode="&#x2c6;" horiz-adv-x="972" d="M20 1245l363 -41l109 127l106 -127l354 41l-356 367h-219z" />
<glyph unicode="&#x2dc;" horiz-adv-x="800" d="M20 1229h259q0 18 14 38.5t31 20.5q29 0 47 -8t47 -25q29 -18 52.5 -27t57.5 -9q106 0 179 78.5t73 248.5h-250q0 -18 -14 -38.5t-31 -20.5q-27 0 -46 8t-50 25q-29 18 -52.5 27t-55.5 9q-109 0 -185 -78.5t-76 -248.5z" />
<glyph unicode="&#x2000;" horiz-adv-x="999" />
<glyph unicode="&#x2001;" horiz-adv-x="1999" />
<glyph unicode="&#x2002;" horiz-adv-x="999" />
<glyph unicode="&#x2003;" horiz-adv-x="1999" />
<glyph unicode="&#x2004;" horiz-adv-x="666" />
<glyph unicode="&#x2005;" horiz-adv-x="499" />
<glyph unicode="&#x2006;" horiz-adv-x="333" />
<glyph unicode="&#x2007;" horiz-adv-x="333" />
<glyph unicode="&#x2008;" horiz-adv-x="249" />
<glyph unicode="&#x2009;" horiz-adv-x="399" />
<glyph unicode="&#x200a;" horiz-adv-x="111" />
<glyph unicode="&#x2010;" horiz-adv-x="720" d="M61 707l23 -293h575l-20 293h-578z" />
<glyph unicode="&#x2011;" horiz-adv-x="720" d="M61 707l23 -293h575l-20 293h-578z" />
<glyph unicode="&#x2012;" horiz-adv-x="720" d="M61 707l23 -293h575l-20 293h-578z" />
<glyph unicode="&#x2013;" horiz-adv-x="933" d="M61 707l23 -293h788l-20 293h-791z" />
<glyph unicode="&#x2014;" horiz-adv-x="1173" d="M61 707l23 -293h1028l-20 293h-1031z" />
<glyph unicode="&#x2018;" d="M61 1122q0 -96 54.5 -157.5t134.5 -61.5q78 0 133 58.5t55 130.5q0 49 -24.5 92t-63.5 67q6 25 40 55.5t67 49.5l-74 164q-137 -51 -229.5 -164t-92.5 -234z" />
<glyph unicode="&#x2019;" d="M41 1067l74 -164q137 51 229 164t92 233q0 96 -54 158t-134 62q-78 0 -133.5 -58.5t-55.5 -130.5q0 -49 25 -92t63 -68q-6 -25 -39.5 -55.5t-66.5 -48.5z" />
<glyph unicode="&#x201a;" d="M41 -152l74 -163q137 51 229 163.5t92 233.5q0 96 -54 157.5t-134 61.5q-78 0 -133.5 -58.5t-55.5 -129.5q0 -49 25 -92.5t63 -67.5q-6 -25 -39.5 -55.5t-66.5 -49.5z" />
<glyph unicode="&#x201c;" horiz-adv-x="927" d="M61 1122q0 -96 54.5 -157.5t134.5 -61.5q78 0 133 58.5t55 130.5q0 49 -24.5 92t-63.5 67q6 25 40 55.5t67 49.5l-74 164q-137 -51 -229.5 -164t-92.5 -234zM492 1122q0 -96 54 -157.5t134 -61.5q78 0 133 58.5t55 130.5q0 49 -24.5 92t-63.5 67q6 25 40 55.5t67 49.5 l-74 164q-137 -51 -229 -164t-92 -234z" />
<glyph unicode="&#x201d;" horiz-adv-x="927" d="M41 1067l74 -164q137 51 229 164t92 233q0 96 -54 158t-134 62q-78 0 -133.5 -58.5t-55.5 -130.5q0 -49 25 -92t63 -68q-6 -25 -39.5 -55.5t-66.5 -48.5zM471 1067l74 -164q137 51 229 164t92 233q0 96 -54 158t-134 62q-78 0 -133.5 -58.5t-55.5 -130.5q0 -49 25 -92 t64 -68q-6 -25 -40 -55.5t-67 -48.5z" />
<glyph unicode="&#x201e;" horiz-adv-x="927" d="M41 -152l74 -163q137 51 229 163.5t92 233.5q0 96 -54 157.5t-134 61.5q-78 0 -133.5 -58.5t-55.5 -129.5q0 -49 25 -92.5t63 -67.5q-6 -25 -39.5 -55.5t-66.5 -49.5zM471 -152l74 -163q137 51 229 163.5t92 233.5q0 96 -54 157.5t-134 61.5q-78 0 -133.5 -58.5 t-55.5 -129.5q0 -49 25 -92.5t64 -67.5q-6 -25 -40 -55.5t-67 -49.5z" />
<glyph unicode="&#x2022;" horiz-adv-x="630" d="M61 678q0 -104 74 -178t178 -74q70 0 128.5 34t93 92t34.5 126t-34.5 126t-94 93t-127.5 35q-104 0 -178 -75t-74 -179z" />
<glyph unicode="&#x2026;" horiz-adv-x="1269" d="M61 170q0 -74 49.5 -122t120.5 -48q72 0 121 48t49 122q0 72 -49 121t-121 49t-121 -49t-49 -121zM465 170q0 -74 49 -122t121 -48t121 48t49 122q0 72 -49 121t-121 49t-121 -49t-49 -121zM868 170q0 -74 49.5 -122t120.5 -48q72 0 121 48t49 122q0 72 -49 121t-121 49 t-121 -49t-49 -121z" />
<glyph unicode="&#x202f;" horiz-adv-x="399" />
<glyph unicode="&#x2039;" horiz-adv-x="552" d="M61 449l383 -330l68 278l-135 119l135 117l-68 280l-383 -331v-133z" />
<glyph unicode="&#x203a;" horiz-adv-x="552" d="M41 399l68 -280l383 332v133l-383 329l-68 -278l135 -119z" />
<glyph unicode="&#x205f;" horiz-adv-x="499" />
<glyph unicode="&#x20ac;" horiz-adv-x="1343" d="M0 651h184v39q0 37 2 55h-161l-25 238h238q80 201 256 318.5t405 117.5q106 0 218 -30.5t192 -83.5l-111 -252q-109 37 -167 49t-128 12q-68 0 -131 -35t-110 -96h374l21 -238h-486q-2 -16 -2 -53l2 -41h465l21 -237h-402q49 -66 119 -100.5t144 -34.5q137 0 264 75 l141 -278q-80 -47 -193.5 -75t-222.5 -28q-254 0 -430 118t-248 323h-204z" />
<glyph unicode="&#x2122;" horiz-adv-x="1646" d="M20 1180h220v-586h256v586h239l-24 213h-691v-213zM791 594h256v358l98 -106l106 12l76 84v-348h258v799h-182l-205 -260l-221 260h-186v-799z" />
<glyph unicode="&#x25fc;" horiz-adv-x="1024" d="M0 0v1024h1024v-1024h-1024z" />
<glyph unicode="&#xfb01;" horiz-adv-x="1501" d="M20 659h164v-659h373v659h309l-35 293h-274v52q0 61 32 97t85 36q74 0 143 -39l107 254q-39 33 -122 60.5t-153 27.5q-123 0 -229.5 -45t-171 -134.5t-64.5 -216.5v-92h-164v-293zM1010 1329q0 -82 59.5 -141.5t141.5 -59.5q84 0 144.5 59.5t60.5 141.5q0 84 -60.5 144.5 t-144.5 60.5q-82 0 -141.5 -60.5t-59.5 -144.5zM1026 0h373v993h-373v-993z" />
<glyph unicode="&#xfb02;" horiz-adv-x="1542" d="M20 659h164v-659h373v659h309l-35 293h-274v52q0 61 32 97t85 36q74 0 143 -39l107 254q-39 33 -122 60.5t-153 27.5q-123 0 -229.5 -45t-171 -134.5t-64.5 -216.5v-92h-164v-293zM1047 0h373v1446l-373 -23v-1423z" />
</font>
</defs>
</svg>
