<?xml version="1.0" standalone="no"?>
<!DOCTYPE svg PUBLIC "-//W3C//DTD SVG 1.1//EN" "http://www.w3.org/Graphics/SVG/1.1/DTD/svg11.dtd" >
<svg xmlns="http://www.w3.org/2000/svg">
<metadata></metadata>
<defs>
<font id="catamaranthin" horiz-adv-x="1171" >
<font-face units-per-em="2048" ascent="1577" descent="-471" />
<missing-glyph horiz-adv-x="491" />
<glyph horiz-adv-x="0" />
<glyph horiz-adv-x="0" />
<glyph unicode="&#xd;" horiz-adv-x="0" />
<glyph unicode=" "  horiz-adv-x="491" />
<glyph unicode="&#x09;" horiz-adv-x="491" />
<glyph unicode="&#xa0;" horiz-adv-x="491" />
<glyph unicode="!" horiz-adv-x="282" d="M61 78q0 -33 21.5 -55.5t56.5 -22.5q33 0 56.5 22.5t23.5 55.5t-23.5 55.5t-56.5 22.5q-35 0 -56.5 -22.5t-21.5 -55.5zM111 379l92 -43l18 1102h-110v-1059z" />
<glyph unicode="&#x22;" horiz-adv-x="563" d="M41 1112l33 -51q84 41 130 117.5t46 171.5q0 33 -22.5 60.5t-57.5 27.5q-37 0 -57.5 -23.5t-20.5 -56.5q0 -25 20.5 -51.5t53.5 -26.5q-2 -102 -125 -168zM293 1112l33 -51q84 41 130 117.5t46 171.5q0 33 -22.5 60.5t-57.5 27.5q-37 0 -57.5 -23.5t-20.5 -56.5 q0 -25 20.5 -51.5t53.5 -26.5q-2 -102 -125 -168z" />
<glyph unicode="#" horiz-adv-x="1017" d="M61 367l17 -80h149l-69 -279l94 -8l72 287h268l-70 -279l94 -8l72 287h268l-14 80h-233l77 313h170l-14 80h-135l67 268h-96l-67 -268h-269l68 268h-96l-68 -268h-285l17 -80h248l-78 -313h-187zM344 367l78 313h268l-78 -313h-268z" />
<glyph unicode="$" horiz-adv-x="1093" d="M102 1096q0 117 78 202.5t215 114.5v199l82 20v-211q20 4 47 4q47 0 90 -6v199l84 20v-233q90 -20 170 -59l-45 -74q-74 33 -137 51t-158 18q-143 0 -231 -73.5t-88 -182.5q0 -113 90 -195.5t281 -162.5q193 -80 281.5 -175t88.5 -230q0 -113 -64.5 -197t-187.5 -123 v-229h-84v211q-66 -10 -129 -11h-8v-200h-82v207q-88 10 -172 33.5t-110 45.5l30 80q66 -33 156 -56.5t184 -23.5q113 0 196 37t125 98.5t42 133.5q0 109 -89 188.5t-282 159.5q-188 78 -280.5 177t-92.5 243z" />
<glyph unicode="%" horiz-adv-x="1656" d="M82 1090q0 -162 87 -254.5t226 -92.5q84 0 155 43t113 122t42 182q0 164 -85 256t-227 92q-88 0 -158.5 -43t-111.5 -122t-41 -183zM178 1090q0 86 31 147t80 93t104 32q96 0 155.5 -72.5t59.5 -199.5t-62.5 -199t-150.5 -72q-90 0 -153.5 74t-63.5 197zM446 0l95 -8 l633 1454l-97 8zM952 344q0 -162 87 -254t227 -92q84 0 154.5 43t112.5 122t42 181q0 164 -85 256t-226 92q-88 0 -159 -43t-112 -121.5t-41 -183.5zM1049 344q0 127 64.5 198.5t150.5 71.5q96 0 155.5 -71.5t59.5 -198.5t-62.5 -198.5t-150.5 -71.5q-90 0 -153.5 73.5 t-63.5 196.5z" />
<glyph unicode="&#x26;" horiz-adv-x="1325" d="M102 410q0 -133 63.5 -231.5t174.5 -152t246 -53.5q125 0 230.5 55.5t176.5 151.5l199 -180l51 55l-205 191q55 92 85 202.5t30 223.5l-74 22q0 -94 -27.5 -197.5t-78.5 -189.5l-406 379q-115 109 -169 198t-54 193q0 70 35 130.5t96.5 97t136.5 36.5q82 0 128 -15 t122 -52l41 72q-55 33 -135 56t-174 23q-96 0 -176 -48t-125 -130t-45 -178q0 -127 76 -242q-102 -68 -162 -177t-60 -240zM199 414q0 106 44 195t130 151q41 -51 123 -125l432 -395q-64 -84 -150 -133.5t-186 -49.5t-190.5 44t-146.5 126t-56 187z" />
<glyph unicode="'" horiz-adv-x="311" d="M41 1112l33 -51q84 41 130 117.5t46 171.5q0 33 -22.5 60.5t-57.5 27.5q-37 0 -57.5 -23.5t-20.5 -56.5q0 -25 20.5 -51.5t53.5 -26.5q-2 -102 -125 -168z" />
<glyph unicode="(" horiz-adv-x="489" d="M102 655q0 -178 61.5 -376.5t182.5 -354.5l82 37q-57 59 -108.5 186t-82 268.5t-30.5 241.5q0 98 30.5 237.5t82 264.5t108.5 187l-82 36q-121 -154 -182.5 -352.5t-61.5 -374.5z" />
<glyph unicode=")" horiz-adv-x="489" d="M61 -39l82 -37q119 158 181.5 356.5t62.5 374.5q0 172 -62.5 372t-181.5 355l-82 -36q56 -62 107 -188t83 -266t32 -239q0 -98 -32 -239.5t-83 -267.5t-107 -185z" />
<glyph unicode="*" horiz-adv-x="641" d="M20 1337l236 -59l-162 -244l74 -33l151 232l162 -232l64 33l-162 244l238 59l-27 66l-242 -64v246h-71v-246l-236 64z" />
<glyph unicode="+" horiz-adv-x="1079" d="M61 598l17 -76h409v-506l101 -8v514h430l-21 76h-409v489l-101 7v-496h-426z" />
<glyph unicode="," horiz-adv-x="311" d="M41 -170l33 -51q84 41 130 117.5t46 171.5q0 33 -22.5 60.5t-57.5 27.5q-37 0 -57.5 -23.5t-20.5 -56.5q0 -25 20.5 -51.5t53.5 -26.5q-2 -102 -125 -168z" />
<glyph unicode="-" horiz-adv-x="636" d="M61 598l17 -80h497l-16 80h-498z" />
<glyph unicode="." horiz-adv-x="280" d="M61 78q0 -33 21.5 -55.5t56.5 -22.5q33 0 56.5 22.5t23.5 55.5t-23.5 55.5t-56.5 22.5q-35 0 -56.5 -22.5t-21.5 -55.5z" />
<glyph unicode="/" horiz-adv-x="768" d="M20 0l95 -8l633 1454l-97 8z" />
<glyph unicode="0" horiz-adv-x="1167" d="M82 590q0 -176 64.5 -317.5t179 -220.5t260.5 -79q143 0 256.5 80t178 221.5t64.5 317.5q0 170 -64.5 305t-178 212t-256.5 77q-145 0 -260 -77t-179.5 -213t-64.5 -306zM186 596q0 145 51.5 260t142.5 180.5t206 65.5q113 0 203 -66.5t141 -184.5t51 -265 q0 -152 -51 -272.5t-141.5 -188.5t-202.5 -68q-115 0 -206 70t-142.5 192.5t-51.5 276.5z" />
<glyph unicode="1" horiz-adv-x="614" d="M20 985l37 -74l293 129v-1040h101v1159h-72z" />
<glyph unicode="2" horiz-adv-x="962" d="M51 0h871l-17 80h-751l399 321q156 127 230.5 234.5t74.5 220.5q0 94 -53 169t-146.5 118t-209.5 43q-117 0 -206 -31t-165 -76l45 -69q74 43 148.5 68.5t172.5 25.5q133 0 220.5 -70.5t87.5 -179.5q0 -98 -50.5 -174t-189.5 -193l-461 -385v-102z" />
<glyph unicode="3" horiz-adv-x="915" d="M0 -49q80 -45 181.5 -76t207.5 -31q129 0 227.5 49.5t152.5 134.5t54 189q0 123 -70.5 214t-187.5 118q100 33 167 116t67 189q0 88 -43 164t-129 122t-207 46q-207 0 -397 -121l63 -64q154 100 328 101q82 0 146.5 -36t99 -94.5t34.5 -119.5q0 -119 -98 -192.5 t-268 -73.5h-70l21 -80h36q205 0 304.5 -78t99.5 -215q0 -80 -46 -145.5t-121 -102.5t-157 -37q-104 0 -176 22.5t-151 69.5z" />
<glyph unicode="4" horiz-adv-x="1048" d="M20 256l19 -104h629v-293h100v293h223l17 79h-240v938h-57zM123 231l545 732v-732h-545z" />
<glyph unicode="5" horiz-adv-x="1005" d="M82 -53q193 -102 369 -103q150 0 256 57.5t161.5 153t55.5 211.5q0 178 -106.5 294t-319.5 116q-53 0 -117 -21.5t-117 -62.5l23 487h551l6 80h-649l-31 -688h74q45 49 118.5 85t149.5 36q141 0 226 -89t85 -237q0 -152 -95 -245t-263 -93q-172 0 -328 92z" />
<glyph unicode="6" horiz-adv-x="1007" d="M82 532q0 219 99.5 385t256 262.5t330.5 118.5l37 -81q-127 -6 -262 -80t-234.5 -203t-124.5 -291q141 150 334 150q125 0 218 -56.5t141.5 -148.5t48.5 -199q0 -106 -52.5 -202.5t-144.5 -155t-209 -58.5q-199 0 -318.5 146.5t-119.5 412.5zM178 524q4 -223 91 -345 t247 -122q92 0 162 46.5t106.5 121t36.5 154.5q0 141 -82 235.5t-221 94.5q-100 0 -194.5 -55.5t-145.5 -129.5z" />
<glyph unicode="7" horiz-adv-x="878" d="M20 1159l17 -80h700l-485 -1179l94 -41l492 1241l-45 59h-773z" />
<glyph unicode="8" horiz-adv-x="1026" d="M82 346q0 -162 110.5 -267.5t321.5 -105.5q139 0 236.5 51.5t145.5 135.5t48 186q0 125 -83 223.5t-195 124.5q92 41 156.5 118t64.5 173q0 86 -40 162t-124 123t-209 47q-184 0 -279.5 -95.5t-95.5 -236.5q0 -98 62.5 -175t160.5 -116q-76 -16 -140 -71.5t-102 -129 t-38 -147.5zM186 332q0 123 85 210t243 105q156 -18 241 -106t85 -209q0 -78 -44 -140.5t-119 -98.5t-163 -36q-92 0 -167 36t-118 99.5t-43 139.5zM242 991q0 98 68.5 170t197.5 72q135 0 206.5 -70.5t71.5 -171.5q0 -86 -74.5 -160.5t-197.5 -93.5q-125 18 -198.5 91 t-73.5 163z" />
<glyph unicode="9" horiz-adv-x="1007" d="M82 768q0 106 52 202.5t144.5 155t208.5 58.5q199 0 319 -146.5t120 -412.5q0 -219 -99.5 -385t-256 -262.5t-330.5 -118.5l-37 82q127 6 262 79.5t234.5 202.5t123.5 291q-141 -150 -334 -149q-125 0 -218 56t-141 148.5t-48 198.5zM186 778q0 -141 82 -235t221 -94 q99 0 193 55t147 129q-6 225 -93 346t-244 121q-92 0 -162 -46t-107 -121t-37 -155z" />
<glyph unicode=":" horiz-adv-x="280" d="M61 172q0 -33 21.5 -55.5t56.5 -22.5q33 0 56.5 22.5t23.5 55.5t-23.5 55.5t-56.5 22.5q-35 0 -56.5 -22.5t-21.5 -55.5zM61 825q0 -33 21.5 -55t56.5 -22q33 0 56.5 22.5t23.5 54.5q0 33 -23.5 55.5t-56.5 22.5q-35 0 -56.5 -22.5t-21.5 -55.5z" />
<glyph unicode=";" horiz-adv-x="311" d="M41 -76l33 -51q84 41 130 118t46 171q0 33 -22.5 60.5t-57.5 27.5q-37 0 -57.5 -23.5t-20.5 -56.5q0 -25 20.5 -51.5t53.5 -26.5q-2 -102 -125 -168zM92 825q0 -33 21.5 -55t56.5 -22q33 0 56.5 22.5t23.5 54.5q0 33 -23.5 55.5t-56.5 22.5q-35 0 -56.5 -22.5 t-21.5 -55.5z" />
<glyph unicode="&#x3c;" horiz-adv-x="659" d="M61 473l510 -434l47 72l-462 391l462 391l-47 70l-510 -433v-57z" />
<glyph unicode="=" horiz-adv-x="1017" d="M61 367l17 -80h878l-14 80h-881zM61 760l17 -80h878l-14 80h-881z" />
<glyph unicode="&#x3e;" horiz-adv-x="659" d="M41 109l47 -70l510 432v57l-510 435l-47 -72l463 -391z" />
<glyph unicode="?" horiz-adv-x="802" d="M20 1313l17 -84q92 66 164.5 95.5t175.5 29.5q119 0 187.5 -66.5t68.5 -187.5q0 -117 -93.5 -211t-254.5 -146l14 -419l68 -43l20 399q168 74 261 188.5t93 233.5q0 154 -92 245t-268 91q-113 0 -207 -36t-154 -89zM238 78q0 -33 21.5 -55.5t55.5 -22.5q33 0 56.5 22.5 t23.5 55.5t-23.5 55.5t-56.5 22.5q-34 0 -55.5 -22.5t-21.5 -55.5z" />
<glyph unicode="@" horiz-adv-x="1556" d="M82 436q0 -190 86 -333.5t230.5 -221.5t314.5 -78q233 0 383 78l-27 78q-61 -35 -152.5 -53.5t-181.5 -18.5q-154 0 -278.5 68t-197.5 192.5t-73 290.5q0 205 85 362.5t235.5 245t341.5 87.5q162 0 281.5 -66t183 -184.5t63.5 -274.5q0 -195 -64.5 -297t-164.5 -102 q-119 0 -119 127q0 25 2 39l49 411l-32 41h-146q-119 0 -218 -51t-158.5 -141t-59.5 -203q0 -131 89 -214t232 -83q47 0 100.5 19.5t92.5 48.5q57 -78 164 -78q156 0 244 128t88 370q0 170 -79 305t-219.5 212t-322.5 77q-242 0 -416 -104.5t-265 -283t-91 -393.5zM569 432 q0 96 44 169t118 112t160 39h92l-47 -363q-4 -33 -4 -53q0 -43 14 -80q-27 -18 -72 -31.5t-88 -13.5q-98 0 -157.5 59.5t-59.5 161.5z" />
<glyph unicode="A" d="M20 0h101l158 436h604l166 -448l102 22l-530 1383h-95zM307 516l268 741l279 -741h-547z" />
<glyph unicode="B" horiz-adv-x="1157" d="M205 0h346q237 0 380.5 90t143.5 295q0 139 -74.5 227t-209.5 129q92 45 149 118t57 171q0 197 -132 280t-369 83h-291v-1393zM307 80v602h291q174 0 272.5 -75t98.5 -226q0 -154 -108.5 -227.5t-285.5 -73.5h-268zM307 762v551h213q178 0 274.5 -66.5t96.5 -218.5 q0 -137 -110.5 -200.5t-286.5 -65.5h-187z" />
<glyph unicode="C" horiz-adv-x="1132" d="M102 688q0 -197 69 -359.5t209 -260t345 -97.5q86 0 187.5 22.5t158.5 53.5l-49 74q-66 -29 -136.5 -45.5t-170.5 -16.5q-154 0 -267.5 86t-173 230.5t-59.5 314.5q0 193 67.5 338.5t185.5 224t265 80.5q100 0 159.5 -14t137.5 -47l41 74q-51 34 -154.5 54.5t-179.5 20.5 q-195 0 -339 -97t-220 -264t-76 -372z" />
<glyph unicode="D" horiz-adv-x="1355" d="M205 0h452q197 0 331 93t199.5 253t65.5 359q0 307 -143 497.5t-446 190.5h-459v-1393zM305 80v1233h375q154 0 259 -82t157.5 -220.5t52.5 -308.5q0 -178 -61.5 -319t-173 -222t-255.5 -81h-354z" />
<glyph unicode="E" horiz-adv-x="1013" d="M205 0h768l-12 80h-656v594h502l-10 80h-492v559h621l-11 80h-710v-1393z" />
<glyph unicode="F" horiz-adv-x="948" d="M205 0h100v666h481l-12 79h-469v568h602l-14 80h-688v-1393z" />
<glyph unicode="G" horiz-adv-x="1257" d="M102 688q0 -205 82 -367.5t236.5 -256t361.5 -93.5q88 0 189.5 27t158.5 65v637h-401l-12 -79h313v-515q-129 -47 -250 -47q-162 0 -291 81t-201.5 224.5t-72.5 323.5q0 186 76 333.5t209 231.5t299 84q98 0 159.5 -14t137.5 -45l39 68q-51 35 -158 55t-182 20 q-197 0 -355.5 -94t-248 -261t-89.5 -378z" />
<glyph unicode="H" horiz-adv-x="1341" d="M205 0h100v666h731v-666h101v1393h-101v-648h-731v658l-100 -10v-1393z" />
<glyph unicode="I" horiz-adv-x="509" d="M205 0h100v1393h-100v-1393z" />
<glyph unicode="J" horiz-adv-x="485" d="M20 -143l50 -66q98 29 147 66t66.5 89t17.5 140v1307h-100v-1293q0 -82 -16.5 -125t-52.5 -66.5t-112 -51.5z" />
<glyph unicode="K" horiz-adv-x="1187" d="M205 0v1393h100v-727l688 757l70 -65l-512 -545l616 -813h-127l-557 741l-178 -190v-551h-100z" />
<glyph unicode="L" horiz-adv-x="1005" d="M205 0h780l-10 80h-670v1313h-100v-1393z" />
<glyph unicode="M" horiz-adv-x="1480" d="M205 0h100v1149l418 -647l41 8l412 649v-1159h100v1393h-55l-482 -742l-489 742h-45v-1393z" />
<glyph unicode="N" horiz-adv-x="1347" d="M205 0h100v1176l29 -60l753 -1116h56v1393h-101v-1166l-69 121l-711 1045h-57v-1393z" />
<glyph unicode="O" horiz-adv-x="1447" d="M102 690q0 -207 79 -370.5t220.5 -256t317.5 -92.5q178 0 321.5 95.5t224.5 262.5t81 378q0 207 -79 370.5t-219.5 255.5t-316.5 92q-180 0 -323.5 -95t-224.5 -262t-81 -378zM215 692q0 185 66.5 332t184.5 231t267 84q143 0 257 -81.5t178.5 -226t64.5 -326.5 q0 -186 -66.5 -334t-184.5 -232t-267 -84q-143 0 -257 82t-178.5 227.5t-64.5 327.5z" />
<glyph unicode="P" horiz-adv-x="1122" d="M205 0h100v541h211q231 0 377.5 108.5t146.5 323.5q0 217 -135 318.5t-366 101.5h-334v-1393zM305 621v690h258q176 0 275.5 -83t99.5 -257q0 -168 -112.5 -259t-284.5 -91h-236z" />
<glyph unicode="Q" horiz-adv-x="1447" d="M102 690q0 211 81 378t224.5 262t323.5 95q176 0 316.5 -92t219.5 -256t79 -370q0 -160 -48.5 -298.5t-136.5 -238.5l170 -168l-65 -51l-168 158q-78 -68 -174.5 -103t-204.5 -35q-176 0 -317.5 92.5t-220.5 256t-79 370.5zM215 692q0 -182 64.5 -327.5t178 -227.5 t257.5 -82q180 0 311 119l-197 186l70 68l191 -186q68 88 105.5 206.5t37.5 256.5q0 182 -64.5 326.5t-178 226t-257.5 81.5q-150 0 -267.5 -84t-184 -231t-66.5 -332z" />
<glyph unicode="R" d="M205 0h100v586h211q102 0 186 20l336 -606h113l-363 633q117 45 184.5 136t67.5 226q0 209 -134 303.5t-367 94.5h-334v-1393zM305 666v645h238q176 0 285.5 -76t109.5 -244q0 -162 -123 -243.5t-295 -81.5h-215z" />
<glyph unicode="S" horiz-adv-x="1032" d="M102 1096q0 -143 92.5 -242.5t280.5 -177.5q193 -80 282 -160t89 -188q0 -72 -42 -133.5t-125 -98.5t-196 -37q-94 0 -184 23.5t-156 56.5l-30 -80q34 -30 158 -58t214 -28q221 0 343 95.5t122 253.5q0 135 -89 230t-281 175q-190 80 -280.5 163t-90.5 195 q0 109 88 182.5t231 73.5q94 0 158 -18t137 -51l45 74q-70 35 -158.5 57t-185.5 22q-129 0 -224 -43t-146.5 -117.5t-51.5 -168.5z" />
<glyph unicode="T" horiz-adv-x="1093" d="M20 1313h476v-1313h100v1313h477l-10 80h-1043v-80z" />
<glyph unicode="U" horiz-adv-x="1347" d="M184 489q0 -150 57.5 -266.5t168 -182t264.5 -65.5q156 0 265.5 65.5t166.5 182.5t57 266v904h-100v-910q0 -119 -47 -216t-135 -152.5t-207 -55.5q-115 0 -204 56.5t-137 153t-48 214.5v910h-101v-904z" />
<glyph unicode="V" d="M20 1380l531 -1382h94l506 1393h-100l-455 -1258l-473 1270z" />
<glyph unicode="W" horiz-adv-x="1662" d="M20 1380l103 23l350 -1241l311 1229h101l346 -1229l311 1229h100l-362 -1393h-94l-352 1216l-312 -1216h-94z" />
<glyph unicode="X" horiz-adv-x="1071" d="M20 0h119l396 637l395 -637h121l-441 690l441 703h-111l-385 -617l-379 639l-98 -47l407 -651z" />
<glyph unicode="Y" horiz-adv-x="1085" d="M20 1368l461 -817v-551h101v561l483 832h-117l-418 -736l-409 754z" />
<glyph unicode="Z" horiz-adv-x="1103" d="M61 102l13 -102h958l-10 80h-860l880 1212l-10 101h-936l21 -80h831z" />
<glyph unicode="[" horiz-adv-x="542" d="M205 -180h317l-16 80h-201v1446h201l16 79h-317v-1605z" />
<glyph unicode="\" horiz-adv-x="768" d="M20 1446l631 -1454l97 8l-631 1454z" />
<glyph unicode="]" horiz-adv-x="542" d="M20 -180h318v1605h-318l17 -79h201v-1446h-201z" />
<glyph unicode="^" horiz-adv-x="854" d="M20 293h99l299 420l297 -420h98l-352 506h-88z" />
<glyph unicode="_" horiz-adv-x="878" d="M61 80l17 -80h739l-16 80h-740z" />
<glyph unicode="`" horiz-adv-x="280" d="M20 1520l175 -314l65 23l-115 291h-125z" />
<glyph unicode="a" horiz-adv-x="972" d="M106 279q0 -135 86.5 -220.5t247.5 -85.5q90 0 170 37t133 96l17 -106h78v696q0 150 -89.5 237t-254.5 87q-68 0 -166.5 -24.5t-151.5 -61.5l39 -68q76 37 135.5 53.5t149.5 16.5q117 0 177 -64.5t60 -173.5v-123h-276q-158 0 -256.5 -78.5t-98.5 -217.5zM211 279 q0 98 64.5 159.5t193.5 61.5h268v-277q-51 -76 -123.5 -121t-164.5 -45q-109 0 -173.5 63.5t-64.5 158.5z" />
<glyph unicode="b" horiz-adv-x="1048" d="M164 0v1425l100 21v-533q119 106 275 107q213 0 320.5 -143.5t107.5 -384.5q0 -231 -115 -375t-328 -144q-70 0 -143.5 31t-130.5 76l-29 -80h-57zM264 170q125 -113 264 -113q107 0 181.5 58.5t113.5 157t39 216.5q0 195 -82 321t-241 126q-90 0 -151.5 -34t-123.5 -99 v-633z" />
<glyph unicode="c" horiz-adv-x="919" d="M82 502q0 -238 116.5 -383.5t331.5 -145.5q68 0 157 23.5t149 60.5l-41 70q-11 -4 -55 -26.5t-95 -33t-115 -10.5q-109 0 -186.5 59.5t-117.5 161t-40 226.5q0 117 43 216t124 157.5t188 58.5q82 0 137 -17.5t127 -52.5l41 68q-57 37 -147.5 61.5t-153.5 24.5 q-143 0 -247.5 -66.5t-160 -184.5t-55.5 -267z" />
<glyph unicode="d" horiz-adv-x="1048" d="M82 502q0 231 114.5 374.5t327.5 143.5q66 0 134.5 -26.5t125.5 -67.5v499l101 19v-1444h-56l-36 88q-125 -115 -283 -115q-213 0 -320.5 143.5t-107.5 385.5zM186 504q0 -195 82 -321t242 -126q90 0 151.5 34t122.5 99v633q-125 113 -264 113q-106 0 -181 -58.5 t-114 -156.5t-39 -217z" />
<glyph unicode="e" horiz-adv-x="983" d="M82 502q0 -242 117.5 -385.5t353.5 -143.5q70 0 165 21.5t152 56.5l-41 76q-63 -33 -128.5 -51.5t-163.5 -18.5q-174 0 -261.5 123t-89.5 316h715q0 149 -48 269t-136 187.5t-201 67.5q-211 0 -322.5 -142.5t-111.5 -375.5zM190 571q15 158 93.5 261.5t218.5 103.5 q137 0 206.5 -101.5t86.5 -263.5h-605z" />
<glyph unicode="f" horiz-adv-x="540" d="M41 887h149v-887h101v887h223l-43 76h-180v223q0 168 141 168q18 0 45 -6.5t39 -12.5l25 76q-70 27 -135 27q-106 0 -161 -76t-55 -209v-190h-149v-76z" />
<glyph unicode="g" horiz-adv-x="1040" d="M82 502q0 231 114.5 374.5t327.5 143.5q72 0 148 -33t133 -78l24 84h56v-1120q0 -154 -102.5 -249t-290.5 -95q-70 0 -177.5 24.5t-160.5 59.5l39 72q82 -37 145 -54.5t149 -17.5q131 0 214 61.5t83 178.5v227q-119 -106 -274 -107q-213 0 -320.5 143.5t-107.5 385.5z M186 504q0 -195 82 -321t242 -126q90 0 151.5 34t122.5 99v633q-125 113 -264 113q-106 0 -181 -58.5t-114 -156.5t-39 -217z" />
<glyph unicode="h" horiz-adv-x="1044" d="M164 0v1425l100 21v-606q66 76 163 128t187 52q152 0 223.5 -89t71.5 -241v-690h-100v690q0 115 -41 180.5t-145 65.5q-162 0 -359 -201v-735h-100z" />
<glyph unicode="i" horiz-adv-x="387" d="M115 1307q0 -33 21.5 -55.5t56.5 -22.5q34 0 56.5 22.5t22.5 55.5t-23.5 55t-55.5 22q-35 0 -56.5 -22.5t-21.5 -54.5zM143 0h101v993h-101v-993z" />
<glyph unicode="j" horiz-adv-x="421" d="M0 -375q70 27 102.5 57.5t44 76.5t11.5 130v1104h100v-1120q0 -94 -15.5 -151.5t-62.5 -98.5t-143 -72zM129 1307q0 33 21.5 55t56.5 22q33 0 56.5 -22.5t23.5 -54.5q0 -33 -22.5 -55.5t-57.5 -22.5t-56.5 22.5t-21.5 55.5z" />
<glyph unicode="k" horiz-adv-x="919" d="M164 0h100v422l152 151l383 -573h121l-437 641l318 315l-76 64l-461 -479v905l-100 -21v-1425z" />
<glyph unicode="l" horiz-adv-x="428" d="M164 0h100v1446l-100 -21v-1425z" />
<glyph unicode="m" horiz-adv-x="1589" d="M143 0v993h78l21 -155q63 74 163.5 128t178.5 54q201 0 256 -180q63 74 162.5 127t177.5 53q143 0 208.5 -88t65.5 -242v-690h-100v690q0 119 -35 182.5t-131 63.5q-143 0 -332 -184q2 -20 2 -62v-690h-100v690q0 119 -35 182.5t-131 63.5q-78 0 -167 -54.5t-181 -146.5 v-735h-101z" />
<glyph unicode="n" horiz-adv-x="1024" d="M143 0h101v735q196 201 358 201q104 0 145 -65.5t41 -180.5v-690h101v690q0 152 -72 241t-223 89q-90 0 -188.5 -53.5t-163.5 -128.5l-21 155h-78v-993z" />
<glyph unicode="o" horiz-adv-x="1071" d="M82 502q0 147 54 265t158.5 185.5t248.5 67.5q215 -2 330.5 -146.5t115.5 -381.5q0 -148 -54 -265.5t-158.5 -185.5t-246.5 -68q-215 2 -331.5 146.5t-116.5 382.5zM186 504q0 -125 40 -226.5t118 -161t186 -59.5q107 0 188 58.5t124 158t43 215.5q0 125 -40 226.5 t-118 161t-186 59.5q-106 0 -187.5 -58.5t-124.5 -157.5t-43 -216z" />
<glyph unicode="p" horiz-adv-x="1040" d="M156 -449v1442h57l29 -94q127 121 288 121q213 0 320.5 -143.5t107.5 -384.5q0 -231 -114.5 -375t-327.5 -144q-66 0 -134.5 27t-125.5 68v-494zM256 170q125 -113 264 -113q107 0 181.5 58.5t113.5 157t39 216.5q0 195 -82 321t-242 126q-90 0 -151.5 -34t-122.5 -99 v-633z" />
<glyph unicode="q" horiz-adv-x="1040" d="M82 502q0 231 114.5 374.5t327.5 143.5q72 0 146.5 -32t132.5 -77l26 82h56v-1419l-101 -23v529q-121 -106 -274 -107q-213 0 -320.5 143.5t-107.5 385.5zM186 504q0 -195 82 -321t242 -126q90 0 151.5 34t122.5 99v633q-125 113 -264 113q-106 0 -181 -58.5t-114 -156.5 t-39 -217z" />
<glyph unicode="r" horiz-adv-x="618" d="M143 0h101v731q63 70 164.5 127t189.5 57l-35 78q-70 0 -163 -50t-162 -107l-37 157h-58v-993z" />
<glyph unicode="s" horiz-adv-x="831" d="M86 51q53 -35 142 -56.5t159 -21.5q362 0 363 279q0 96 -81 166.5t-220 126.5q-119 47 -184.5 96t-65.5 113q0 74 64.5 128t166.5 54q80 0 131 -17.5t123 -52.5l41 72q-49 35 -132 58.5t-149 23.5q-162 0 -252 -77t-90 -198q0 -164 289 -276q262 -102 262 -225 q0 -86 -69.5 -136.5t-192.5 -50.5q-70 0 -132 20.5t-136 57.5z" />
<glyph unicode="t" horiz-adv-x="598" d="M41 887h147v-649q0 -127 57.5 -196t155.5 -69q39 0 80 11q49 14 56 14l-25 78q-43 -18 -84 -19q-70 0 -104.5 56.5t-34.5 138.5v635h223l-43 76h-180v313l-101 -45v-268h-147v-76z" />
<glyph unicode="u" horiz-adv-x="1024" d="M135 303q0 -152 72 -241t223 -89q90 0 188.5 53.5t163.5 129.5l21 -156h78v993h-101v-735q-196 -201 -358 -201q-104 0 -145 65.5t-41 180.5v690h-101v-690z" />
<glyph unicode="v" horiz-adv-x="880" d="M20 971l375 -971h97l368 993h-102l-316 -878l-327 893z" />
<glyph unicode="w" horiz-adv-x="1314" d="M20 969l293 -969h97l235 838l258 -838h96l295 993h-102l-238 -862l-258 862h-86l-252 -862l-243 875z" />
<glyph unicode="x" horiz-adv-x="829" d="M20 0h115l266 424l269 -424h112l-301 475l328 518h-111l-270 -446l-278 465l-89 -41l289 -471z" />
<glyph unicode="y" horiz-adv-x="880" d="M20 969l375 -969l-63 -201q-25 -65 -73 -104t-130 -66l10 -78q98 20 170 78t103 142l448 1222h-102l-316 -878l-327 891z" />
<glyph unicode="z" horiz-adv-x="884" d="M57 63l17 -63h741l-20 76h-633l665 852l-6 65h-704l33 -75h567z" />
<glyph unicode="{" horiz-adv-x="542" d="M61 590h68q63 0 111.5 -49t48.5 -123q0 -63 -37 -148q-37 -82 -37 -147q0 -100 64.5 -157.5t189.5 -57.5h53l-18 80h-39q-70 0 -109 37.5t-39 85.5q0 59 39 145t39 143q0 84 -38 143.5t-93 86.5q55 26 93 85.5t38 143.5q0 57 -39 143t-39 146q0 47 39 85t109 38h39l18 80 h-53q-125 0 -189.5 -57.5t-64.5 -157.5q0 -63 37 -148q37 -82 37 -147q0 -74 -48 -123t-112 -49h-68v-78z" />
<glyph unicode="|" horiz-adv-x="509" d="M205 0l100 -8v1454l-100 8v-1454z" />
<glyph unicode="}" horiz-adv-x="542" d="M20 -92h54q125 0 189.5 57.5t64.5 157.5q0 66 -37 147q-37 84 -37 148q0 74 48 123t112 49h67v78h-67q-63 0 -111.5 49t-48.5 123q0 66 37 147q37 84 37 148q0 100 -64.5 157.5t-189.5 57.5h-54l19 -80h39q70 0 108.5 -38t38.5 -85q0 -59 -39 -146q-39 -86 -39 -143 q0 -84 38 -143.5t94 -85.5q-56 -27 -94 -86.5t-38 -143.5q0 -57 39 -143t39 -145q0 -47 -39 -85t-108 -38h-39z" />
<glyph unicode="~" horiz-adv-x="765" d="M61 440h82q0 37 29 61.5t68 24.5q72 0 145 -49q74 -49 143 -49q80 0 128.5 46t48.5 118h-82q0 -37 -29 -61.5t-68 -24.5q-53 0 -127 49t-159 49q-80 0 -129.5 -45t-49.5 -119z" />
<glyph unicode="&#xa1;" horiz-adv-x="282" d="M61 0h111v1059l-92 43zM63 1360q0 -33 24 -55.5t56 -22.5q35 0 56.5 22.5t21.5 55.5t-21.5 55.5t-56.5 22.5q-33 0 -56.5 -22.5t-23.5 -55.5z" />
<glyph unicode="&#xa2;" horiz-adv-x="919" d="M82 502q0 213 108.5 354t301.5 162v201l90 20v-221q63 -6 138 -29.5t126 -54.5l-41 -68q-72 35 -127 52.5t-137 17.5q-106 0 -187.5 -58.5t-124.5 -157.5t-43 -216q0 -125 40 -226.5t118 -161t186 -59.5q63 0 108.5 9.5t83.5 26t73 34.5l41 -70q-50 -30 -120.5 -51.5 t-133.5 -28.5v-204h-90v202q-197 14 -303.5 156.5t-106.5 370.5z" />
<glyph unicode="&#xa3;" horiz-adv-x="872" d="M123 760l4 -76h145v-434q0 -168 -133 -170l4 -80h709l-12 80h-537q41 35 55.5 85t14.5 128v391h332l-46 76h-286v389q0 168 141 168q18 0 45 -6t39 -13l25 76q-70 27 -136 27q-106 0 -160.5 -76t-54.5 -209v-356h-149z" />
<glyph unicode="&#xa4;" horiz-adv-x="1353" d="M61 -45l60 -66l215 209q131 -125 330 -125q102 0 191 35t153 96l223 -215l59 66l-221 217q51 66 78 147.5t27 169.5q0 92 -26 177.5t-73 154.5l215 213l-59 66l-215 -209q-133 129 -332 129q-102 0 -191 -34t-157 -97l-217 211l-60 -66l218 -213q-100 -135 -101 -317 q0 -197 98 -336zM283 504q0 115 52 214t144 158.5t207 59.5q119 0 206 -60.5t133 -163t46 -223.5q0 -118 -52 -216.5t-144.5 -157t-208.5 -58.5q-109 0 -197 58.5t-137 160t-49 228.5z" />
<glyph unicode="&#xa5;" horiz-adv-x="1085" d="M20 1368l101 43l409 -754l418 736h117l-455 -783h338l10 -80h-376v-266h366l10 -80h-376v-184h-101v184h-344l-10 80h354v266h-344l-10 80h322z" />
<glyph unicode="&#xa6;" horiz-adv-x="509" d="M205 0l100 -8v598l-100 8v-598zM205 840l100 -9v615l-100 8v-614z" />
<glyph unicode="&#xa7;" horiz-adv-x="1167" d="M102 879q0 84 40 152.5t116 111.5q-20 55 -20 125q0 94 51 168.5t146 117.5t224 43q96 0 185.5 -22.5t159.5 -56.5l-46 -74q-74 33 -137 51t-157 18q-143 0 -231.5 -73.5t-88.5 -182.5q0 -113 90 -195.5t281 -162.5q193 -80 281.5 -175t88.5 -230q0 -88 -38.5 -159 t-114.5 -116q18 -53 18 -115q0 -158 -121.5 -253t-343.5 -95q-90 0 -214 28t-158 58l30 80q66 -33 156 -56.5t184 -23.5q113 0 196 37t125 98.5t42 133.5q0 109 -89 188.5t-282 159.5q-188 78 -280.5 177t-92.5 243zM209 868q0 -113 90 -195.5t281 -162.5q221 -92 303 -201 q49 35 73.5 84t24.5 107q0 109 -89 188.5t-282 159.5q-223 94 -307 209q-45 -35 -69.5 -84t-24.5 -105z" />
<glyph unicode="&#xa8;" horiz-adv-x="518" d="M20 1341q0 -33 20.5 -54t55.5 -21q31 0 53.5 21.5t22.5 53.5q0 31 -22.5 52.5t-53.5 21.5q-35 0 -55.5 -20.5t-20.5 -53.5zM346 1341q0 -33 20.5 -54t55.5 -21q31 0 53.5 21.5t22.5 53.5q0 31 -22.5 52.5t-53.5 21.5q-35 0 -55.5 -20.5t-20.5 -53.5z" />
<glyph unicode="&#xa9;" horiz-adv-x="1611" d="M82 688q0 -203 87 -364.5t251 -255t385 -93.5q213 0 378 93.5t256 256t91 363.5q0 203 -91 367t-256 257t-378 93q-215 0 -380 -93t-254 -257t-89 -367zM178 690q0 180 78 324.5t220 228.5t329 84q186 0 329.5 -84t221.5 -229.5t78 -323.5t-78 -324.5t-221.5 -230.5 t-329.5 -84t-328.5 84t-220.5 229.5t-78 325.5zM410 698q0 -143 56 -245.5t152.5 -154.5t212.5 -52q64 0 141 24.5t120 61.5l-41 63q-111 -70 -224 -69q-139 0 -228 101t-89 271t89 271.5t228 101.5q113 0 224 -70l41 64q-43 37 -120 61.5t-141 24.5q-117 0 -213 -52 t-152 -154.5t-56 -246.5z" />
<glyph unicode="&#xaa;" horiz-adv-x="679" d="M82 954q0 -90 63.5 -150.5t171.5 -60.5q53 0 105.5 26t87.5 67l22 -74h66v426q0 104 -68.5 177t-191.5 73q-45 0 -109.5 -17.5t-101.5 -42.5l25 -65q12 4 43.5 17t66.5 20.5t78 7.5q80 0 122 -42t42 -114v-47h-176q-106 0 -176 -54t-70 -147zM174 954q0 60 44 99t128 39 h158v-177q-33 -47 -82 -74.5t-105 -27.5q-63 0 -103 44t-40 97z" />
<glyph unicode="&#xab;" horiz-adv-x="743" d="M61 469l287 -297l43 64l-250 266l250 266l-43 63l-287 -296v-66zM373 469l286 -297l43 64l-251 266l251 266l-43 63l-286 -296v-66z" />
<glyph unicode="&#xac;" horiz-adv-x="1034" d="M20 831l17 -79h835v-512l101 -11v500l-17 102h-936z" />
<glyph unicode="&#xad;" horiz-adv-x="245" />
<glyph unicode="&#xae;" horiz-adv-x="1464" d="M82 997q0 -178 83 -322.5t231.5 -227t336.5 -82.5t336 82.5t230.5 227t82.5 322.5q0 179 -82.5 324t-230 229t-336.5 84q-193 0 -340 -83t-229 -228t-82 -326zM180 999q0 158 68.5 285t193.5 199.5t291 72.5q164 0 289 -72.5t192.5 -199.5t67.5 -285q0 -156 -68.5 -282.5 t-192.5 -201.5t-288 -75q-166 0 -291 75t-193.5 202t-68.5 282zM526 623h82v323h86q20 0 31 2h29l184 -325h96l-200 338q63 26 106 81.5t43 128.5q0 115 -74.5 168.5t-203.5 53.5h-179v-770zM608 1012v313h82q101 0 153 -31.5t52 -124.5q0 -158 -215 -157h-72z" />
<glyph unicode="&#xaf;" horiz-adv-x="534" d="M20 1311h494l-12 75h-482v-75z" />
<glyph unicode="&#xb0;" horiz-adv-x="497" d="M20 1227q0 -92 61.5 -149.5t156.5 -57.5q94 0 156.5 57.5t62.5 149.5q0 88 -63.5 149.5t-155.5 61.5q-93 0 -155.5 -61.5t-62.5 -149.5zM102 1229q0 55 38 99t98 44q59 0 99 -45t40 -98q0 -57 -34 -101.5t-97 -44.5q-64 0 -104 45.5t-40 100.5z" />
<glyph unicode="&#xb1;" horiz-adv-x="1007" d="M61 76l17 -76h868l-16 76h-869zM61 707l17 -76h366v-400l101 -10v410h387l-17 76h-370v380l-101 7v-387h-383z" />
<glyph unicode="&#xb2;" horiz-adv-x="700" d="M51 688h608l-12 68h-491l268 237q111 100 159 179t48 165q0 59 -31 115.5t-94.5 91.5t-153.5 35q-69 0 -152 -23.5t-141 -54.5l35 -63q164 70 254 69q94 0 142.5 -57t48.5 -125q0 -49 -33 -113q-35 -66 -135 -157l-320 -291v-76z" />
<glyph unicode="&#xb3;" horiz-adv-x="724" d="M0 651q61 -35 137 -58.5t156 -23.5q158 0 249 80t91 203q0 98 -48 163.5t-134 86.5q72 25 117.5 87t45.5 144q0 106 -75.5 176t-221.5 70q-88 0 -158.5 -23.5t-140.5 -66.5l45 -62q121 78 252 78q90 0 147.5 -51t57.5 -123q0 -92 -62.5 -146.5t-185.5 -54.5h-75l14 -67 h51q154 0 216.5 -53.5t62.5 -159.5q0 -90 -72 -145.5t-168 -55.5q-82 0 -137 16.5t-115 51.5z" />
<glyph unicode="&#xb4;" horiz-adv-x="280" d="M20 1229l66 -23l174 314h-125z" />
<glyph unicode="&#xb5;" horiz-adv-x="1044" d="M156 -449v1442h100v-690q0 -115 41 -180.5t145 -65.5q162 0 359 201v735h100v-993h-78l-20 156q-66 -76 -164 -129.5t-188 -53.5q-119 0 -195 60v-459z" />
<glyph unicode="&#xb6;" horiz-adv-x="1654" d="M82 973q0 -137 69.5 -235.5t188.5 -147.5t266 -49h78v-541h100v1313h459v-1313h100v1313h230v80h-989q-229 0 -365.5 -106.5t-136.5 -313.5z" />
<glyph unicode="&#xb7;" horiz-adv-x="280" d="M61 537q0 -33 21.5 -55.5t56.5 -22.5q33 0 56.5 22.5t23.5 55.5t-23.5 55t-56.5 22q-35 0 -56.5 -22.5t-21.5 -54.5z" />
<glyph unicode="&#xb8;" horiz-adv-x="421" d="M20 -414q25 -16 72 -27.5t86 -11.5q100 0 161.5 48.5t61.5 125.5q0 57 -49 107.5t-137 67.5l51 131h-84l-69 -185q92 0 147 -39t55 -86q0 -39 -41 -67.5t-102 -28.5q-51 0 -121 29z" />
<glyph unicode="&#xb9;" horiz-adv-x="491" d="M20 1434l48 -52l172 84v-778h88v879h-49z" />
<glyph unicode="&#xba;" horiz-adv-x="704" d="M41 1090q0 -106 43 -185.5t113.5 -120.5t154.5 -41t155 43t114 122t43 182q0 106 -43 185t-115 121t-156 42q-82 0 -152.5 -43t-113.5 -123t-43 -182zM133 1090q0 86 31 148t81 95t105 33q96 0 158.5 -74.5t62.5 -201.5q0 -86 -30.5 -147.5t-81.5 -93.5t-107 -32 q-90 0 -154.5 75t-64.5 198z" />
<glyph unicode="&#xbb;" horiz-adv-x="743" d="M41 236l43 -64l287 297v66l-287 296l-43 -63l252 -266zM352 236l43 -64l287 297v66l-287 296l-43 -63l250 -266z" />
<glyph unicode="&#xbc;" horiz-adv-x="1454" d="M20 1434l48 -52l172 84v-778h88v879h-49zM51 -274h103l1026 1708h-93zM664 -63l8 -70h477v-201h90v201h166l8 70h-174v720h-57zM760 -63l389 550v-550h-389z" />
<glyph unicode="&#xbd;" horiz-adv-x="1552" d="M20 1434l48 -52l172 84v-778h88v879h-49zM72 -274h102l1026 1708h-92zM903 -150v-75h608l-12 67h-491l268 238q111 100 159 179t48 165q0 59 -31 115.5t-94.5 91.5t-153.5 35q-69 0 -152 -24t-141 -54l35 -64q164 70 254 70q94 0 142.5 -57.5t48.5 -124.5q0 -49 -33 -113 q-35 -66 -135 -158z" />
<glyph unicode="&#xbe;" horiz-adv-x="1583" d="M0 651q61 -35 137 -58.5t156 -23.5q158 0 249 80t91 203q0 98 -48 163.5t-134 86.5q72 25 117.5 87t45.5 144q0 106 -75.5 176t-221.5 70q-88 0 -158.5 -23.5t-140.5 -66.5l45 -62q121 78 252 78q90 0 147.5 -51t57.5 -123q0 -92 -62.5 -146.5t-185.5 -54.5h-75l14 -67 h51q154 0 216.5 -53.5t62.5 -159.5q0 -90 -72 -145.5t-168 -55.5q-82 0 -137 16.5t-115 51.5zM236 -274h102l1026 1708h-92zM793 -63l8 -70h477v-201h90v201h166l8 70h-174v720h-57zM889 -63l389 550v-550h-389z" />
<glyph unicode="&#xbf;" horiz-adv-x="802" d="M61 172q0 -154 92.5 -245t268.5 -91q113 0 207 36t153 89l-16 84q-92 -66 -165 -95.5t-175 -29.5q-119 0 -187.5 66.5t-68.5 187.5q0 117 93 211t255 145l-14 420l-68 43l-20 -399q-168 -74 -261.5 -188.5t-93.5 -233.5zM408 1196q0 -33 23.5 -55.5t55.5 -22.5 q35 0 56.5 22.5t21.5 55.5t-21.5 55.5t-56.5 22.5q-33 0 -56 -22.5t-23 -55.5z" />
<glyph unicode="&#xc0;" d="M20 0h101l158 436h604l166 -448l102 22l-530 1383h-95zM307 516l268 741l279 -741h-547zM411 1827l175 -314l65 23l-115 291h-125z" />
<glyph unicode="&#xc1;" d="M20 0h101l158 436h604l166 -448l102 22l-530 1383h-95zM307 516l268 741l279 -741h-547zM489 1536l66 -23l174 314h-125z" />
<glyph unicode="&#xc2;" d="M20 0h101l158 436h604l166 -448l102 22l-530 1383h-95zM307 516l268 741l279 -741h-547zM329 1536l84 -20l177 241l170 -241l84 28l-216 285h-81z" />
<glyph unicode="&#xc3;" d="M20 0h101l158 436h604l166 -448l102 22l-530 1383h-95zM278 1561h80q10 109 93 108q51 0 106 -57q53 -59 123 -60q74 0 122 47.5t48 139.5h-78q-4 -49 -27.5 -79t-64.5 -30q-51 0 -98 60q-45 57 -134 57q-74 0 -122 -47t-48 -139zM307 516l268 741l279 -741h-547z" />
<glyph unicode="&#xc4;" d="M20 0h101l158 436h604l166 -448l102 22l-530 1383h-95zM307 516l268 741l279 -741h-547zM331 1649q0 -33 20.5 -54.5t55.5 -21.5q31 0 53.5 21.5t22.5 54.5q0 31 -22.5 52t-53.5 21q-35 0 -55.5 -20.5t-20.5 -52.5zM657 1649q0 -33 20.5 -54.5t55.5 -21.5q31 0 53.5 21.5 t22.5 54.5q0 31 -22.5 52t-53.5 21q-35 0 -55.5 -20.5t-20.5 -52.5z" />
<glyph unicode="&#xc5;" d="M20 0h101l158 436h604l166 -448l102 22l-530 1383h-95zM307 516l268 741l279 -741h-547zM389 1690q0 -72 53.5 -119t129.5 -47t128 47t52 119q0 74 -53.5 123t-126.5 49q-74 0 -128.5 -49.5t-54.5 -122.5zM469 1690q0 47 29 77.5t74 30.5t72.5 -30.5t27.5 -77.5 q0 -45 -27.5 -75t-72.5 -30t-74 30t-29 75z" />
<glyph unicode="&#xc6;" horiz-adv-x="1697" d="M20 10l103 -20l266 446h500v-436h768l-12 80h-656v594h502l-10 80h-492v559h621l-11 80h-727zM438 516l451 735v-735h-451z" />
<glyph unicode="&#xc7;" horiz-adv-x="1132" d="M102 688q0 205 76 372t220.5 264t338.5 97q76 0 179.5 -20.5t154.5 -54.5l-41 -74q-78 33 -137 47t-160 14q-147 -2 -265 -80.5t-185.5 -224t-67.5 -338.5q0 -170 59.5 -314.5t173 -230.5t267.5 -86q100 0 170.5 16.5t136.5 45.5l49 -74q-53 -29 -142 -50.5t-171 -25.5 l-31 -75q88 -16 137 -66.5t49 -108.5q0 -78 -61 -126t-162 -48q-39 0 -86 11.5t-72 27.5l31 64q70 -29 121 -29q61 0 102 28.5t41 67.5q0 47 -55 86t-147 39l49 131q-188 12 -316.5 111.5t-192 257.5t-63.5 346z" />
<glyph unicode="&#xc8;" horiz-adv-x="1013" d="M205 0h768l-12 80h-656v594h502l-10 80h-492v559h621l-11 80h-710v-1393zM399 1827l175 -314l65 23l-115 291h-125z" />
<glyph unicode="&#xc9;" horiz-adv-x="1013" d="M205 0h768l-12 80h-656v594h502l-10 80h-492v559h621l-11 80h-710v-1393zM477 1536l66 -23l174 314h-125z" />
<glyph unicode="&#xca;" horiz-adv-x="1013" d="M205 0h768l-12 80h-656v594h502l-10 80h-492v559h621l-11 80h-710v-1393zM317 1536l84 -20l177 241l170 -241l84 28l-216 285h-81z" />
<glyph unicode="&#xcb;" horiz-adv-x="1013" d="M205 0h768l-12 80h-656v594h502l-10 80h-492v559h621l-11 80h-710v-1393zM319 1649q0 -33 20.5 -54.5t55.5 -21.5q31 0 53.5 21.5t22.5 54.5q0 31 -22.5 52t-53.5 21q-35 0 -55.5 -20.5t-20.5 -52.5zM645 1649q0 -33 20.5 -54.5t55.5 -21.5q31 0 53.5 21.5t22.5 54.5 q0 31 -22.5 52t-53.5 21q-35 0 -55.5 -20.5t-20.5 -52.5z" />
<glyph unicode="&#xcc;" horiz-adv-x="509" d="M92 1827l175 -314l65 23l-115 291h-125zM205 0h100v1393h-100v-1393z" />
<glyph unicode="&#xcd;" horiz-adv-x="509" d="M170 1536l66 -23l174 314h-125zM205 0h100v1393h-100v-1393z" />
<glyph unicode="&#xce;" horiz-adv-x="509" d="M10 1536l84 -20l177 241l170 -241l84 28l-216 285h-81zM205 0h100v1393h-100v-1393z" />
<glyph unicode="&#xcf;" horiz-adv-x="509" d="M12 1649q0 -33 20.5 -54.5t55.5 -21.5q31 0 53.5 21.5t22.5 54.5q0 31 -22.5 52t-53.5 21q-35 0 -55.5 -20.5t-20.5 -52.5zM205 0h100v1393h-100v-1393zM338 1649q0 -33 20.5 -54.5t55.5 -21.5q31 0 53.5 21.5t22.5 54.5q0 31 -22.5 52t-53.5 21q-35 0 -55.5 -20.5 t-20.5 -52.5z" />
<glyph unicode="&#xd0;" horiz-adv-x="1355" d="M20 723h185v670h459q303 0 446 -190.5t143 -497.5q0 -199 -65.5 -359t-199.5 -253t-331 -93h-452v643h-164zM305 80h354q144 0 255.5 81t173 222t61.5 319q0 170 -52.5 308.5t-157.5 220.5t-259 82h-375v-590h223l21 -80h-244v-563z" />
<glyph unicode="&#xd1;" horiz-adv-x="1347" d="M205 0h100v1176l29 -60l753 -1116h56v1393h-101v-1166l-69 121l-711 1045h-57v-1393zM378 1561h80q10 109 93 108q51 0 106 -57q53 -59 123 -60q74 0 122 47.5t48 139.5h-78q-4 -49 -27.5 -79t-64.5 -30q-51 0 -98 60q-45 57 -134 57q-74 0 -122 -47t-48 -139z" />
<glyph unicode="&#xd2;" horiz-adv-x="1447" d="M102 690q0 -207 79 -370.5t220.5 -256t317.5 -92.5q178 0 321.5 95.5t224.5 262.5t81 378q0 207 -79 370.5t-219.5 255.5t-316.5 92q-180 0 -323.5 -95t-224.5 -262t-81 -378zM215 692q0 185 66.5 332t184.5 231t267 84q143 0 257 -81.5t178.5 -226t64.5 -326.5 q0 -186 -66.5 -334t-184.5 -232t-267 -84q-143 0 -257 82t-178.5 227.5t-64.5 327.5zM567 1827l175 -314l65 23l-115 291h-125z" />
<glyph unicode="&#xd3;" horiz-adv-x="1447" d="M102 690q0 -207 79 -370.5t220.5 -256t317.5 -92.5q178 0 321.5 95.5t224.5 262.5t81 378q0 207 -79 370.5t-219.5 255.5t-316.5 92q-180 0 -323.5 -95t-224.5 -262t-81 -378zM215 692q0 185 66.5 332t184.5 231t267 84q143 0 257 -81.5t178.5 -226t64.5 -326.5 q0 -186 -66.5 -334t-184.5 -232t-267 -84q-143 0 -257 82t-178.5 227.5t-64.5 327.5zM645 1536l66 -23l174 314h-125z" />
<glyph unicode="&#xd4;" horiz-adv-x="1447" d="M102 690q0 -207 79 -370.5t220.5 -256t317.5 -92.5q178 0 321.5 95.5t224.5 262.5t81 378q0 207 -79 370.5t-219.5 255.5t-316.5 92q-180 0 -323.5 -95t-224.5 -262t-81 -378zM215 692q0 185 66.5 332t184.5 231t267 84q143 0 257 -81.5t178.5 -226t64.5 -326.5 q0 -186 -66.5 -334t-184.5 -232t-267 -84q-143 0 -257 82t-178.5 227.5t-64.5 327.5zM485 1536l84 -20l177 241l170 -241l84 28l-216 285h-81z" />
<glyph unicode="&#xd5;" horiz-adv-x="1447" d="M102 690q0 -207 79 -370.5t220.5 -256t317.5 -92.5q178 0 321.5 95.5t224.5 262.5t81 378q0 207 -79 370.5t-219.5 255.5t-316.5 92q-180 0 -323.5 -95t-224.5 -262t-81 -378zM215 692q0 185 66.5 332t184.5 231t267 84q143 0 257 -81.5t178.5 -226t64.5 -326.5 q0 -186 -66.5 -334t-184.5 -232t-267 -84q-143 0 -257 82t-178.5 227.5t-64.5 327.5zM434 1561h80q10 109 93 108q51 0 106 -57q53 -59 123 -60q74 0 122 47.5t48 139.5h-78q-4 -49 -27.5 -79t-64.5 -30q-51 0 -98 60q-45 57 -134 57q-74 0 -122 -47t-48 -139z" />
<glyph unicode="&#xd6;" horiz-adv-x="1447" d="M102 690q0 -207 79 -370.5t220.5 -256t317.5 -92.5q178 0 321.5 95.5t224.5 262.5t81 378q0 207 -79 370.5t-219.5 255.5t-316.5 92q-180 0 -323.5 -95t-224.5 -262t-81 -378zM215 692q0 185 66.5 332t184.5 231t267 84q143 0 257 -81.5t178.5 -226t64.5 -326.5 q0 -186 -66.5 -334t-184.5 -232t-267 -84q-143 0 -257 82t-178.5 227.5t-64.5 327.5zM487 1649q0 -33 20.5 -54.5t55.5 -21.5q31 0 53.5 21.5t22.5 54.5q0 31 -22.5 52t-53.5 21q-35 0 -55.5 -20.5t-20.5 -52.5zM813 1649q0 -33 20.5 -54.5t55.5 -21.5q31 0 53.5 21.5 t22.5 54.5q0 31 -22.5 52t-53.5 21q-35 0 -55.5 -20.5t-20.5 -52.5z" />
<glyph unicode="&#xd7;" horiz-adv-x="962" d="M61 63l375 449l-340 438h101l286 -360l314 360h104l-375 -448l340 -439h-100l-293 361l-307 -361h-105z" />
<glyph unicode="&#xd8;" horiz-adv-x="1447" d="M102 690q0 211 81 378t224.5 262t323.5 95q176 0 316.5 -92t219.5 -256t79 -370q0 -211 -81 -378t-224.5 -262.5t-321.5 -95.5q-176 0 -317.5 92.5t-220.5 256t-79 370.5zM215 692q0 -174 59.5 -315t163.5 -225l488 1144q-86 43 -193 43q-150 0 -267.5 -84t-184 -231 t-66.5 -332zM524 98q86 -43 191 -43q149 0 267 84t184.5 231.5t66.5 334.5q0 174 -58.5 314t-160.5 222z" />
<glyph unicode="&#xd9;" horiz-adv-x="1347" d="M184 489q0 -150 57.5 -266.5t168 -182t264.5 -65.5q156 0 265.5 65.5t166.5 182.5t57 266v904h-100v-910q0 -119 -47 -216t-135 -152.5t-207 -55.5q-115 0 -204 56.5t-137 153t-48 214.5v910h-101v-904zM509 1827l175 -314l65 23l-115 291h-125z" />
<glyph unicode="&#xda;" horiz-adv-x="1347" d="M184 489q0 -150 57.5 -266.5t168 -182t264.5 -65.5q156 0 265.5 65.5t166.5 182.5t57 266v904h-100v-910q0 -119 -47 -216t-135 -152.5t-207 -55.5q-115 0 -204 56.5t-137 153t-48 214.5v910h-101v-904zM587 1536l66 -23l174 314h-125z" />
<glyph unicode="&#xdb;" horiz-adv-x="1347" d="M184 489q0 -150 57.5 -266.5t168 -182t264.5 -65.5q156 0 265.5 65.5t166.5 182.5t57 266v904h-100v-910q0 -119 -47 -216t-135 -152.5t-207 -55.5q-115 0 -204 56.5t-137 153t-48 214.5v910h-101v-904zM428 1536l84 -20l177 241l170 -241l84 28l-216 285h-81z" />
<glyph unicode="&#xdc;" horiz-adv-x="1347" d="M184 489q0 -150 57.5 -266.5t168 -182t264.5 -65.5q156 0 265.5 65.5t166.5 182.5t57 266v904h-100v-910q0 -119 -47 -216t-135 -152.5t-207 -55.5q-115 0 -204 56.5t-137 153t-48 214.5v910h-101v-904zM430 1649q0 -33 20.5 -54.5t55.5 -21.5q31 0 53.5 21.5t22.5 54.5 q0 31 -22.5 52t-53.5 21q-35 0 -55.5 -20.5t-20.5 -52.5zM756 1649q0 -33 20.5 -54.5t55.5 -21.5q31 0 53.5 21.5t22.5 54.5q0 31 -22.5 52t-53.5 21q-35 0 -55.5 -20.5t-20.5 -52.5z" />
<glyph unicode="&#xdd;" horiz-adv-x="1085" d="M20 1368l461 -817v-551h101v561l483 832h-117l-418 -736l-409 754zM444 1536l66 -23l174 314h-125z" />
<glyph unicode="&#xde;" horiz-adv-x="1122" d="M205 0v1393h100v-164h234q231 0 366 -101.5t135 -318.5q0 -215 -146 -323.5t-378 -108.5h-211v-377h-100zM305 457h236q172 0 284.5 91t112.5 259q0 174 -99.5 257t-275.5 83h-258v-690z" />
<glyph unicode="&#xdf;" horiz-adv-x="1114" d="M164 0h102v969q0 147 80 243.5t225 96.5q117 0 196 -75t79 -206q0 -133 -79 -199.5t-259 -66.5h-55v-80h92q174 0 272 -75t98 -226q0 -154 -107.5 -227.5t-283.5 -73.5h-104v-80h78q240 0 382 90t142 295q0 129 -75 220t-191 124q94 39 145 117t51 184 q0 172 -109.5 267.5t-277.5 95.5q-190 0 -295.5 -113t-105.5 -311v-969z" />
<glyph unicode="&#xe0;" horiz-adv-x="972" d="M106 279q0 -135 86.5 -220.5t247.5 -85.5q90 0 170 37t133 96l17 -106h78v696q0 150 -89.5 237t-254.5 87q-68 0 -166.5 -24.5t-151.5 -61.5l39 -68q76 37 135.5 53.5t149.5 16.5q117 0 177 -64.5t60 -173.5v-123h-276q-158 0 -256.5 -78.5t-98.5 -217.5zM211 279 q0 98 64.5 159.5t193.5 61.5h268v-277q-51 -76 -123.5 -121t-164.5 -45q-109 0 -173.5 63.5t-64.5 158.5zM323 1520l175 -314l65 23l-115 291h-125z" />
<glyph unicode="&#xe1;" horiz-adv-x="972" d="M106 279q0 -135 86.5 -220.5t247.5 -85.5q90 0 170 37t133 96l17 -106h78v696q0 150 -89.5 237t-254.5 87q-68 0 -166.5 -24.5t-151.5 -61.5l39 -68q76 37 135.5 53.5t149.5 16.5q117 0 177 -64.5t60 -173.5v-123h-276q-158 0 -256.5 -78.5t-98.5 -217.5zM211 279 q0 98 64.5 159.5t193.5 61.5h268v-277q-51 -76 -123.5 -121t-164.5 -45q-109 0 -173.5 63.5t-64.5 158.5zM403 1229l66 -23l174 314h-125z" />
<glyph unicode="&#xe2;" horiz-adv-x="972" d="M106 279q0 -135 86.5 -220.5t247.5 -85.5q90 0 170 37t133 96l17 -106h78v696q0 150 -89.5 237t-254.5 87q-68 0 -166.5 -24.5t-151.5 -61.5l39 -68q76 37 135.5 53.5t149.5 16.5q117 0 177 -64.5t60 -173.5v-123h-276q-158 0 -256.5 -78.5t-98.5 -217.5zM211 279 q0 98 64.5 159.5t193.5 61.5h268v-277q-51 -76 -123.5 -121t-164.5 -45q-109 0 -173.5 63.5t-64.5 158.5zM253 1227l84 -21l177 242l170 -242l84 29l-216 285h-81z" />
<glyph unicode="&#xe3;" horiz-adv-x="972" d="M106 279q0 -135 86.5 -220.5t247.5 -85.5q90 0 170 37t133 96l17 -106h78v696q0 150 -89.5 237t-254.5 87q-68 0 -166.5 -24.5t-151.5 -61.5l39 -68q76 37 135.5 53.5t149.5 16.5q117 0 177 -64.5t60 -173.5v-123h-276q-158 0 -256.5 -78.5t-98.5 -217.5zM206 1253h80 q10 109 93 109q51 0 106 -57q53 -59 123 -60q74 0 122 47t48 140h-78q-4 -50 -27.5 -79.5t-64.5 -29.5q-51 0 -98 59q-45 57 -134 58q-74 0 -122 -47t-48 -140zM211 279q0 98 64.5 159.5t193.5 61.5h268v-277q-51 -76 -123.5 -121t-164.5 -45q-109 0 -173.5 63.5 t-64.5 158.5z" />
<glyph unicode="&#xe4;" horiz-adv-x="972" d="M106 279q0 -135 86.5 -220.5t247.5 -85.5q90 0 170 37t133 96l17 -106h78v696q0 150 -89.5 237t-254.5 87q-68 0 -166.5 -24.5t-151.5 -61.5l39 -68q76 37 135.5 53.5t149.5 16.5q117 0 177 -64.5t60 -173.5v-123h-276q-158 0 -256.5 -78.5t-98.5 -217.5zM211 279 q0 98 64.5 159.5t193.5 61.5h268v-277q-51 -76 -123.5 -121t-164.5 -45q-109 0 -173.5 63.5t-64.5 158.5zM260 1341q0 -33 20.5 -54t55.5 -21q31 0 53.5 21.5t22.5 53.5q0 31 -22.5 52.5t-53.5 21.5q-35 0 -55.5 -20.5t-20.5 -53.5zM586 1341q0 -33 20.5 -54t55.5 -21 q31 0 53.5 21.5t22.5 53.5q0 31 -22.5 52.5t-53.5 21.5q-35 0 -55.5 -20.5t-20.5 -53.5z" />
<glyph unicode="&#xe5;" horiz-adv-x="972" d="M106 279q0 -135 86.5 -220.5t247.5 -85.5q90 0 170 37t133 96l17 -106h78v696q0 150 -89.5 237t-254.5 87q-68 0 -166.5 -24.5t-151.5 -61.5l39 -68q76 37 135.5 53.5t149.5 16.5q117 0 177 -64.5t60 -173.5v-123h-276q-158 0 -256.5 -78.5t-98.5 -217.5zM211 279 q0 98 64.5 159.5t193.5 61.5h268v-277q-51 -76 -123.5 -121t-164.5 -45q-109 0 -173.5 63.5t-64.5 158.5zM305 1382q0 -72 53.5 -118.5t129.5 -46.5t128 47t52 118q0 74 -53.5 123t-126.5 49q-74 0 -128.5 -49t-54.5 -123zM385 1382q0 47 29 78t74 31t72.5 -30.5t27.5 -78.5 q0 -45 -27.5 -74.5t-72.5 -29.5t-74 29.5t-29 74.5z" />
<glyph unicode="&#xe6;" horiz-adv-x="1628" d="M106 279q0 139 98.5 217.5t256.5 78.5h268q4 37 8 60v63q0 109 -60.5 173.5t-176.5 64.5q-90 0 -149.5 -16.5t-135.5 -53.5l-39 68q53 37 151.5 61.5t166.5 24.5q123 0 202.5 -47t114.5 -133q55 86 143 133t207 47q113 0 201 -67.5t136 -187.5t48 -269h-715 q2 -193 89.5 -316t261.5 -123q98 0 163.5 18.5t129.5 51.5l41 -76q-57 -35 -152.5 -56.5t-165.5 -21.5q-135 0 -232.5 49.5t-154.5 139.5q-57 -92 -144 -140.5t-227 -48.5q-162 0 -248 85t-86 221zM211 279q0 -94 64.5 -158t173.5 -64q114 0 191 50.5t130 138.5 q-43 111 -43 254h-258q-129 0 -193.5 -61.5t-64.5 -159.5zM836 571h604q-16 162 -86 263.5t-207 101.5q-139 0 -218 -103.5t-93 -261.5z" />
<glyph unicode="&#xe7;" horiz-adv-x="919" d="M82 502q0 150 55.5 267.5t159.5 184t248 66.5q63 0 153 -24.5t148 -61.5l-41 -68q-72 35 -127 52.5t-137 17.5q-106 0 -187.5 -58.5t-124.5 -157.5t-43 -216q0 -125 40 -226.5t118 -161t186 -59.5q63 0 108.5 9.5t83.5 26t73 34.5l41 -70q-52 -32 -129.5 -54.5 t-143.5 -27.5l-31 -79q88 -16 137.5 -66.5t49.5 -108.5q0 -78 -61.5 -126t-161.5 -48q-39 0 -86.5 11.5t-71.5 27.5l31 64q70 -29 120 -29q61 0 102.5 28.5t41.5 67.5q0 47 -55.5 86t-147.5 39l51 133q-193 18 -296 161t-103 366z" />
<glyph unicode="&#xe8;" horiz-adv-x="983" d="M82 502q0 -242 117.5 -385.5t353.5 -143.5q70 0 165 21.5t152 56.5l-41 76q-63 -33 -128.5 -51.5t-163.5 -18.5q-174 0 -261.5 123t-89.5 316h715q0 149 -48 269t-136 187.5t-201 67.5q-211 0 -322.5 -142.5t-111.5 -375.5zM190 571q15 158 93.5 261.5t218.5 103.5 q137 0 206.5 -101.5t86.5 -263.5h-605zM344 1520l175 -314l65 23l-115 291h-125z" />
<glyph unicode="&#xe9;" horiz-adv-x="983" d="M82 502q0 -242 117.5 -385.5t353.5 -143.5q70 0 165 21.5t152 56.5l-41 76q-63 -33 -128.5 -51.5t-163.5 -18.5q-174 0 -261.5 123t-89.5 316h715q0 149 -48 269t-136 187.5t-201 67.5q-211 0 -322.5 -142.5t-111.5 -375.5zM190 571q15 158 93.5 261.5t218.5 103.5 q137 0 206.5 -101.5t86.5 -263.5h-605zM423 1229l66 -23l174 314h-125z" />
<glyph unicode="&#xea;" horiz-adv-x="983" d="M82 502q0 -242 117.5 -385.5t353.5 -143.5q70 0 165 21.5t152 56.5l-41 76q-63 -33 -128.5 -51.5t-163.5 -18.5q-174 0 -261.5 123t-89.5 316h715q0 149 -48 269t-136 187.5t-201 67.5q-211 0 -322.5 -142.5t-111.5 -375.5zM190 571q15 158 93.5 261.5t218.5 103.5 q137 0 206.5 -101.5t86.5 -263.5h-605zM274 1227l84 -21l177 242l170 -242l84 29l-216 285h-81z" />
<glyph unicode="&#xeb;" horiz-adv-x="983" d="M82 502q0 -242 117.5 -385.5t353.5 -143.5q70 0 165 21.5t152 56.5l-41 76q-63 -33 -128.5 -51.5t-163.5 -18.5q-174 0 -261.5 123t-89.5 316h715q0 149 -48 269t-136 187.5t-201 67.5q-211 0 -322.5 -142.5t-111.5 -375.5zM190 571q15 158 93.5 261.5t218.5 103.5 q137 0 206.5 -101.5t86.5 -263.5h-605zM280 1341q0 -33 20.5 -54t55.5 -21q31 0 53.5 21.5t22.5 53.5q0 31 -22.5 52.5t-53.5 21.5q-35 0 -55.5 -20.5t-20.5 -53.5zM606 1341q0 -33 20.5 -54t55.5 -21q31 0 53.5 21.5t22.5 53.5q0 31 -22.5 52.5t-53.5 21.5 q-35 0 -55.5 -20.5t-20.5 -53.5z" />
<glyph unicode="&#xec;" horiz-adv-x="387" d="M28 1520l175 -314l65 23l-115 291h-125zM143 0h101v993h-101v-993z" />
<glyph unicode="&#xed;" horiz-adv-x="387" d="M108 1229l66 -23l174 314h-125zM143 0h101v993h-101v-993z" />
<glyph unicode="&#xee;" horiz-adv-x="387" d="M-41 1227l84 -21l177 242l170 -242l84 29l-216 285h-81zM143 0h101v993h-101v-993z" />
<glyph unicode="&#xef;" horiz-adv-x="387" d="M-35 1341q0 -33 20.5 -54t55.5 -21q31 0 53.5 21.5t22.5 53.5q0 31 -22.5 52.5t-53.5 21.5q-35 0 -55.5 -20.5t-20.5 -53.5zM143 0h101v993h-101v-993zM291 1341q0 -33 20.5 -54t55.5 -21q31 0 53.5 21.5t22.5 53.5q0 31 -22.5 52.5t-53.5 21.5q-35 0 -55.5 -20.5 t-20.5 -53.5z" />
<glyph unicode="&#xf0;" horiz-adv-x="1071" d="M82 502q0 147 54 265t158.5 185.5t248.5 67.5q147 -2 250 -80q-102 215 -304 367l-266 -136l-39 78l228 113q-100 63 -205 108l26 66q137 -55 263 -133l237 117l37 -72l-197 -98q209 -158 312.5 -376t103.5 -482q0 -147 -54 -265t-158.5 -186t-246.5 -68 q-215 2 -331.5 146.5t-116.5 382.5zM186 504q0 -125 40 -226.5t118 -161t186 -59.5q107 0 188 58.5t124 158t43 215.5q0 168 -41 312q-141 135 -303 135q-106 0 -187.5 -58.5t-124.5 -157.5t-43 -216z" />
<glyph unicode="&#xf1;" horiz-adv-x="1024" d="M143 0h101v735q196 201 358 201q104 0 145 -65.5t41 -180.5v-690h101v690q0 152 -72 241t-223 89q-90 0 -188.5 -53.5t-163.5 -128.5l-21 155h-78v-993zM247 1253h80q10 109 93 109q51 0 106 -57q53 -59 123 -60q74 0 122 47t48 140h-78q-4 -50 -27.5 -79.5t-64.5 -29.5 q-51 0 -98 59q-45 57 -134 58q-74 0 -122 -47t-48 -140z" />
<glyph unicode="&#xf2;" horiz-adv-x="1071" d="M82 502q0 147 54 265t158.5 185.5t248.5 67.5q215 -2 330.5 -146.5t115.5 -381.5q0 -148 -54 -265.5t-158.5 -185.5t-246.5 -68q-215 2 -331.5 146.5t-116.5 382.5zM186 504q0 -125 40 -226.5t118 -161t186 -59.5q107 0 188 58.5t124 158t43 215.5q0 125 -40 226.5 t-118 161t-186 59.5q-106 0 -187.5 -58.5t-124.5 -157.5t-43 -216zM374 1520l175 -314l65 23l-115 291h-125z" />
<glyph unicode="&#xf3;" horiz-adv-x="1071" d="M82 502q0 147 54 265t158.5 185.5t248.5 67.5q215 -2 330.5 -146.5t115.5 -381.5q0 -148 -54 -265.5t-158.5 -185.5t-246.5 -68q-215 2 -331.5 146.5t-116.5 382.5zM186 504q0 -125 40 -226.5t118 -161t186 -59.5q107 0 188 58.5t124 158t43 215.5q0 125 -40 226.5 t-118 161t-186 59.5q-106 0 -187.5 -58.5t-124.5 -157.5t-43 -216zM454 1229l66 -23l174 314h-125z" />
<glyph unicode="&#xf4;" horiz-adv-x="1071" d="M82 502q0 147 54 265t158.5 185.5t248.5 67.5q215 -2 330.5 -146.5t115.5 -381.5q0 -148 -54 -265.5t-158.5 -185.5t-246.5 -68q-215 2 -331.5 146.5t-116.5 382.5zM186 504q0 -125 40 -226.5t118 -161t186 -59.5q107 0 188 58.5t124 158t43 215.5q0 125 -40 226.5 t-118 161t-186 59.5q-106 0 -187.5 -58.5t-124.5 -157.5t-43 -216zM305 1227l84 -21l177 242l170 -242l84 29l-216 285h-81z" />
<glyph unicode="&#xf5;" horiz-adv-x="1071" d="M82 502q0 147 54 265t158.5 185.5t248.5 67.5q215 -2 330.5 -146.5t115.5 -381.5q0 -148 -54 -265.5t-158.5 -185.5t-246.5 -68q-215 2 -331.5 146.5t-116.5 382.5zM186 504q0 -125 40 -226.5t118 -161t186 -59.5q107 0 188 58.5t124 158t43 215.5q0 125 -40 226.5 t-118 161t-186 59.5q-106 0 -187.5 -58.5t-124.5 -157.5t-43 -216zM258 1253h80q10 109 93 109q51 0 106 -57q53 -59 123 -60q74 0 122 47t48 140h-78q-4 -50 -27.5 -79.5t-64.5 -29.5q-51 0 -98 59q-45 57 -134 58q-74 0 -122 -47t-48 -140z" />
<glyph unicode="&#xf6;" horiz-adv-x="1071" d="M82 502q0 147 54 265t158.5 185.5t248.5 67.5q215 -2 330.5 -146.5t115.5 -381.5q0 -148 -54 -265.5t-158.5 -185.5t-246.5 -68q-215 2 -331.5 146.5t-116.5 382.5zM186 504q0 -125 40 -226.5t118 -161t186 -59.5q107 0 188 58.5t124 158t43 215.5q0 125 -40 226.5 t-118 161t-186 59.5q-106 0 -187.5 -58.5t-124.5 -157.5t-43 -216zM311 1341q0 -33 20.5 -54t55.5 -21q31 0 53.5 21.5t22.5 53.5q0 31 -22.5 52.5t-53.5 21.5q-35 0 -55.5 -20.5t-20.5 -53.5zM637 1341q0 -33 20.5 -54t55.5 -21q31 0 53.5 21.5t22.5 53.5q0 31 -22.5 52.5 t-53.5 21.5q-35 0 -55.5 -20.5t-20.5 -53.5z" />
<glyph unicode="&#xf7;" horiz-adv-x="1017" d="M61 598l17 -76h878l-20 76h-875zM430 850q0 -33 21.5 -55.5t56.5 -22.5q33 0 56.5 22.5t23.5 55.5t-23.5 55.5t-56.5 22.5q-35 0 -56.5 -22.5t-21.5 -55.5zM436 229q0 -33 21.5 -55t56.5 -22q33 0 56.5 22.5t23.5 54.5q0 33 -23.5 55.5t-56.5 22.5q-35 0 -56.5 -22.5 t-21.5 -55.5z" />
<glyph unicode="&#xf8;" horiz-adv-x="1071" d="M82 502q0 147 54 265t158.5 185.5t248.5 67.5q215 -2 330.5 -146.5t115.5 -381.5q0 -147 -54 -265t-158.5 -186t-246.5 -68q-215 2 -331.5 146.5t-116.5 382.5zM186 504q0 -113 33 -206t94 -155l389 750q-76 43 -161 43q-106 0 -187.5 -58.5t-124.5 -157.5t-43 -216z M389 90q66 -33 141 -33q107 0 188 58.5t124 158t43 215.5q0 102 -29 191.5t-82 150.5z" />
<glyph unicode="&#xf9;" horiz-adv-x="1024" d="M135 303q0 -152 72 -241t223 -89q90 0 188.5 53.5t163.5 129.5l21 -156h78v993h-101v-735q-196 -201 -358 -201q-104 0 -145 65.5t-41 180.5v690h-101v-690zM337 1520l175 -314l65 23l-115 291h-125z" />
<glyph unicode="&#xfa;" horiz-adv-x="1024" d="M135 303q0 -152 72 -241t223 -89q90 0 188.5 53.5t163.5 129.5l21 -156h78v993h-101v-735q-196 -201 -358 -201q-104 0 -145 65.5t-41 180.5v690h-101v-690zM417 1229l66 -23l174 314h-125z" />
<glyph unicode="&#xfb;" horiz-adv-x="1024" d="M135 303q0 -152 72 -241t223 -89q90 0 188.5 53.5t163.5 129.5l21 -156h78v993h-101v-735q-196 -201 -358 -201q-104 0 -145 65.5t-41 180.5v690h-101v-690zM268 1227l84 -21l177 242l170 -242l84 29l-216 285h-81z" />
<glyph unicode="&#xfc;" horiz-adv-x="1024" d="M135 303q0 -152 72 -241t223 -89q90 0 188.5 53.5t163.5 129.5l21 -156h78v993h-101v-735q-196 -201 -358 -201q-104 0 -145 65.5t-41 180.5v690h-101v-690zM274 1341q0 -33 20.5 -54t55.5 -21q31 0 53.5 21.5t22.5 53.5q0 31 -22.5 52.5t-53.5 21.5q-35 0 -55.5 -20.5 t-20.5 -53.5zM600 1341q0 -33 20.5 -54t55.5 -21q31 0 53.5 21.5t22.5 53.5q0 31 -22.5 52.5t-53.5 21.5q-35 0 -55.5 -20.5t-20.5 -53.5z" />
<glyph unicode="&#xfd;" horiz-adv-x="880" d="M20 969l375 -969l-63 -201q-25 -65 -73 -104t-130 -66l10 -78q98 20 170 78t103 142l448 1222h-102l-316 -878l-327 891zM344 1229l66 -23l174 314h-125z" />
<glyph unicode="&#xfe;" horiz-adv-x="1040" d="M156 -449v1874l100 21v-533q119 106 274 107q213 0 320.5 -143.5t107.5 -384.5q0 -231 -114.5 -375t-327.5 -144q-66 0 -134.5 27t-125.5 68v-494zM256 170q125 -113 264 -113q107 0 181.5 58.5t113.5 157t39 216.5q0 195 -82 321t-242 126q-90 0 -151.5 -34t-122.5 -99 v-633z" />
<glyph unicode="&#xff;" horiz-adv-x="880" d="M20 969l375 -969l-63 -201q-25 -65 -73 -104t-130 -66l10 -78q98 20 170 78t103 142l448 1222h-102l-316 -878l-327 891zM200 1341q0 -33 20.5 -54t55.5 -21q31 0 53.5 21.5t22.5 53.5q0 31 -22.5 52.5t-53.5 21.5q-35 0 -55.5 -20.5t-20.5 -53.5zM526 1341 q0 -33 20.5 -54t55.5 -21q31 0 53.5 21.5t22.5 53.5q0 31 -22.5 52.5t-53.5 21.5q-35 0 -55.5 -20.5t-20.5 -53.5z" />
<glyph unicode="&#x152;" horiz-adv-x="1826" d="M102 688q0 205 76 372t220.5 264t338.5 97q57 0 139 -13t142 -36v21h711l10 -80h-621v-559h492l10 -80h-502v-594h656l12 -80h-768v25q-63 -23 -143 -38.5t-150 -15.5q-205 0 -345 97.5t-209 260.5t-69 359zM215 690q0 -170 59.5 -314.5t173 -230.5t267.5 -86 q100 0 169.5 15.5t133.5 44.5v1157q-70 29 -130.5 43t-154.5 14q-147 -2 -265 -80.5t-185.5 -224t-67.5 -338.5z" />
<glyph unicode="&#x153;" horiz-adv-x="1552" d="M82 502q0 150 55.5 267.5t159.5 184t248 66.5q59 0 143 -21.5t143 -56.5q104 78 254 78q113 0 201 -67.5t136 -187.5t48 -269h-714q2 -193 89 -316t261 -123q98 0 163.5 18.5t129.5 51.5l41 -76q-57 -35 -152.5 -56.5t-165.5 -21.5q-170 0 -288 82q-59 -35 -148.5 -58.5 t-155.5 -23.5q-215 0 -331.5 145.5t-116.5 383.5zM186 504q0 -125 40 -226.5t118 -161t186 -59.5q82 0 132.5 14.5t107.5 43.5q-119 139 -119 387q0 242 117 383q-51 25 -104.5 38t-122.5 13q-106 0 -187.5 -58.5t-124.5 -157.5t-43 -216zM760 571h604q-16 162 -86 263.5 t-207 101.5q-139 0 -218 -103.5t-93 -261.5z" />
<glyph unicode="&#x178;" horiz-adv-x="1085" d="M20 1368l461 -817v-551h101v561l483 832h-117l-418 -736l-409 754zM286 1649q0 -33 20.5 -54.5t55.5 -21.5q31 0 53.5 21.5t22.5 54.5q0 31 -22.5 52t-53.5 21q-35 0 -55.5 -20.5t-20.5 -52.5zM612 1649q0 -33 20.5 -54.5t55.5 -21.5q31 0 53.5 21.5t22.5 54.5 q0 31 -22.5 52t-53.5 21q-35 0 -55.5 -20.5t-20.5 -52.5z" />
<glyph unicode="&#x2c6;" horiz-adv-x="555" d="M20 1227l84 -21l177 242l170 -242l84 29l-216 285h-81z" />
<glyph unicode="&#x2dc;" horiz-adv-x="612" d="M20 1253h80q10 109 93 109q51 0 106 -57q53 -59 123 -60q74 0 122 47t48 140h-78q-4 -50 -27.5 -79.5t-64.5 -29.5q-51 0 -98 59q-45 57 -134 58q-74 0 -122 -47t-48 -140z" />
<glyph unicode="&#x2000;" horiz-adv-x="931" />
<glyph unicode="&#x2001;" horiz-adv-x="1862" />
<glyph unicode="&#x2002;" horiz-adv-x="931" />
<glyph unicode="&#x2003;" horiz-adv-x="1862" />
<glyph unicode="&#x2004;" horiz-adv-x="620" />
<glyph unicode="&#x2005;" horiz-adv-x="465" />
<glyph unicode="&#x2006;" horiz-adv-x="310" />
<glyph unicode="&#x2007;" horiz-adv-x="310" />
<glyph unicode="&#x2008;" horiz-adv-x="232" />
<glyph unicode="&#x2009;" horiz-adv-x="372" />
<glyph unicode="&#x200a;" horiz-adv-x="103" />
<glyph unicode="&#x2010;" horiz-adv-x="636" d="M61 598l17 -80h497l-16 80h-498z" />
<glyph unicode="&#x2011;" horiz-adv-x="636" d="M61 598l17 -80h497l-16 80h-498z" />
<glyph unicode="&#x2012;" horiz-adv-x="636" d="M61 598l17 -80h497l-16 80h-498z" />
<glyph unicode="&#x2013;" horiz-adv-x="884" d="M61 600l17 -80h745l-16 80h-746z" />
<glyph unicode="&#x2014;" horiz-adv-x="1073" d="M61 600l17 -80h934l-17 80h-934z" />
<glyph unicode="&#x2018;" horiz-adv-x="311" d="M61 1149q0 -33 22.5 -60.5t57.5 -27.5q37 0 57.5 23.5t20.5 56.5q0 25 -20.5 51.5t-53.5 26.5q2 102 125 167l-32 52q-84 -41 -130.5 -118t-46.5 -171z" />
<glyph unicode="&#x2019;" horiz-adv-x="311" d="M41 1112l33 -51q84 41 130 117.5t46 171.5q0 33 -22.5 60.5t-57.5 27.5q-37 0 -57.5 -23.5t-20.5 -56.5q0 -25 20.5 -51.5t53.5 -26.5q-2 -102 -125 -168z" />
<glyph unicode="&#x201a;" horiz-adv-x="311" d="M41 -170l33 -51q84 41 130 117.5t46 171.5q0 33 -22.5 60.5t-57.5 27.5q-37 0 -57.5 -23.5t-20.5 -56.5q0 -25 20.5 -51.5t53.5 -26.5q-2 -102 -125 -168z" />
<glyph unicode="&#x201c;" horiz-adv-x="563" d="M61 1149q0 -33 22.5 -60.5t57.5 -27.5q37 0 57.5 23.5t20.5 56.5q0 25 -20.5 51.5t-53.5 26.5q2 102 125 167l-32 52q-84 -41 -130.5 -118t-46.5 -171zM313 1149q0 -33 22.5 -60.5t57.5 -27.5q37 0 57.5 23.5t20.5 56.5q0 25 -20.5 51.5t-53.5 26.5q2 102 125 167l-33 52 q-84 -41 -130 -118t-46 -171z" />
<glyph unicode="&#x201d;" horiz-adv-x="563" d="M41 1112l33 -51q84 41 130 117.5t46 171.5q0 33 -22.5 60.5t-57.5 27.5q-37 0 -57.5 -23.5t-20.5 -56.5q0 -25 20.5 -51.5t53.5 -26.5q-2 -102 -125 -168zM293 1112l33 -51q84 41 130 117.5t46 171.5q0 33 -22.5 60.5t-57.5 27.5q-37 0 -57.5 -23.5t-20.5 -56.5 q0 -25 20.5 -51.5t53.5 -26.5q-2 -102 -125 -168z" />
<glyph unicode="&#x201e;" horiz-adv-x="563" d="M41 -170l33 -51q84 41 130 117.5t46 171.5q0 33 -22.5 60.5t-57.5 27.5q-37 0 -57.5 -23.5t-20.5 -56.5q0 -25 20.5 -51.5t53.5 -26.5q-2 -102 -125 -168zM293 -170l33 -51q84 41 130 117.5t46 171.5q0 33 -22.5 60.5t-57.5 27.5q-37 0 -57.5 -23.5t-20.5 -56.5 q0 -25 20.5 -51.5t53.5 -26.5q-2 -102 -125 -168z" />
<glyph unicode="&#x2022;" horiz-adv-x="374" d="M61 668q0 -51 37 -88t90 -37q52 0 88.5 36.5t36.5 88.5q0 53 -36.5 90t-88.5 37q-53 0 -90 -37t-37 -90z" />
<glyph unicode="&#x2026;" horiz-adv-x="731" d="M61 74q0 -33 22.5 -53.5t55.5 -20.5q31 0 51.5 20.5t20.5 53.5t-20.5 53t-51.5 20q-33 0 -55.5 -20.5t-22.5 -52.5zM291 74q0 -33 22.5 -53.5t55.5 -20.5q30 0 50.5 20.5t20.5 53.5t-20.5 53t-50.5 20q-33 0 -55.5 -20.5t-22.5 -52.5zM520 74q0 -33 22.5 -53.5 t55.5 -20.5q31 0 51.5 20.5t20.5 53.5t-20.5 53t-51.5 20q-33 0 -55.5 -20.5t-22.5 -52.5z" />
<glyph unicode="&#x202f;" horiz-adv-x="372" />
<glyph unicode="&#x2039;" horiz-adv-x="432" d="M61 473l287 -303l43 70l-244 262l244 262l-43 72l-287 -306v-57z" />
<glyph unicode="&#x203a;" horiz-adv-x="432" d="M41 242l43 -72l287 305v57l-287 304l-43 -70l244 -262z" />
<glyph unicode="&#x205f;" horiz-adv-x="465" />
<glyph unicode="&#x20ac;" horiz-adv-x="1214" d="M0 543h195q-10 78 -11 145q0 68 11 146h-185l-10 79h211q53 229 213 368.5t395 139.5q76 0 179.5 -20.5t154.5 -54.5l-41 -74q-78 33 -137.5 47t-159.5 14q-176 -2 -308 -113.5t-183 -306.5h497l10 -79h-524q-10 -76 -10 -144q0 -76 12 -147h512l10 -80h-503 q49 -180 172 -292t297 -112q100 0 170.5 16.5t136.5 45.5l49 -74q-57 -31 -158.5 -53.5t-187.5 -22.5q-242 0 -394.5 135.5t-203.5 356.5h-199z" />
<glyph unicode="&#x2122;" horiz-adv-x="1456" d="M20 1327h244v-700h90v700h242l-6 66h-570v-66zM739 627h84v567l215 -315l25 4l213 313v-569h78v766h-41l-262 -404l-273 404h-39v-766z" />
<glyph unicode="&#x25fc;" horiz-adv-x="1013" d="M0 0v1014h1014v-1014h-1014z" />
<glyph unicode="&#xfb01;" horiz-adv-x="927" d="M41 887h149v-887h101v887h223l-43 76h-180v223q0 168 141 168q18 0 45 -6.5t39 -12.5l25 76q-70 27 -135 27q-106 0 -161 -76t-55 -209v-190h-149v-76zM656 1307q0 -33 21.5 -55.5t56.5 -22.5q34 0 56.5 22.5t22.5 55.5t-23.5 55t-55.5 22q-35 0 -56.5 -22.5t-21.5 -54.5 zM684 0h101v993h-101v-993z" />
<glyph unicode="&#xfb02;" horiz-adv-x="968" d="M41 887h149v-887h101v887h223l-43 76h-180v223q0 168 141 168q18 0 45 -6.5t39 -12.5l25 76q-70 27 -135 27q-106 0 -161 -76t-55 -209v-190h-149v-76zM705 0h100v1446l-100 -21v-1425z" />
</font>
</defs>
</svg>
