<?xml version="1.0" encoding="utf-8"?>
<!-- Generator: Adobe Illustrator 17.0.1, SVG Export Plug-In . SVG Version: 6.00 Build 0)  -->
<!DOCTYPE svg PUBLIC "-//W3C//DTD SVG 1.1//EN" "http://www.w3.org/Graphics/SVG/1.1/DTD/svg11.dtd">
<svg version="1.1" id="Layer_1" xmlns="http://www.w3.org/2000/svg" xmlns:xlink="http://www.w3.org/1999/xlink" x="0px" y="0px"
	 width="400px" height="553px" viewBox="0 0 400 553" enable-background="new 0 0 400 553" xml:space="preserve">
<g>
	<g>
		<path fill="#D9D9D9" d="M402,145.5c0,127.667,0,255.333,0,383c-0.666,9.33-4.849,16.474-12.772,21.626
			c-3.519,2.288-7.547,2.074-11.228,3.374c-117.333,0-234.667,0-352,0c-8.953-0.914-16.04-4.762-20.9-12.618
			c-3.355-5.422-3.543-11.392-3.549-17.341c-0.073-73.438-0.048-146.876-0.048-220.314c0-90.923,0.03-181.846-0.04-272.769
			C1.454,19.667,4.285,10.554,13.712,4.177C17.531,1.594,21.964,1.894,26,0.5c77,0,154,0,231,0c0.363,0.522,0.571,1.1,0.629,1.733
			c0.318,2.647,0.417,5.302,0.415,7.971c-0.017,34.312-0.032,68.624-0.004,102.937c0.017,19.93,11.391,31.303,31.321,31.319
			c34.312,0.028,68.624,0.014,102.937-0.004c2.669-0.001,5.324,0.098,7.973,0.405C400.904,144.922,401.48,145.136,402,145.5z"/>
		<path fill="#FEFEFE" d="M402,145.5c-0.363,0.032-0.726,0.064-1.089,0.096c-2.187,0.188-3.185-1.556-4.436-2.808
			c-45.571-45.603-91.159-91.19-136.762-136.762c-1.252-1.251-2.995-2.25-2.81-4.436c0.032-0.363,0.065-0.727,0.097-1.09
			c47.085,0,94.171,0.035,141.256-0.08c3.12-0.008,3.832,0.704,3.824,3.824C401.965,51.329,402,98.415,402,145.5z"/>
		<path fill="#FEFEFE" d="M26,0.5C18.626,3.593,11.289,6.665,6.91,14.059c-3.038,5.13-4.898,10.547-4.899,16.517
			C2,194.859,1.995,359.142,2.015,523.425c0.002,12.972,7.766,23.81,19.957,28.244c1.382,0.503,2.688,1.216,4.029,1.831
			c-7.5,0-15.002-0.105-22.499,0.066c-2.156,0.049-2.949-0.414-2.521-2.57C1.108,550.355,1,549.667,1,549
			C1,367.667,1.014,186.333,0.906,5c-0.002-3.749,0.821-4.794,4.599-4.6C12.32,0.752,19.167,0.5,26,0.5z"/>
		<path fill="#FEFEFE" d="M378,553.5c7.505-3.042,14.75-6.334,19.257-13.719c2.177-3.567,2.981-7.602,4.743-11.281
			c0,7.5-0.105,15.002,0.066,22.498c0.049,2.156-0.411,2.62-2.568,2.568C392.336,553.392,385.167,553.5,378,553.5z"/>
		<path fill="#CCCCCC" d="M256.903,1.59c1.854,1.656,3.795,3.225,5.55,4.979c44.51,44.475,89.005,88.967,133.483,133.474
			c1.754,1.755,3.322,3.697,4.976,5.552c-1.569,1.395-3.489,0.882-5.269,0.883c-36.327,0.028-72.655,0.04-108.982,0.012
			c-17.543-0.014-30.638-13.108-30.652-30.65c-0.028-36.327-0.015-72.655,0.012-108.982C256.022,5.079,255.509,3.159,256.903,1.59z"
			/>
		<path fill="#FEFEFE" d="M322.905,295.973c-11.584,48.362-49.433,91.909-100.145,99.881c-55.226,8.681-94.865-8.576-123.141-47.876
			c5.637,2.93,11.55,5.202,17.371,7.686c12.365,5.277,25.615,6.771,38.675,8.661c15.279,2.211,30.752,2.329,46.216,2.247
			c23.153-0.122,43.987-7.646,63.617-19.127c16.901-9.886,31.463-22.73,44.873-36.889
			C314.773,305.908,318.739,300.846,322.905,295.973z"/>
		<path fill="#FEFEFE" d="M130.528,205.5c20.99,0.184,36.181,16.829,36.137,35.552c-0.046,20.018-15.564,35.913-36.193,36.321
			c-16.62,0.329-36.555-14.317-35.62-37.529C95.6,221.283,111.324,205.494,130.528,205.5z"/>
		<path fill="#FEFEFE" d="M236.999,241.102c-0.695-19.012,15.758-35.791,35.774-35.582c20.359,0.212,35.663,16.2,35.887,35.283
			c0.23,19.564-15.119,36.335-36.434,36.555C255.116,277.533,236.006,262.57,236.999,241.102z"/>
	</g>
</g>
</svg>
