<?xml version="1.0" encoding="utf-8"?>
<!-- Generator: Adobe Illustrator 17.0.1, SVG Export Plug-In . SVG Version: 6.00 Build 0)  -->
<!DOCTYPE svg PUBLIC "-//W3C//DTD SVG 1.1//EN" "http://www.w3.org/Graphics/SVG/1.1/DTD/svg11.dtd">
<svg version="1.1" id="Layer_1" xmlns="http://www.w3.org/2000/svg" xmlns:xlink="http://www.w3.org/1999/xlink" x="0px" y="0px" width="400px" height="553px" viewBox="0 0 400 553" enable-background="new 0 0 400 553" xml:space="preserve">
	<style>
	#righteye, #lefteye {
		-webkit-animation: blink 10s 10s ease forwards infinite;
		-o-animation: blink 10s 10s ease forwards infinite;
		-moz-animation: blink 10s 10s ease forwards infinite;
		animation: blink 10s 10s ease forwards infinite;
	}
	
	@-webkit-keyframes blink {
		0% {
			ry: 36.5;
		}
		1.5% {
			ry: 0;
		}
		5% {
			ry: 36.5;
		}
		100% {
			ry: 36.5;
		}
	}
	</style>
	<g>
		<g>
			<path fill="#D9D9D9" d="M402,145.5c0,127.667,0,255.333,0,383c-0.666,9.33-4.849,16.474-12.772,21.626
			c-3.519,2.288-7.547,2.074-11.228,3.374c-117.333,0-234.667,0-352,0c-8.953-0.914-16.04-4.762-20.9-12.618
			c-3.355-5.422-3.543-11.392-3.549-17.341c-0.073-73.438-0.048-146.876-0.048-220.314c0-90.923,0.03-181.846-0.04-272.769
			C1.454,19.667,4.285,10.554,13.712,4.177C17.531,1.594,21.964,1.894,26,0.5c77,0,154,0,231,0c0.363,0.522,0.571,1.1,0.629,1.733
			c0.318,2.647,0.417,5.302,0.415,7.971c-0.017,34.312-0.032,68.624-0.004,102.937c0.017,19.93,11.391,31.303,31.321,31.319
			c34.312,0.028,68.624,0.014,102.937-0.004c2.669-0.001,5.324,0.098,7.973,0.405C400.904,144.922,401.48,145.136,402,145.5z" />
			<path fill="#CCCCCC" d="M256.903,1.59c1.854,1.656,3.795,3.225,5.55,4.979c44.51,44.475,89.005,88.967,133.483,133.474
			c1.754,1.755,3.322,3.697,4.976,5.552c-1.569,1.395-3.489,0.882-5.269,0.883c-36.327,0.028-72.655,0.04-108.982,0.012
			c-17.543-0.014-30.638-13.108-30.652-30.65c-0.028-36.327-0.015-72.655,0.012-108.982C256.022,5.079,255.509,3.159,256.903,1.59z" />
			<path fill="#FEFEFE" d="M322.905,295.973c-11.584,48.362-49.433,91.909-100.145,99.881c-55.226,8.681-94.865-8.576-123.141-47.876
			c5.637,2.93,11.55,5.202,17.371,7.686c12.365,5.277,25.615,6.771,38.675,8.661c15.279,2.211,30.752,2.329,46.216,2.247
			c23.153-0.122,43.987-7.646,63.617-19.127c16.901-9.886,31.463-22.73,44.873-36.889
			C314.773,305.908,318.739,300.846,322.905,295.973z" />
		</g>
	</g>
	<ellipse id="righteye" fill="#FFFFFF" cx="272.812" cy="241.439" rx="36.25" ry="36.25" />
	<ellipse id="lefteye" fill="#FFFFFF" cx="130.743" cy="241.439" rx="36.25" ry="36.25" />
</svg>
